<?xml version="1.0" encoding="utf-8"?>
<!-- Generator: Adobe Illustrator 24.0.1, SVG Export Plug-In . SVG Version: 6.00 Build 0)  -->
<svg version="1.1" id="Capa_1" xmlns="http://www.w3.org/2000/svg" xmlns:xlink="http://www.w3.org/1999/xlink" x="0px" y="0px"
	 viewBox="0 0 82 38" style="enable-background:new 0 0 82 38;" xml:space="preserve">
<style type="text/css">
	.st0{fill:#FFFFFF;}
	.st1{fill:#BF0811;}
	.st2{fill:#A01127;}
</style>
<path class="st0" d="M18.2,2.2V5H17V2.2h-1V1.1h3.2v1.1H18.2z"/>
<path class="st0" d="M22,2.6v0.9h-0.8c-0.1,0-0.2,0-0.2,0c0,0-0.1,0.1-0.1,0.2c0,0.1,0,0.1,0.1,0.2c0,0,0.1,0,0.3,0H22V5h-1
	c-0.5,0-0.8-0.1-1.1-0.3c-0.2-0.2-0.4-0.5-0.4-0.9V2.3c0-0.4,0.1-0.7,0.4-0.9c0.2-0.2,0.6-0.3,1-0.3H22v1.1h-0.8
	c-0.2,0-0.3,0.1-0.3,0.2c0,0.1,0,0.1,0.1,0.2c0.1,0,0.1,0,0.3,0H22z"/>
<path class="st0" d="M24.3,3v1H24V5h-1.3V2.5c0-0.5,0.1-0.9,0.4-1.1C23.4,1.1,23.8,1,24.3,1c0.5,0,0.9,0.1,1.1,0.4
	c0.2,0.2,0.4,0.6,0.4,1.1V5h-1.3V2.6c0-0.2,0-0.3-0.1-0.3c0-0.1-0.1-0.1-0.2-0.1c-0.2,0-0.3,0.1-0.3,0.4V3H24.3z"/>
<path class="st0" d="M26.5,5V2.2c0-0.3,0.1-0.6,0.3-0.9C27.1,1.1,27.4,1,27.7,1c0.4,0,0.8,0.2,1,0.6c0.1-0.2,0.3-0.3,0.5-0.4
	C29.4,1,29.6,1,29.8,1c0.4,0,0.7,0.1,0.9,0.3c0.2,0.2,0.3,0.5,0.3,1V5h-1.3V2.5c0-0.1,0-0.2,0-0.2c0,0-0.1-0.1-0.1-0.1
	c-0.1,0-0.2,0.1-0.2,0.3V5h-1.3V2.5c0-0.1,0-0.2,0-0.2c0,0-0.1-0.1-0.1-0.1c-0.1,0-0.2,0.1-0.2,0.3V5H26.5z"/>
<path class="st1" d="M65,0H51.3L37.9,14.4l-7.6-8.2H17l14.2,15.4L16,38h13.6l8.4-9l8.3,9h13.4l-15-16.2L65,0z"/>
<path class="st2" d="M43.3,23.3L65,0H52.7L37.6,17.1L29.2,8l1-1.8H17L32.5,23L20.8,36.3L16,38h13.6l8.4-9l8.3,9h13.4l-4.4-1.9
	L43.3,23.3z"/>
<path class="st0" d="M8.5,19.7c0,0.6-0.2,1.2-0.5,1.8c-0.3,0.5-0.7,1-1.4,1.3c-0.6,0.3-1.3,0.5-2.2,0.5H3v3.6H0V16.2h4.5
	c0.9,0,1.6,0.2,2.2,0.5c0.6,0.3,1.1,0.7,1.4,1.3S8.5,19,8.5,19.7z M4.2,20.9c0.8,0,1.3-0.4,1.3-1.2c0-0.8-0.4-1.2-1.3-1.2H3v2.3H4.2
	z"/>
<path class="st0" d="M15.1,26.9l-2.1-4h-0.3v4h-3V16.2h4.7c0.9,0,1.6,0.2,2.2,0.5c0.6,0.3,1,0.7,1.4,1.2c0.3,0.5,0.5,1.1,0.5,1.7
	c0,0.7-0.2,1.4-0.6,1.9c-0.4,0.5-1,0.9-1.7,1.2l2.4,4.2H15.1z M12.6,20.9h1.5c0.4,0,0.7-0.1,0.9-0.3c0.2-0.2,0.3-0.5,0.3-0.8
	c0-0.3-0.1-0.6-0.3-0.8c-0.2-0.2-0.5-0.3-0.9-0.3h-1.5V20.9z"/>
<path class="st0" d="M24.9,27c-1,0-1.9-0.2-2.8-0.7c-0.8-0.5-1.5-1.1-2-2c-0.5-0.8-0.7-1.8-0.7-2.8c0-1.1,0.2-2,0.7-2.8
	c0.5-0.8,1.2-1.5,2-2c0.8-0.5,1.8-0.7,2.8-0.7c1,0,1.9,0.2,2.8,0.7c0.8,0.5,1.5,1.1,2,2c0.5,0.8,0.7,1.8,0.7,2.8
	c0,1.1-0.2,2-0.7,2.8c-0.5,0.8-1.2,1.5-2,2C26.8,26.8,25.9,27,24.9,27z M24.9,24.2c0.8,0,1.4-0.2,1.8-0.7c0.4-0.5,0.7-1.2,0.7-2
	c0-0.9-0.2-1.5-0.7-2c-0.4-0.5-1-0.7-1.8-0.7c-0.8,0-1.4,0.2-1.8,0.7c-0.4,0.5-0.7,1.2-0.7,2c0,0.8,0.2,1.5,0.7,2
	C23.5,24,24.1,24.2,24.9,24.2z"/>
<path class="st0" d="M41.4,16.2l-3.8,7.3v3.4h-3v-3.4l-3.8-7.3h3.4l1.9,4.1l1.9-4.1H41.4z"/>
<path class="st0" d="M45.3,18.6v1.7h3.4v2.3h-3.4v1.9h3.9v2.4h-6.9V16.2h6.9v2.4H45.3z"/>
<path class="st0" d="M50.3,21.5c0-1.1,0.2-2,0.7-2.8c0.4-0.8,1.1-1.5,1.9-1.9c0.8-0.5,1.7-0.7,2.8-0.7c1.3,0,2.5,0.4,3.4,1.1
	c0.9,0.7,1.5,1.7,1.8,2.9h-3.2c-0.2-0.4-0.5-0.7-0.8-0.9c-0.3-0.2-0.7-0.3-1.2-0.3c-0.7,0-1.2,0.2-1.7,0.7c-0.4,0.5-0.6,1.1-0.6,2
	c0,0.8,0.2,1.5,0.6,2c0.4,0.5,1,0.7,1.7,0.7c0.4,0,0.8-0.1,1.2-0.3c0.3-0.2,0.6-0.5,0.8-0.9h3.2c-0.3,1.2-0.9,2.2-1.8,2.9
	c-0.9,0.7-2,1.1-3.4,1.1c-1.1,0-2-0.2-2.8-0.7c-0.8-0.5-1.4-1.1-1.9-1.9C50.5,23.5,50.3,22.6,50.3,21.5z"/>
<path class="st0" d="M70.3,16.2v2.4h-2.9v8.4h-3v-8.4h-2.8v-2.4H70.3z"/>
<path class="st0" d="M76.5,27c-1,0-1.9-0.2-2.8-0.7c-0.8-0.5-1.5-1.1-2-2c-0.5-0.8-0.7-1.8-0.7-2.8c0-1.1,0.2-2,0.7-2.8
	c0.5-0.8,1.2-1.5,2-2c0.8-0.5,1.8-0.7,2.8-0.7c1,0,1.9,0.2,2.8,0.7c0.8,0.5,1.5,1.1,2,2c0.5,0.8,0.7,1.8,0.7,2.8
	c0,1.1-0.2,2-0.7,2.8c-0.5,0.8-1.2,1.5-2,2C78.4,26.8,77.5,27,76.5,27z M76.5,24.2c0.8,0,1.4-0.2,1.8-0.7c0.4-0.5,0.7-1.2,0.7-2
	c0-0.9-0.2-1.5-0.7-2c-0.4-0.5-1-0.7-1.8-0.7c-0.8,0-1.4,0.2-1.8,0.7c-0.4,0.5-0.7,1.2-0.7,2c0,0.8,0.2,1.5,0.7,2
	C75.1,24,75.7,24.2,76.5,24.2z"/>
</svg>
