<svg width="72" height="73" viewBox="0 0 72 73" fill="none" xmlns="http://www.w3.org/2000/svg">
<path d="M30 24V6C30 4.4087 29.3679 2.88258 28.2426 1.75736C27.1174 0.632141 25.5913 0 24 0L6 0C4.4087 0 2.88258 0.632141 1.75736 1.75736C0.632141 2.88258 0 4.4087 0 6L0 24C0 25.5913 0.632141 27.1174 1.75736 28.2426C2.88258 29.3679 4.4087 30 6 30H24C25.5913 30 27.1174 29.3679 28.2426 28.2426C29.3679 27.1174 30 25.5913 30 24ZM3 24V6C3 5.20435 3.31607 4.44129 3.87868 3.87868C4.44129 3.31607 5.20435 3 6 3H24C24.7957 3 25.5587 3.31607 26.1213 3.87868C26.6839 4.44129 27 5.20435 27 6V24C27 24.7957 26.6839 25.5587 26.1213 26.1213C25.5587 26.6839 24.7957 27 24 27H6C5.20435 27 4.44129 26.6839 3.87868 26.1213C3.31607 25.5587 3 24.7957 3 24Z" fill="#0C0C0C"/>
<path d="M66 0H48C46.4087 0 44.8826 0.632141 43.7574 1.75736C42.6321 2.88258 42 4.4087 42 6V24C42 25.5913 42.6321 27.1174 43.7574 28.2426C44.8826 29.3679 46.4087 30 48 30H66C67.5913 30 69.1174 29.3679 70.2426 28.2426C71.3679 27.1174 72 25.5913 72 24V6C72 4.4087 71.3679 2.88258 70.2426 1.75736C69.1174 0.632141 67.5913 0 66 0V0ZM69 24C69 24.7957 68.6839 25.5587 68.1213 26.1213C67.5587 26.6839 66.7957 27 66 27H48C47.2044 27 46.4413 26.6839 45.8787 26.1213C45.3161 25.5587 45 24.7957 45 24V6C45 5.20435 45.3161 4.44129 45.8787 3.87868C46.4413 3.31607 47.2044 3 48 3H66C66.7957 3 67.5587 3.31607 68.1213 3.87868C68.6839 4.44129 69 5.20435 69 6V24Z" fill="#0C0C0C"/>
<path d="M56.4 51.705C56.784 51.0219 56.9829 50.2504 56.9772 49.4668C56.9714 48.6833 56.7611 47.9148 56.3671 47.2374C55.9731 46.5601 55.4091 45.9973 54.7308 45.6049C54.0526 45.2125 53.2836 45.004 52.5 45H40.995C42.375 40.17 44.445 36 39.165 31.995C38.7115 31.6588 38.1881 31.4288 37.6337 31.3222C37.0793 31.2155 36.508 31.2349 35.9621 31.379C35.4162 31.523 34.9096 31.788 34.48 32.1543C34.0504 32.5206 33.7086 32.9788 33.48 33.495C28.5 44.535 29.475 43.5 24.765 47.055C23.085 44.475 21.195 45 13.5 45C13.1022 45 12.7206 45.1581 12.4393 45.4394C12.158 45.7207 12 46.1022 12 46.5V70.5C12 70.8978 12.158 71.2794 12.4393 71.5607C12.7206 71.842 13.1022 72 13.5 72H21C21.7676 71.9984 22.522 71.8004 23.1915 71.425C23.861 71.0496 24.4233 70.5091 24.825 69.855C29.115 72.72 29.115 72 51 72C51.7836 71.9961 52.5526 71.7876 53.2308 71.3951C53.9091 71.0027 54.4731 70.44 54.8671 69.7626C55.2611 69.0853 55.4714 68.3168 55.4772 67.5332C55.4829 66.7496 55.284 65.9781 54.9 65.295C55.8695 64.6761 56.5651 63.7094 56.8441 62.5935C57.123 61.4777 56.9641 60.2974 56.4 59.295C57.038 58.8884 57.5633 58.3276 57.9271 57.6643C58.291 57.0009 58.4817 56.2566 58.4817 55.5C58.4817 54.7435 58.291 53.9991 57.9271 53.3358C57.5633 52.6725 57.038 52.1116 56.4 51.705ZM22.5 67.5C22.5 67.8978 22.342 68.2794 22.0607 68.5607C21.7794 68.842 21.3978 69 21 69H15V48H21C21.3978 48 21.7794 48.1581 22.0607 48.4394C22.342 48.7207 22.5 49.1022 22.5 49.5V67.5ZM51 69C27.18 69 29.865 69.615 25.5 66.69V50.19C28.59 47.88 30.975 46.44 32.64 42.69C36.54 33.93 36.195 33.465 37.8 34.665C38.5265 35.2121 39.0701 35.9665 39.3593 36.8287C39.6485 37.6909 39.6697 38.6205 39.42 39.495L37.5 46.095C37.436 46.3226 37.4267 46.562 37.4728 46.7938C37.519 47.0257 37.6193 47.2433 37.7655 47.429C37.9117 47.6147 38.0998 47.7633 38.3143 47.8625C38.5288 47.9617 38.7638 48.0088 39 48H52.5C52.8978 48 53.2794 48.1581 53.5607 48.4394C53.842 48.7207 54 49.1022 54 49.5C54 49.8978 53.842 50.2794 53.5607 50.5607C53.2794 50.842 52.8978 51 52.5 51H43.5C43.1022 51 42.7206 51.1581 42.4393 51.4394C42.158 51.7207 42 52.1022 42 52.5C42 52.8978 42.158 53.2794 42.4393 53.5607C42.7206 53.842 43.1022 54 43.5 54H54C54.3978 54 54.7794 54.1581 55.0607 54.4394C55.342 54.7207 55.5 55.1022 55.5 55.5C55.5 55.8978 55.342 56.2794 55.0607 56.5607C54.7794 56.842 54.3978 57 54 57H43.5C43.1022 57 42.7206 57.1581 42.4393 57.4394C42.158 57.7207 42 58.1022 42 58.5C42 58.8978 42.158 59.2794 42.4393 59.5607C42.7206 59.842 43.1022 60 43.5 60H52.5C52.8978 60 53.2794 60.1581 53.5607 60.4394C53.842 60.7207 54 61.1022 54 61.5C54 61.8978 53.842 62.2794 53.5607 62.5607C53.2794 62.842 52.8978 63 52.5 63H43.5C43.1022 63 42.7206 63.1581 42.4393 63.4394C42.158 63.7207 42 64.1022 42 64.5C42 64.8978 42.158 65.2794 42.4393 65.5607C42.7206 65.842 43.1022 66 43.5 66H51C51.3978 66 51.7794 66.1581 52.0607 66.4394C52.342 66.7207 52.5 67.1022 52.5 67.5C52.5 67.8978 52.342 68.2794 52.0607 68.5607C51.7794 68.842 51.3978 69 51 69Z" fill="#0C0C0C"/>
<path d="M15 9C13.8133 9 12.6533 9.35189 11.6666 10.0112C10.6799 10.6705 9.91085 11.6075 9.45673 12.7039C9.0026 13.8003 8.88378 15.0067 9.11529 16.1705C9.3468 17.3344 9.91825 18.4035 10.7574 19.2426C11.5965 20.0818 12.6656 20.6532 13.8295 20.8847C14.9933 21.1162 16.1997 20.9974 17.2961 20.5433C18.3925 20.0892 19.3295 19.3201 19.9888 18.3334C20.6481 17.3467 21 16.1867 21 15C21 13.4087 20.3679 11.8826 19.2426 10.7574C18.1174 9.63214 16.5913 9 15 9ZM15 18C14.4067 18 13.8266 17.8241 13.3333 17.4944C12.8399 17.1648 12.4554 16.6962 12.2284 16.1481C12.0013 15.5999 11.9419 14.9967 12.0576 14.4147C12.1734 13.8328 12.4591 13.2982 12.8787 12.8787C13.2982 12.4591 13.8328 12.1734 14.4147 12.0576C14.9967 11.9419 15.5999 12.0013 16.1481 12.2284C16.6962 12.4554 17.1648 12.8399 17.4944 13.3333C17.8241 13.8266 18 14.4067 18 15C18 15.7957 17.6839 16.5587 17.1213 17.1213C16.5587 17.6839 15.7957 18 15 18Z" fill="#0C0C0C"/>
<path d="M23.565 6.43503C23.2825 6.15258 22.8995 5.9939 22.5 5.9939C22.1006 5.9939 21.7175 6.15258 21.435 6.43503C21.1525 6.71749 20.9939 7.10058 20.9939 7.50003C20.9939 7.89949 21.1525 8.28258 21.435 8.56503C21.5749 8.70489 21.7409 8.81583 21.9236 8.89152C22.1064 8.96721 22.3022 9.00617 22.5 9.00617C22.6978 9.00617 22.8936 8.96721 23.0764 8.89152C23.2591 8.81583 23.4251 8.70489 23.565 8.56503C23.7049 8.42518 23.8158 8.25914 23.8915 8.07641C23.9672 7.89367 24.0061 7.69782 24.0061 7.50003C24.0061 7.30225 23.9672 7.10639 23.8915 6.92366C23.8158 6.74093 23.7049 6.57489 23.565 6.43503Z" fill="#0C0C0C"/>
<path d="M61.5 6H60C58.4087 6 56.8826 6.63214 55.7574 7.75736C54.6321 8.88258 54 10.4087 54 12V13.5H52.5C52.1022 13.5 51.7206 13.658 51.4393 13.9393C51.158 14.2206 51 14.6022 51 15C51 15.3978 51.158 15.7794 51.4393 16.0607C51.7206 16.342 52.1022 16.5 52.5 16.5H54V22.5C54 22.8978 54.158 23.2794 54.4393 23.5607C54.7206 23.842 55.1022 24 55.5 24C55.8978 24 56.2794 23.842 56.5607 23.5607C56.842 23.2794 57 22.8978 57 22.5V16.5H60C60.3978 16.5 60.7794 16.342 61.0607 16.0607C61.342 15.7794 61.5 15.3978 61.5 15C61.5 14.6022 61.342 14.2206 61.0607 13.9393C60.7794 13.658 60.3978 13.5 60 13.5H57V12C57 11.2044 57.3161 10.4413 57.8787 9.87868C58.4413 9.31607 59.2044 9 60 9H61.5C61.8978 9 62.2794 8.84196 62.5607 8.56066C62.842 8.27936 63 7.89782 63 7.5C63 7.10218 62.842 6.72064 62.5607 6.43934C62.2794 6.15804 61.8978 6 61.5 6Z" fill="#0C0C0C"/>
</svg>
