<svg width="67" height="67" viewBox="0 0 67 67" fill="none" xmlns="http://www.w3.org/2000/svg">
<g clip-path="url(#clip0_2289_563)">
<path d="M64.4065 0.212158H2.5935C1.16347 0.212158 0 1.3755 0 2.80553V11.8385C0 12.3805 0.439426 12.8199 0.981445 12.8199C1.52346 12.8199 1.96289 12.3805 1.96289 11.8385V2.80553C1.96289 2.45784 2.24581 2.17505 2.5935 2.17505H64.4065C64.7542 2.17505 65.0371 2.45797 65.0371 2.80553V44.2397C65.0371 44.5875 64.7542 44.8704 64.4064 44.8704H49.5186C49.5759 44.2233 49.3582 43.5561 48.8639 43.0618L48.1221 42.32H60.8601C61.757 42.32 62.4867 41.5903 62.4867 40.6934V6.35195C62.4867 5.45504 61.757 4.72537 60.8601 4.72537H6.13992C5.24301 4.72537 4.51334 5.45504 4.51334 6.35195V40.6934C4.51334 41.5903 5.24301 42.32 6.13992 42.32H28.7647V44.8704H2.59363C2.24581 44.8704 1.96289 44.5874 1.96289 44.2397V16.4186C1.96289 15.8765 1.52346 15.4371 0.981445 15.4371C0.439426 15.4371 0 15.8765 0 16.4186V50.2041C0 51.6341 1.16347 52.7975 2.5935 52.7975H26.4704L23.9323 60.0593H21.1678C19.2637 60.0593 17.7144 61.6084 17.7144 63.5126V65.222C17.7144 66.0855 18.4169 66.7879 19.2804 66.7879H47.7194C48.583 66.7879 49.2854 66.0855 49.2854 65.222V63.5126C49.2854 61.6085 47.7363 60.0593 45.8321 60.0593H43.0677L40.5296 52.7975H51.1423C51.6843 52.7975 52.1238 52.358 52.1238 51.816C52.1238 51.274 51.6843 50.8346 51.1423 50.8346H2.5935C2.24581 50.8346 1.96289 50.5517 1.96289 50.2041V46.7524C2.1652 46.8032 2.37575 46.8332 2.59363 46.8332H29.4474C29.6979 47.0823 30.0085 47.2776 30.3663 47.3983C31.2374 47.6924 32.1542 47.4691 32.7835 46.8332H39.2636L42.1779 49.7475C42.607 50.1766 43.1774 50.413 43.7842 50.413C44.391 50.413 44.9616 50.1766 45.3905 49.7475L48.305 46.8332H64.4064C64.6242 46.8332 64.8348 46.8032 65.0371 46.7524V50.2041C65.0371 50.5518 64.7542 50.8346 64.4065 50.8346H55.7224C55.1804 50.8346 54.741 51.274 54.741 51.816C54.741 52.358 55.1804 52.7975 55.7224 52.7975H64.4065C65.8365 52.7975 67 51.634 67 50.2041V2.80553C67 1.3755 65.8365 0.212158 64.4065 0.212158ZM47.3225 63.5128V64.8251H19.6775V63.5128C19.6775 62.691 20.346 62.0223 21.1679 62.0223H45.8322C46.654 62.0223 47.3225 62.6908 47.3225 63.5128ZM40.9883 60.0594H26.0117L28.5497 52.7976H38.4504L40.9883 60.0594ZM6.47623 40.3571V6.68826H60.5238V40.3571H46.1592L42.2883 36.486L45.7113 33.8765C46.528 33.2539 46.8433 32.223 46.5147 31.25C46.1862 30.2771 45.3103 29.6486 44.2835 29.6486H32.1029C30.2623 29.6486 28.7647 31.1461 28.7647 32.9868V40.3571H6.47623ZM34.3074 44.8704L35.6023 43.172L37.3007 44.8704H34.3074ZM44.0028 48.3598C43.8824 48.4802 43.6864 48.4802 43.566 48.3598L36.369 41.1628C36.1441 40.938 35.8399 40.8127 35.5241 40.8127C35.4974 40.8127 35.4706 40.8136 35.4438 40.8155C35.0998 40.8386 34.7826 41.0091 34.5738 41.2832L31.4316 45.405C31.2831 45.5997 31.0939 45.5723 30.9943 45.5387C30.8947 45.5051 30.7276 45.412 30.7276 45.1672V32.9867C30.7276 32.2283 31.3446 31.6113 32.1029 31.6113H44.2835C44.5284 31.6113 44.6213 31.7784 44.655 31.878C44.6886 31.9776 44.716 32.167 44.5212 32.3154L40.3994 35.4576C40.1253 35.6667 39.9548 35.9837 39.9317 36.3278C39.9086 36.6717 40.0352 37.0089 40.279 37.2526L47.476 44.4496C47.5964 44.57 47.5964 44.7659 47.476 44.8864L44.0028 48.3598Z" fill="white"/>
<path d="M51.0889 23.7334C49.208 23.9411 47.6738 25.4538 47.441 27.3302C47.3742 27.8682 47.7562 28.3582 48.2941 28.4251C48.8325 28.492 49.3222 28.1099 49.389 27.572C49.5112 26.5873 50.3167 25.7935 51.3046 25.6844C51.9385 25.6146 52.5462 25.8071 53.0153 26.2273C53.4783 26.6419 53.7438 27.2359 53.7438 27.8567C53.7438 28.9615 52.9185 29.8945 51.8239 30.027C51.1125 30.1132 50.5761 30.7192 50.5761 31.4365V32.4832C50.5761 33.0252 51.0155 33.4646 51.5576 33.4646C52.0996 33.4646 52.539 33.0252 52.539 32.4832V31.889C54.3751 31.4444 55.7067 29.7889 55.7067 27.8567C55.7067 26.6785 55.203 25.5517 54.3248 24.7651C53.4472 23.9792 52.2676 23.6029 51.0889 23.7334Z" fill="white"/>
<path d="M51.5574 35.676C51.0154 35.676 50.576 36.1155 50.576 36.6575V37.0092C50.576 37.5512 51.0154 37.9907 51.5574 37.9907C52.0994 37.9907 52.5388 37.5512 52.5388 37.0092V36.6575C52.5388 36.1155 52.0994 35.676 51.5574 35.676Z" fill="white"/>
<path d="M31.744 13.6782H52.7687C53.3107 13.6782 53.7501 13.2388 53.7501 12.6968C53.7501 12.1548 53.3107 11.7153 52.7687 11.7153H31.744C31.202 11.7153 30.7626 12.1548 30.7626 12.6968C30.7626 13.2388 31.202 13.6782 31.744 13.6782Z" fill="white"/>
<path d="M31.744 19.9722H52.7687C53.3107 19.9722 53.7501 19.5327 53.7501 18.9907C53.7501 18.4487 53.3107 18.0093 52.7687 18.0093H31.744C31.202 18.0093 30.7626 18.4487 30.7626 18.9907C30.7626 19.5327 31.202 19.9722 31.744 19.9722Z" fill="white"/>
<path d="M31.744 26.2664H40.6156C41.1576 26.2664 41.5971 25.8269 41.5971 25.2849C41.5971 24.7429 41.1576 24.3035 40.6156 24.3035H31.744C31.202 24.3035 30.7626 24.7429 30.7626 25.2849C30.7626 25.8269 31.202 26.2664 31.744 26.2664Z" fill="white"/>
<path d="M22.8236 11.0901C22.7804 10.9556 22.6822 10.8518 22.5288 10.7792C22.3753 10.7065 22.1989 10.6702 21.9997 10.6702C21.8004 10.6702 21.6241 10.7065 21.4706 10.7792C21.3171 10.8519 21.2188 10.9557 21.1758 11.0901L19.6734 16.0173C19.6625 16.0605 19.6573 16.0901 19.6573 16.1062C19.6573 16.2463 19.7447 16.3675 19.9198 16.4697C20.0948 16.5721 20.2765 16.6232 20.4651 16.6232C20.6966 16.6232 20.8339 16.5452 20.877 16.389L21.1517 15.3793H22.856L23.1307 16.389C23.1738 16.5452 23.311 16.6232 23.5426 16.6232C23.7311 16.6232 23.9128 16.5721 24.0879 16.4697C24.2629 16.3675 24.3504 16.2463 24.3504 16.1062C24.3504 16.0901 24.3449 16.0605 24.3343 16.0173L22.8236 11.0901ZM21.41 14.4099L21.9997 12.2452L22.5893 14.4099H21.41Z" fill="white"/>
<path d="M13.2308 10.8135C11.4028 10.8135 9.91574 12.3006 9.91574 14.1285C9.91574 15.9565 11.403 17.4436 13.2308 17.4436C15.0586 17.4436 16.5459 15.9564 16.5459 14.1285C16.5459 12.3007 15.0588 10.8135 13.2308 10.8135ZM13.2308 15.4808C12.4852 15.4808 11.8786 14.8742 11.8786 14.1287C11.8786 13.3832 12.4853 12.7765 13.2308 12.7765C13.9763 12.7765 14.583 13.383 14.583 14.1287C14.583 14.8743 13.9764 15.4808 13.2308 15.4808Z" fill="white"/>
<path d="M23.1951 23.6981C23.6527 23.4989 23.8817 23.0761 23.8817 22.4299C23.8817 21.4715 23.3432 20.9922 22.2662 20.9922H20.6104C20.4595 20.9922 20.3303 21.0259 20.2226 21.0931C20.1148 21.1605 20.061 21.256 20.061 21.3798V26.5171C20.061 26.6194 20.1107 26.7083 20.2104 26.7836C20.31 26.8591 20.4432 26.8967 20.6104 26.8967H22.4035C22.899 26.8967 23.2934 26.7581 23.5869 26.4807C23.8804 26.2034 24.0271 25.7632 24.0271 25.1601V24.9905C24.0271 24.6136 23.9571 24.3295 23.8171 24.1383C23.677 23.9473 23.4698 23.8004 23.1951 23.6981ZM21.3132 22.0908H22.1613C22.3067 22.0908 22.4197 22.1473 22.5005 22.2603C22.5814 22.3734 22.6217 22.5054 22.6217 22.6562C22.6217 22.8069 22.5812 22.9375 22.5005 23.048C22.4197 23.1584 22.3067 23.2135 22.1613 23.2135H21.3132V22.0908ZM22.767 25.0551C22.767 25.5505 22.5517 25.7983 22.1209 25.7983H21.3132V24.1828H22.1209C22.5517 24.1828 22.767 24.4305 22.767 24.9259V25.0551Z" fill="white"/>
<path d="M13.2308 21.0872C11.4028 21.0872 9.91574 22.5742 9.91574 24.4022C9.91574 26.2302 11.403 27.7173 13.2308 27.7173C15.0586 27.7173 16.5459 26.2301 16.5459 24.4022C16.5459 22.5744 15.0588 21.0872 13.2308 21.0872ZM13.2308 25.7544C12.4852 25.7544 11.8786 25.1477 11.8786 24.4022C11.8786 23.6567 12.4853 23.05 13.2308 23.05C13.9763 23.05 14.583 23.6566 14.583 24.4022C14.583 25.1479 13.9764 25.7544 13.2308 25.7544Z" fill="white"/>
<path d="M21.9836 32.3642C22.4467 32.3642 22.6863 32.6065 22.7025 33.0911C22.7188 33.3443 22.9287 33.4707 23.3325 33.4707C23.5587 33.4707 23.7202 33.4291 23.8172 33.3455C23.9142 33.262 23.9626 33.1046 23.9626 32.873C23.9626 32.3722 23.7728 31.9791 23.3931 31.6937C23.0135 31.4083 22.5274 31.2656 21.935 31.2656C21.3589 31.2656 20.8917 31.4191 20.5337 31.7261C20.1755 32.0331 19.9965 32.5151 19.9965 33.172V35.3125C19.9965 35.9695 20.1755 36.4513 20.5337 36.7583C20.8917 37.0653 21.3589 37.2187 21.935 37.2187C22.5273 37.2187 23.0135 37.0681 23.3931 36.7663C23.7727 36.4648 23.9626 36.0529 23.9626 35.5305C23.9626 35.299 23.9142 35.1414 23.8172 35.0579C23.7202 34.9744 23.5559 34.9327 23.3245 34.9327C22.9314 34.9327 22.724 35.0592 22.7025 35.3123C22.6782 35.5661 22.658 35.6477 22.5814 35.8252C22.4819 36.0547 22.2409 36.12 21.9917 36.12C21.5016 36.12 21.2567 35.8508 21.2567 35.3123V33.1719C21.2565 32.6335 21.4989 32.3642 21.9836 32.3642Z" fill="white"/>
<path d="M13.2308 31.3606C11.4028 31.3606 9.91574 32.8478 9.91574 34.6757C9.91574 36.5035 11.403 37.9907 13.2308 37.9907C15.0586 37.9907 16.5459 36.5036 16.5459 34.6757C16.5459 32.8477 15.0588 31.3606 13.2308 31.3606ZM13.2308 36.0278C12.4852 36.0278 11.8786 35.4213 11.8786 34.6757C11.8786 33.93 12.4853 33.3235 13.2308 33.3235C13.9763 33.3235 14.583 33.9302 14.583 34.6757C14.583 35.4212 13.9764 36.0278 13.2308 36.0278Z" fill="white"/>
<path d="M0.5 5.5V22" stroke="white" stroke-width="3"/>
</g>
<defs>
<clipPath id="clip0_2289_563">
<rect width="67" height="67" fill="white"/>
</clipPath>
</defs>
</svg>
