<svg width="49" height="49" viewBox="0 0 49 49" fill="none" xmlns="http://www.w3.org/2000/svg">
<g clip-path="url(#clip0_2037_598)">
<path d="M48.9426 3.65798C48.8365 1.71157 47.2885 0.163767 45.3421 0.0575363C41.4146 -0.15703 33.7293 0.0516986 26.3804 3.85274C22.6341 5.79054 18.672 9.07593 15.5101 12.8665C15.4711 12.9132 15.4332 12.9602 15.3945 13.007L8.21872 13.5613C7.03755 13.6526 5.98549 14.2717 5.33222 15.2598L0.436622 22.6645C-0.0588335 23.4139 -0.137597 24.3517 0.225788 25.1731C0.589268 25.9946 1.33614 26.5671 2.22378 26.7046L8.26944 27.641C8.2481 27.7585 8.22667 27.8759 8.20705 27.9935C8.00578 29.1974 8.40467 30.4352 9.27423 31.3047L17.6953 39.7259C18.4163 40.4468 19.3904 40.8443 20.3886 40.8443C20.5942 40.8443 20.8009 40.8274 21.0067 40.793C21.1242 40.7734 21.2416 40.7519 21.3591 40.7306L22.2955 46.7764C22.433 47.664 23.0055 48.411 23.8268 48.7743C24.1686 48.9256 24.5303 49.0002 24.8903 49.0002C25.3959 49.0001 25.898 48.8529 26.3355 48.5636L33.7403 43.6679C34.7284 43.0146 35.3474 41.9625 35.4385 40.7814L35.9928 33.6057C36.0396 33.567 36.0867 33.5291 36.1334 33.4902C39.9241 30.3282 43.2096 26.3661 45.1473 22.6197C48.9485 15.2706 49.1569 7.58516 48.9426 3.65798ZM32.1569 41.2729L25.0738 45.9559L24.1611 40.0639C27.1547 39.1838 30.1161 37.774 32.9373 35.8855L32.5762 40.5602C32.5537 40.8518 32.4008 41.1116 32.1569 41.2729ZM19.7255 37.6958L11.3043 29.2746C11.0894 29.0596 10.9901 28.7577 11.0388 28.4668C11.2892 26.9697 11.6782 25.5446 12.1598 24.2021L24.7953 36.8376C23.1829 37.4152 21.7386 37.7597 20.5332 37.9612C20.2419 38.0097 19.9403 37.9106 19.7255 37.6958ZM8.43989 16.4239L13.1144 16.0628C11.2258 18.8841 9.8161 21.8454 8.93592 24.839L3.04405 23.9265L7.72719 16.8433C7.88855 16.5992 8.14838 16.4464 8.43989 16.4239ZM34.2946 31.2853C31.9754 33.2197 29.7242 34.6189 27.6491 35.6313L13.3682 21.3504C14.6945 18.6416 16.3131 16.386 17.7148 14.7057C20.6409 11.1977 24.2802 8.17144 27.6996 6.40284C34.4442 2.91418 41.5502 2.72631 45.1858 2.92423C45.667 2.95045 46.0497 3.33317 46.0759 3.81446C46.2741 7.45003 46.0859 14.556 42.5972 21.3007C40.8287 24.7199 37.8025 28.3591 34.2946 31.2853Z" fill="white"/>
<path d="M33.5651 22.6092C35.4028 22.609 37.2413 21.9094 38.6403 20.5103C39.9961 19.1547 40.7426 17.3522 40.7426 15.4351C40.7426 13.518 39.996 11.7155 38.6403 10.3599C35.8418 7.56122 31.2882 7.56141 28.4899 10.3599C27.1342 11.7155 26.3876 13.518 26.3876 15.4351C26.3876 17.3522 27.1342 19.1547 28.4899 20.5103C29.8893 21.9097 31.7268 22.6094 33.5651 22.6092ZM30.5198 12.3899C31.3593 11.5503 32.4621 11.1306 33.5649 11.1306C34.6678 11.1306 35.7706 11.5503 36.6101 12.3899C37.4235 13.2033 37.8714 14.2848 37.8714 15.435C37.8714 16.5853 37.4235 17.6668 36.6101 18.4802C34.9311 20.1593 32.1989 20.1592 30.5197 18.4802C29.7064 17.6668 29.2584 16.5854 29.2584 15.4351C29.2584 14.2848 29.7065 13.2033 30.5198 12.3899Z" fill="white"/>
<path d="M1.46431 40.3808C1.83171 40.3808 2.19912 40.2407 2.47934 39.9603L7.1662 35.2734C7.72683 34.7128 7.72683 33.8039 7.1662 33.2432C6.60567 32.6826 5.69668 32.6826 5.13605 33.2432L0.44928 37.9301C-0.111349 38.4907 -0.111349 39.3996 0.44928 39.9603C0.729499 40.2406 1.0969 40.3808 1.46431 40.3808Z" fill="white"/>
<path d="M11.4615 37.5385C10.9009 36.9779 9.99193 36.9779 9.4313 37.5385L0.420472 46.5494C-0.140157 47.1101 -0.140157 48.0189 0.420472 48.5796C0.700786 48.8599 1.06809 49 1.4355 49C1.8029 49 2.17031 48.8599 2.45053 48.5795L11.4614 39.5686C12.0221 39.008 12.0221 38.0991 11.4615 37.5385Z" fill="white"/>
<path d="M13.7266 41.8337L9.03973 46.5206C8.47911 47.0812 8.47911 47.9901 9.03973 48.5508C9.32005 48.8311 9.68745 48.9713 10.0548 48.9713C10.4221 48.9713 10.7896 48.8312 11.0698 48.5508L15.7567 43.8639C16.3173 43.3033 16.3173 42.3944 15.7567 41.8337C15.1961 41.2731 14.2871 41.2731 13.7266 41.8337Z" fill="white"/>
</g>
<defs>
<clipPath id="clip0_2037_598">
<rect width="49" height="49" fill="white"/>
</clipPath>
</defs>
</svg>
