<svg width="64" height="64" viewBox="0 0 64 64" fill="none" xmlns="http://www.w3.org/2000/svg">
<g clip-path="url(#clip0_2037_679)">
<path d="M55.2047 -0.19728V-0.2H55.0047H52.2531C51.8941 -0.2 51.6113 -0.0586175 51.4211 0.162603C51.2344 0.379663 51.1459 0.662362 51.1459 0.937636C51.1459 1.21291 51.2344 1.49561 51.4211 1.71267C51.6113 1.93389 51.8941 2.07527 52.2531 2.07527H55.0047C57.7366 2.07527 59.9583 4.28999 59.9583 7.01026V28.7099C59.9583 31.4303 57.7367 33.645 55.0047 33.645H51.8839C51.6341 33.645 51.3912 33.7272 51.1927 33.879L51.1927 33.8791L45.7876 38.0135V34.7827C45.7876 34.1544 45.2784 33.645 44.65 33.645H33.2383C32.3779 33.645 31.5504 33.4277 30.8136 33.0139V22.6039C30.8136 20.601 29.8123 18.8277 28.2846 17.7549V7.01026C28.2846 4.29 30.5063 2.07527 33.2383 2.07527H46.3772C46.7362 2.07527 47.0189 1.93388 47.2092 1.71266C47.3958 1.4956 47.4843 1.2129 47.4843 0.937636C47.4843 0.662367 47.3958 0.379671 47.2092 0.162611C47.0189 -0.0586117 46.7362 -0.2 46.3772 -0.2H33.2383C29.2526 -0.2 26.0093 3.03387 26.0093 7.01026V16.7878C25.6414 16.716 25.2614 16.6774 24.8724 16.6774H7.70788C4.43232 16.6774 1.7668 19.3354 1.7668 22.6039V24.6286C1.7668 24.9875 1.90819 25.2703 2.12941 25.4605C2.34647 25.6472 2.62916 25.7356 2.90443 25.7356C3.1797 25.7356 3.4624 25.6472 3.67946 25.4605C3.90068 25.2703 4.04207 24.9875 4.04207 24.6286V22.6039C4.04207 20.5915 5.68594 18.9527 7.70788 18.9527H24.8725C26.8944 18.9527 28.5384 20.5915 28.5384 22.6039V33.4899C28.5271 33.5819 28.5277 33.6737 28.5384 33.7634V39.7159C28.5384 39.7663 28.537 39.817 28.5345 39.8679H26.787C24.5952 39.8679 22.7623 41.4233 22.3355 43.4858C22.27 43.5184 22.2067 43.5577 22.1466 43.6041L22.1465 43.6042L18.275 46.5934V44.5047C18.275 43.8764 17.7658 43.367 17.1374 43.367H7.70788C5.68594 43.367 4.04207 41.7283 4.04207 39.7159V30.2544C4.04207 29.8954 3.90068 29.6127 3.67946 29.4224C3.4624 29.2358 3.1797 29.1473 2.90443 29.1473C2.62916 29.1473 2.34647 29.2358 2.12941 29.4224C1.90819 29.6127 1.7668 29.8954 1.7668 30.2544V39.716C1.7668 42.9845 4.43232 45.6424 7.70788 45.6424H15.9999V48.9092C15.9999 49.8269 17.1035 50.3726 17.8328 49.8098L17.8328 49.8097L22.2406 46.4064V56.5477C22.2406 59.0496 24.2805 61.0837 26.7871 61.0837H32.3411V63.0716C32.3411 63.9889 33.4446 64.5354 34.1739 63.9721L37.915 61.0837H38.9679C41.4745 61.0837 43.5144 59.0494 43.5144 56.5477V54.8829C43.5144 54.5239 43.373 54.2412 43.1518 54.051C42.9347 53.8643 42.652 53.7759 42.3768 53.7759C42.1015 53.7759 41.8188 53.8643 41.6017 54.051C41.3805 54.2412 41.2391 54.5239 41.2391 54.8829V56.5477C41.2391 57.7934 40.2209 58.8084 38.9679 58.8084H37.5268C37.2752 58.8084 37.0307 58.8918 36.8316 59.0455L34.6162 60.7559V59.9459C34.6162 59.3176 34.107 58.8083 33.4786 58.8083H26.787C25.5341 58.8083 24.5158 57.7931 24.5158 56.5476V44.404C24.5158 43.1584 25.534 42.1433 26.787 42.1433H38.9679C40.2208 42.1433 41.2391 43.1585 41.2391 44.404V49.0071C41.2391 49.3661 41.3805 49.6488 41.6017 49.839C41.8188 50.0257 42.1015 50.1142 42.3768 50.1142C42.652 50.1142 42.9347 50.0257 43.1518 49.839C43.373 49.6488 43.5144 49.3661 43.5144 49.0071V44.4042C43.5144 41.9023 41.4745 39.8682 38.9679 39.8682H30.8051C30.8077 39.4569 30.8096 38.5177 30.811 37.5981C30.8119 36.9987 30.8126 36.4031 30.813 35.9572L30.8134 35.5046C31.5845 35.7787 32.4014 35.9204 33.2384 35.9204H43.5125V40.3161C43.5125 41.2316 44.6114 41.7778 45.3413 41.2197L45.3413 41.2197L52.2693 35.9204H55.0048C58.9905 35.9204 62.2337 32.6865 62.2337 28.71V7.01026C62.2336 3.1006 59.0983 -0.0912609 55.2047 -0.19728Z" fill="white" stroke="white" stroke-width="0.4"/>
<path d="M42.375 46.25V55.5" stroke="white" stroke-width="2.8"/>
<path d="M52.375 0.875L46.375 0.875" stroke="white" stroke-width="2.8"/>
<path d="M46.4641 6.92751C45.2735 6.62359 44.0603 7.56422 44.0603 8.7944C44.0603 10.1385 43.5705 11.4338 42.6818 12.4411L40.0984 15.3644C39.9311 15.1077 39.6421 14.9378 39.3129 14.9378H34.2697C33.7517 14.9378 33.332 15.3576 33.332 15.8754V27.2227C33.332 27.7405 33.7517 28.1603 34.2697 28.1603H39.3129C39.6918 28.1603 40.0174 27.9352 40.1653 27.6119C41.1863 28.2357 42.3695 28.573 43.5733 28.573H52.4861C53.848 28.573 54.9715 27.3912 54.9077 26.0328C54.8793 25.4312 54.9103 17.3534 54.9103 17.174C54.9103 15.8373 53.8227 14.7496 52.4888 14.7496L47.854 14.7358L48.0459 14.2813C48.9229 12.2044 48.7785 9.79605 47.6601 7.83864C47.3991 7.38132 46.9741 7.0579 46.4641 6.92751C46.9741 7.0579 45.9537 6.79724 46.4641 6.92751C46.9741 7.0579 45.2736 6.62359 46.4641 6.92751ZM38.3753 26.2851H35.2073V16.8131H38.3753V26.2851ZM52.4861 16.6248C52.7888 16.6248 53.0351 16.8711 53.0351 17.1739C53.0351 17.3523 53.0333 17.8365 53.0308 18.4929C53.0169 22.1175 53.0076 25.5502 53.0344 26.1208C53.0441 26.3267 52.944 26.464 52.8835 26.5275C52.7787 26.6372 52.6376 26.6976 52.4861 26.6976H43.5733C42.5109 26.6976 41.4711 26.3294 40.6452 25.661L40.2505 25.3414V18.024L44.0875 13.6822C45.2793 12.3315 45.9356 10.5957 45.9356 8.79428C45.9356 8.74127 46.008 8.72752 46.032 8.76877C46.8624 10.2219 46.9694 12.0097 46.3184 13.5516L45.5784 15.3042C45.4563 15.5934 45.487 15.9243 45.6599 16.1861C45.8331 16.4479 46.1256 16.6057 46.4393 16.6067L52.4861 16.6248Z" fill="white"/>
<path d="M9.99525 32.567C9.4773 32.567 9.05762 32.9868 9.05762 33.5046C9.05762 34.0224 9.4773 34.4422 9.99525 34.4422H12.7592L12.2428 37.5651C12.1583 38.0759 12.5041 38.5586 13.0149 38.6431C13.0668 38.6517 13.1182 38.6558 13.169 38.6558C13.6195 38.6558 14.017 38.3302 14.093 37.871L14.6598 34.4424H16.9218L16.4054 37.5652C16.3209 38.076 16.6667 38.5587 17.1775 38.6432C17.2294 38.6518 17.2808 38.656 17.3316 38.656C17.7821 38.656 18.1796 38.3303 18.2556 37.8711L18.8224 34.4425H22.5846C23.1025 34.4425 23.5222 34.0227 23.5222 33.5048C23.5222 32.987 23.1025 32.5672 22.5846 32.5672H19.1324L19.5106 30.2799H22.5846C23.1025 30.2799 23.5222 29.8601 23.5222 29.3422C23.5222 28.8244 23.1025 28.4046 22.5846 28.4046H19.8207L20.337 25.2818C20.4215 24.771 20.0757 24.2883 19.5649 24.2038C19.0534 24.119 18.5714 24.465 18.4869 24.9759L17.92 28.4045H15.6581L16.1744 25.2817C16.2589 24.7708 15.9131 24.2881 15.4023 24.2036C14.8902 24.1189 14.4089 24.4649 14.3243 24.9757L13.7574 28.4044H9.99525C9.4773 28.4044 9.05762 28.8242 9.05762 29.342C9.05762 29.8598 9.4773 30.2796 9.99525 30.2796H13.4474L13.0692 32.567H9.99525ZM15.3482 30.2796H17.6101L17.2319 32.567H14.97L15.3482 30.2796Z" fill="white"/>
<path d="M32.8659 46.7813C32.1088 46.1579 31.1015 45.912 30.0911 46.1577C28.7963 46.4721 27.4897 47.6825 27.4897 49.6777C27.4897 50.9195 27.9429 51.9974 28.8752 52.973C29.6367 53.77 30.7356 54.5279 32.4381 55.4305C32.5755 55.5034 32.7264 55.5398 32.8773 55.5398C33.0282 55.5398 33.1791 55.5034 33.3165 55.4305C36.2866 53.8559 38.2647 52.2751 38.2647 49.6777C38.2647 47.6716 36.9117 46.4736 35.5708 46.1762C34.5634 45.9526 33.5868 46.1899 32.8659 46.7813ZM36.3893 49.6777C36.3893 51.0786 35.46 52.1147 32.8772 53.5365C30.2943 52.1145 29.3649 51.0785 29.3649 49.6777C29.3649 48.6353 29.9685 48.1172 30.5334 47.9799C30.6376 47.9547 30.7491 47.9404 30.8637 47.9404C31.2887 47.9404 31.7559 48.1367 32.0439 48.6952C32.2081 49.013 32.5399 49.21 32.8958 49.2026C33.2532 49.1955 33.5756 48.9857 33.7268 48.6617C34.0302 48.0113 34.6683 47.8969 35.1644 48.0071C35.7567 48.1382 36.3893 48.6462 36.3893 49.6777Z" fill="white"/>
<path d="M2.875 24.25L2.875 30.375" stroke="white" stroke-width="2.7"/>
</g>
<defs>
<clipPath id="clip0_2037_679">
<rect width="64" height="64" fill="white"/>
</clipPath>
</defs>
</svg>
