<svg width="30" height="30" viewBox="0 0 30 30" fill="none" xmlns="http://www.w3.org/2000/svg">
<circle cx="15" cy="15" r="15" fill="#FC3A3C"/>
<g clip-path="url(#clip0_2037_983)">
<path d="M20.7465 16.4639C20.7993 16.4235 20.8639 16.4016 20.9303 16.4016H21.937C22.8537 16.4016 23.5995 15.6585 23.5995 14.7451V7.74526C23.5995 6.8319 22.8537 6.08881 21.937 6.08881H21.0494C20.6592 6.08881 20.6592 5.48389 21.0494 5.48389H21.8725L20.7465 16.4639ZM20.7465 16.4639L18.9637 17.8275L20.7465 16.4639ZM22.0015 5.42025V5.41937H21.937H21.0494C20.9336 5.41937 20.8424 5.46498 20.781 5.53634C20.7208 5.60636 20.6922 5.69755 20.6922 5.78635C20.6922 5.87515 20.7208 5.96634 20.781 6.03636C20.8424 6.10772 20.9336 6.15333 21.0494 6.15333H21.937C22.8183 6.15333 23.535 6.86776 23.535 7.74526V14.7451C23.535 15.6227 22.8183 16.3371 21.937 16.3371H20.9303C20.8497 16.3371 20.7714 16.3636 20.7073 16.4126L20.7073 16.4126L18.9637 17.7463V16.7041C18.9637 16.5014 18.7995 16.3371 18.5968 16.3371H14.9156C14.638 16.3371 14.3711 16.267 14.1334 16.1335V12.7755C14.1334 12.1294 13.8104 11.5574 13.3176 11.2113V7.74526C13.3176 6.86776 14.0343 6.15333 14.9156 6.15333H19.1539C19.2697 6.15333 19.361 6.10772 19.4223 6.03636C19.4825 5.96634 19.5111 5.87515 19.5111 5.78635C19.5111 5.69755 19.4825 5.60636 19.4223 5.53634C19.361 5.46498 19.2697 5.41937 19.1539 5.41937H14.9156C13.6299 5.41937 12.5836 6.46255 12.5836 7.74526V10.8993C12.465 10.8761 12.3424 10.8637 12.2169 10.8637H6.67996C5.62333 10.8637 4.76349 11.7211 4.76349 12.7755V13.4286C4.76349 13.5444 4.8091 13.6356 4.88046 13.697C4.95048 13.7572 5.04167 13.7857 5.13047 13.7857C5.21926 13.7857 5.31045 13.7572 5.38047 13.697C5.45184 13.6356 5.49745 13.5444 5.49745 13.4286V12.7755C5.49745 12.1263 6.02773 11.5977 6.67996 11.5977H12.2169C12.8692 11.5977 13.3995 12.1263 13.3995 12.7755V16.2871C13.3958 16.3168 13.396 16.3464 13.3995 16.3753V18.2955C13.3995 18.3117 13.399 18.3281 13.3982 18.3445H12.8345C12.1275 18.3445 11.5362 18.8462 11.3985 19.5116C11.3774 19.5221 11.357 19.5348 11.3376 19.5497L11.3376 19.5497L10.0887 20.514V19.8402C10.0887 19.6376 9.92445 19.4733 9.72173 19.4733H6.67996C6.02773 19.4733 5.49745 18.9446 5.49745 18.2955V15.2434C5.49745 15.1276 5.45184 15.0364 5.38047 14.975C5.31045 14.9148 5.21926 14.8862 5.13047 14.8862C5.04167 14.8862 4.95048 14.9148 4.88046 14.975C4.8091 15.0364 4.76349 15.1276 4.76349 15.2434V18.2955C4.76349 19.3499 5.62333 20.2073 6.67996 20.2073H9.3548V21.261C9.3548 21.5571 9.7108 21.7331 9.94606 21.5515L9.94607 21.5515L11.3679 20.4537V23.7251C11.3679 24.5321 12.026 25.1883 12.8346 25.1883H14.6262V25.8296C14.6262 26.1255 14.9821 26.3018 15.2174 26.1201L16.4242 25.1883H16.7638C17.5724 25.1883 18.2305 24.5321 18.2305 23.7251V23.1881C18.2305 23.0723 18.1848 22.9811 18.1135 22.9197C18.0435 22.8595 17.9523 22.8309 17.8635 22.8309C17.7747 22.8309 17.6835 22.8595 17.6135 22.9197C17.5421 22.9811 17.4965 23.0723 17.4965 23.1881V23.7251C17.4965 24.1269 17.168 24.4543 16.7638 24.4543H16.299C16.2178 24.4543 16.1389 24.4812 16.0747 24.5308L15.3601 25.0826V24.8213C15.3601 24.6186 15.1958 24.4543 14.9931 24.4543H12.8345C12.4304 24.4543 12.1019 24.1268 12.1019 23.725V19.8078C12.1019 19.4059 12.4303 19.0785 12.8345 19.0785H16.7638C17.168 19.0785 17.4965 19.406 17.4965 19.8078V21.2926C17.4965 21.4084 17.5421 21.4996 17.6135 21.561C17.6835 21.6212 17.7747 21.6497 17.8635 21.6497C17.9523 21.6497 18.0435 21.6212 18.1135 21.561C18.1848 21.4996 18.2305 21.4084 18.2305 21.2926V19.8078C18.2305 19.0008 17.5724 18.3446 16.7638 18.3446H14.1307C14.1315 18.2119 14.1321 17.9089 14.1326 17.6123L14.1332 17.083L14.1334 16.937C14.3821 17.0254 14.6456 17.0711 14.9156 17.0711H18.2298V18.4891C18.2298 18.7844 18.5843 18.9606 18.8198 18.7806L18.8198 18.7806L21.0546 17.0711H21.937C23.2227 17.0711 24.2689 16.0279 24.2689 14.7452V7.74526C24.2689 6.48408 23.2575 5.45445 22.0015 5.42025Z" fill="white" stroke="white" stroke-width="0.129032"/>
<path d="M17.8629 20.4032V23.3871" stroke="white" stroke-width="0.903226"/>
<path d="M21.0887 5.76611H19.1532" stroke="white" stroke-width="0.903226"/>
<path d="M19.182 7.71859C18.7979 7.62055 18.4066 7.92398 18.4066 8.32081C18.4066 8.75438 18.2486 9.17222 17.9619 9.49715L17.1285 10.4401C17.0746 10.3574 16.9813 10.3025 16.8751 10.3025H15.2483C15.0812 10.3025 14.9458 10.438 14.9458 10.605V14.2654C14.9458 14.4325 15.0812 14.5679 15.2483 14.5679H16.8751C16.9974 14.5679 17.1024 14.4953 17.1501 14.391C17.4795 14.5922 17.8611 14.701 18.2495 14.701H21.1245C21.5639 14.701 21.9263 14.3198 21.9057 13.8816C21.8966 13.6875 21.9066 11.0818 21.9066 11.0239C21.9066 10.5927 21.5557 10.2419 21.1254 10.2419L19.6303 10.2374L19.6922 10.0908C19.9751 9.42081 19.9286 8.64392 19.5678 8.0125C19.4836 7.86498 19.3465 7.76065 19.182 7.71859C19.3465 7.76065 19.0173 7.67656 19.182 7.71859C19.3465 7.76065 18.798 7.62055 19.182 7.71859ZM16.5727 13.963H15.5508V10.9075H16.5727V13.963ZM21.1245 10.8467C21.2222 10.8467 21.3017 10.9262 21.3017 11.0239C21.3017 11.0814 21.3011 11.2376 21.3003 11.4494C21.2958 12.6186 21.2928 13.7259 21.3014 13.91C21.3046 13.9764 21.2723 14.0207 21.2528 14.0412C21.219 14.0766 21.1734 14.096 21.1245 14.096H18.2495C17.9067 14.096 17.5713 13.9773 17.3049 13.7616L17.1776 13.6586V11.2981L18.4153 9.89753C18.7998 9.46182 19.0115 8.90186 19.0115 8.32077C19.0115 8.30367 19.0349 8.29923 19.0426 8.31254C19.3105 8.78128 19.345 9.35802 19.135 9.85539L18.8963 10.4208C18.8569 10.514 18.8668 10.6208 18.9226 10.7052C18.9784 10.7897 19.0728 10.8406 19.174 10.8409L21.1245 10.8467Z" fill="white"/>
<path d="M7.41785 15.9893C7.25077 15.9893 7.11539 16.1247 7.11539 16.2918C7.11539 16.4588 7.25077 16.5942 7.41785 16.5942H8.30943L8.14287 17.6016C8.11561 17.7664 8.22716 17.9221 8.39194 17.9494C8.40868 17.9521 8.42525 17.9535 8.44163 17.9535C8.58697 17.9535 8.71517 17.8484 8.73969 17.7003L8.92254 16.5943H9.65221L9.48565 17.6017C9.45839 17.7664 9.56994 17.9221 9.73472 17.9494C9.75145 17.9522 9.76803 17.9535 9.7844 17.9535C9.92975 17.9535 10.0579 17.8485 10.0825 17.7003L10.2653 16.5943H11.4789C11.646 16.5943 11.7814 16.4589 11.7814 16.2919C11.7814 16.1248 11.646 15.9894 11.4789 15.9894H10.3653L10.4873 15.2516H11.4789C11.646 15.2516 11.7814 15.1161 11.7814 14.9491C11.7814 14.7821 11.646 14.6466 11.4789 14.6466H10.5873L10.7539 13.6393C10.7812 13.4745 10.6696 13.3188 10.5048 13.2915C10.3398 13.2642 10.1843 13.3758 10.1571 13.5406L9.97423 14.6466H9.24457L9.41112 13.6392C9.43838 13.4744 9.32684 13.3187 9.16205 13.2915C8.99687 13.2641 8.8416 13.3758 8.8143 13.5405L8.63145 14.6465H7.41785C7.25077 14.6465 7.11539 14.782 7.11539 14.949C7.11539 15.1161 7.25077 15.2515 7.41785 15.2515H8.53144L8.40945 15.9893H7.41785ZM9.14459 15.2515H9.87425L9.75226 15.9893H9.0226L9.14459 15.2515Z" fill="white"/>
<path d="M14.7954 20.5746C14.5512 20.3735 14.2263 20.2942 13.9003 20.3734C13.4827 20.4749 13.0612 20.8653 13.0612 21.5089C13.0612 21.9095 13.2074 22.2572 13.5081 22.5719C13.7537 22.829 14.1082 23.0735 14.6574 23.3647C14.7017 23.3882 14.7504 23.3999 14.7991 23.3999C14.8478 23.3999 14.8965 23.3882 14.9408 23.3647C15.8989 22.8567 16.537 22.3468 16.537 21.5089C16.537 20.8618 16.1005 20.4754 15.668 20.3794C15.343 20.3073 15.028 20.3838 14.7954 20.5746ZM15.932 21.5089C15.932 21.9608 15.6322 22.2951 14.7991 22.7537C13.9659 22.295 13.6661 21.9608 13.6661 21.5089C13.6661 21.1727 13.8608 21.0055 14.043 20.9613C14.0766 20.9531 14.1126 20.9485 14.1496 20.9485C14.2866 20.9485 14.4374 21.0118 14.5303 21.192C14.5832 21.2945 14.6903 21.3581 14.8051 21.3557C14.9204 21.3534 15.0244 21.2857 15.0731 21.1812C15.171 20.9714 15.3768 20.9345 15.5369 20.97C15.7279 21.0123 15.932 21.1762 15.932 21.5089Z" fill="white"/>
<path d="M5.12097 13.3064L5.12097 15.2822" stroke="white" stroke-width="0.903226"/>
</g>
<defs>
<clipPath id="clip0_2037_983">
<rect width="20.6452" height="20.6452" fill="white" transform="translate(4.19354 5.48389)"/>
</clipPath>
</defs>
</svg>
