<svg width="30" height="30" viewBox="0 0 30 30" fill="none" xmlns="http://www.w3.org/2000/svg">
<circle cx="15" cy="15" r="15" fill="#FC3A3C"/>
<g clip-path="url(#clip0_2037_993)">
<mask id="path-2-outside-1_2037_993" maskUnits="userSpaceOnUse" x="5.49194" y="5.49194" width="18" height="18" fill="black">
<rect fill="white" x="5.49194" y="5.49194" width="18" height="18"/>
<path d="M9.39517 8.48791C9.39517 8.59557 9.36324 8.70082 9.30343 8.79034C9.24361 8.87986 9.1586 8.94963 9.05913 8.99083C8.95966 9.03203 8.85021 9.04281 8.74462 9.02181C8.63902 9.0008 8.54203 8.94896 8.4659 8.87283C8.38977 8.7967 8.33792 8.6997 8.31692 8.59411C8.29591 8.48851 8.30669 8.37906 8.3479 8.2796C8.3891 8.18013 8.45887 8.09511 8.54839 8.0353C8.63791 7.97548 8.74315 7.94356 8.85081 7.94356C8.99519 7.94356 9.13364 8.00091 9.23573 8.10299C9.33782 8.20508 9.39517 8.34354 9.39517 8.48791ZM10.6653 7.94356C10.5577 7.94356 10.4524 7.97548 10.3629 8.0353C10.2734 8.09511 10.2036 8.18013 10.1624 8.2796C10.1212 8.37906 10.1104 8.48851 10.1314 8.59411C10.1524 8.6997 10.2043 8.7967 10.2804 8.87283C10.3565 8.94896 10.4535 9.0008 10.5591 9.02181C10.6647 9.04281 10.7742 9.03203 10.8736 8.99083C10.9731 8.94963 11.0581 8.87986 11.1179 8.79034C11.1778 8.70082 11.2097 8.59557 11.2097 8.48791C11.2097 8.34354 11.1523 8.20508 11.0502 8.10299C10.9482 8.00091 10.8097 7.94356 10.6653 7.94356ZM12.4798 7.94356C12.3722 7.94356 12.2669 7.97548 12.1774 8.0353C12.0879 8.09511 12.0181 8.18013 11.9769 8.2796C11.9357 8.37906 11.9249 8.48851 11.946 8.59411C11.967 8.6997 12.0188 8.7967 12.0949 8.87283C12.1711 8.94896 12.2681 9.0008 12.3736 9.02181C12.4792 9.04281 12.5887 9.03203 12.6882 8.99083C12.7876 8.94963 12.8726 8.87986 12.9325 8.79034C12.9923 8.70082 13.0242 8.59557 13.0242 8.48791C13.0242 8.34354 12.9668 8.20508 12.8648 8.10299C12.7627 8.00091 12.6242 7.94356 12.4798 7.94356ZM23.1855 7.58065V22.0968C23.1852 22.3854 23.0704 22.6622 22.8663 22.8663C22.6622 23.0704 22.3854 23.1852 22.0968 23.1855H7.58065C7.29201 23.1852 7.01527 23.0704 6.81117 22.8663C6.60707 22.6622 6.49226 22.3854 6.49194 22.0968V7.58065C6.49226 7.29201 6.60707 7.01527 6.81117 6.81117C7.01527 6.60707 7.29201 6.49226 7.58065 6.49194H22.0968C22.3854 6.49226 22.6622 6.60707 22.8663 6.81117C23.0704 7.01527 23.1852 7.29201 23.1855 7.58065ZM22.4597 10.4839H7.21775V22.0968C7.21785 22.193 7.25611 22.2852 7.32415 22.3533C7.39218 22.4213 7.48443 22.4596 7.58065 22.4597H22.0968C22.193 22.4596 22.2852 22.4213 22.3533 22.3533C22.4213 22.2852 22.4596 22.193 22.4597 22.0968V10.4839ZM22.4597 7.58065C22.4596 7.48443 22.4213 7.39218 22.3533 7.32415C22.2852 7.25611 22.193 7.21785 22.0968 7.21775H7.58065C7.48443 7.21785 7.39218 7.25611 7.32415 7.32415C7.25611 7.39218 7.21785 7.48443 7.21775 7.58065V9.75807H22.4597V7.58065ZM8.30646 13.2057C8.30693 12.7727 8.47914 12.3576 8.78529 12.0514C9.09145 11.7453 9.50655 11.5731 9.93952 11.5726H19.7379C20.171 11.5726 20.5864 11.7446 20.8927 12.0509C21.1989 12.3572 21.371 12.7725 21.371 13.2057C21.371 13.6388 21.1989 14.0541 20.8927 14.3604C20.5864 14.6667 20.171 14.8387 19.7379 14.8387H9.93952C9.50655 14.8382 9.09145 14.666 8.78529 14.3599C8.47914 14.0537 8.30693 13.6386 8.30646 13.2057ZM9.03227 13.2057C9.03252 13.4462 9.12818 13.6768 9.29827 13.8469C9.46836 14.017 9.69898 14.1127 9.93952 14.1129H19.7379C19.9785 14.1129 20.2093 14.0173 20.3794 13.8472C20.5496 13.677 20.6452 13.4463 20.6452 13.2057C20.6452 12.965 20.5496 12.7343 20.3794 12.5641C20.2093 12.394 19.9785 12.2984 19.7379 12.2984H9.93952C9.69898 12.2986 9.46836 12.3943 9.29827 12.5644C9.12818 12.7345 9.03252 12.9651 9.03227 13.2057ZM8.30646 20.6452V17.0161C8.30668 16.8237 8.38322 16.6392 8.51929 16.5032C8.65535 16.3671 8.83984 16.2906 9.03227 16.2903H14.4758C14.6682 16.2906 14.8527 16.3671 14.9888 16.5032C15.1249 16.6392 15.2014 16.8237 15.2016 17.0161V20.6452C15.2014 20.8376 15.1249 21.0221 14.9888 21.1581C14.8527 21.2942 14.6682 21.3708 14.4758 21.371H9.03227C8.83984 21.3708 8.65535 21.2942 8.51929 21.1581C8.38322 21.0221 8.30668 20.8376 8.30646 20.6452ZM9.03227 20.6452H14.4762L14.4758 17.0161H9.03227V20.6452ZM16.2903 17.379H18.8307C18.9269 17.379 19.0192 17.3408 19.0873 17.2727C19.1553 17.2047 19.1936 17.1124 19.1936 17.0161C19.1936 16.9199 19.1553 16.8276 19.0873 16.7595C19.0192 16.6915 18.9269 16.6532 18.8307 16.6532H16.2903C16.1941 16.6532 16.1018 16.6915 16.0337 16.7595C15.9657 16.8276 15.9274 16.9199 15.9274 17.0161C15.9274 17.1124 15.9657 17.2047 16.0337 17.2727C16.1018 17.3408 16.1941 17.379 16.2903 17.379ZM21.0081 18.4677H16.2903C16.1941 18.4677 16.1018 18.506 16.0337 18.574C15.9657 18.6421 15.9274 18.7344 15.9274 18.8307C15.9274 18.9269 15.9657 19.0192 16.0337 19.0873C16.1018 19.1553 16.1941 19.1936 16.2903 19.1936H21.0081C21.1043 19.1936 21.1966 19.1553 21.2647 19.0873C21.3327 19.0192 21.371 18.9269 21.371 18.8307C21.371 18.7344 21.3327 18.6421 21.2647 18.574C21.1966 18.506 21.1043 18.4677 21.0081 18.4677ZM20.2823 20.2823H16.2903C16.1941 20.2823 16.1018 20.3205 16.0337 20.3886C15.9657 20.4566 15.9274 20.5489 15.9274 20.6452C15.9274 20.7414 15.9657 20.8337 16.0337 20.9018C16.1018 20.9698 16.1941 21.0081 16.2903 21.0081H20.2823C20.3785 21.0081 20.4708 20.9698 20.5389 20.9018C20.6069 20.8337 20.6452 20.7414 20.6452 20.6452C20.6452 20.5489 20.6069 20.4566 20.5389 20.3886C20.4708 20.3205 20.3785 20.2823 20.2823 20.2823Z"/>
</mask>
<path d="M9.39517 8.48791C9.39517 8.59557 9.36324 8.70082 9.30343 8.79034C9.24361 8.87986 9.1586 8.94963 9.05913 8.99083C8.95966 9.03203 8.85021 9.04281 8.74462 9.02181C8.63902 9.0008 8.54203 8.94896 8.4659 8.87283C8.38977 8.7967 8.33792 8.6997 8.31692 8.59411C8.29591 8.48851 8.30669 8.37906 8.3479 8.2796C8.3891 8.18013 8.45887 8.09511 8.54839 8.0353C8.63791 7.97548 8.74315 7.94356 8.85081 7.94356C8.99519 7.94356 9.13364 8.00091 9.23573 8.10299C9.33782 8.20508 9.39517 8.34354 9.39517 8.48791ZM10.6653 7.94356C10.5577 7.94356 10.4524 7.97548 10.3629 8.0353C10.2734 8.09511 10.2036 8.18013 10.1624 8.2796C10.1212 8.37906 10.1104 8.48851 10.1314 8.59411C10.1524 8.6997 10.2043 8.7967 10.2804 8.87283C10.3565 8.94896 10.4535 9.0008 10.5591 9.02181C10.6647 9.04281 10.7742 9.03203 10.8736 8.99083C10.9731 8.94963 11.0581 8.87986 11.1179 8.79034C11.1778 8.70082 11.2097 8.59557 11.2097 8.48791C11.2097 8.34354 11.1523 8.20508 11.0502 8.10299C10.9482 8.00091 10.8097 7.94356 10.6653 7.94356ZM12.4798 7.94356C12.3722 7.94356 12.2669 7.97548 12.1774 8.0353C12.0879 8.09511 12.0181 8.18013 11.9769 8.2796C11.9357 8.37906 11.9249 8.48851 11.946 8.59411C11.967 8.6997 12.0188 8.7967 12.0949 8.87283C12.1711 8.94896 12.2681 9.0008 12.3736 9.02181C12.4792 9.04281 12.5887 9.03203 12.6882 8.99083C12.7876 8.94963 12.8726 8.87986 12.9325 8.79034C12.9923 8.70082 13.0242 8.59557 13.0242 8.48791C13.0242 8.34354 12.9668 8.20508 12.8648 8.10299C12.7627 8.00091 12.6242 7.94356 12.4798 7.94356ZM23.1855 7.58065V22.0968C23.1852 22.3854 23.0704 22.6622 22.8663 22.8663C22.6622 23.0704 22.3854 23.1852 22.0968 23.1855H7.58065C7.29201 23.1852 7.01527 23.0704 6.81117 22.8663C6.60707 22.6622 6.49226 22.3854 6.49194 22.0968V7.58065C6.49226 7.29201 6.60707 7.01527 6.81117 6.81117C7.01527 6.60707 7.29201 6.49226 7.58065 6.49194H22.0968C22.3854 6.49226 22.6622 6.60707 22.8663 6.81117C23.0704 7.01527 23.1852 7.29201 23.1855 7.58065ZM22.4597 10.4839H7.21775V22.0968C7.21785 22.193 7.25611 22.2852 7.32415 22.3533C7.39218 22.4213 7.48443 22.4596 7.58065 22.4597H22.0968C22.193 22.4596 22.2852 22.4213 22.3533 22.3533C22.4213 22.2852 22.4596 22.193 22.4597 22.0968V10.4839ZM22.4597 7.58065C22.4596 7.48443 22.4213 7.39218 22.3533 7.32415C22.2852 7.25611 22.193 7.21785 22.0968 7.21775H7.58065C7.48443 7.21785 7.39218 7.25611 7.32415 7.32415C7.25611 7.39218 7.21785 7.48443 7.21775 7.58065V9.75807H22.4597V7.58065ZM8.30646 13.2057C8.30693 12.7727 8.47914 12.3576 8.78529 12.0514C9.09145 11.7453 9.50655 11.5731 9.93952 11.5726H19.7379C20.171 11.5726 20.5864 11.7446 20.8927 12.0509C21.1989 12.3572 21.371 12.7725 21.371 13.2057C21.371 13.6388 21.1989 14.0541 20.8927 14.3604C20.5864 14.6667 20.171 14.8387 19.7379 14.8387H9.93952C9.50655 14.8382 9.09145 14.666 8.78529 14.3599C8.47914 14.0537 8.30693 13.6386 8.30646 13.2057ZM9.03227 13.2057C9.03252 13.4462 9.12818 13.6768 9.29827 13.8469C9.46836 14.017 9.69898 14.1127 9.93952 14.1129H19.7379C19.9785 14.1129 20.2093 14.0173 20.3794 13.8472C20.5496 13.677 20.6452 13.4463 20.6452 13.2057C20.6452 12.965 20.5496 12.7343 20.3794 12.5641C20.2093 12.394 19.9785 12.2984 19.7379 12.2984H9.93952C9.69898 12.2986 9.46836 12.3943 9.29827 12.5644C9.12818 12.7345 9.03252 12.9651 9.03227 13.2057ZM8.30646 20.6452V17.0161C8.30668 16.8237 8.38322 16.6392 8.51929 16.5032C8.65535 16.3671 8.83984 16.2906 9.03227 16.2903H14.4758C14.6682 16.2906 14.8527 16.3671 14.9888 16.5032C15.1249 16.6392 15.2014 16.8237 15.2016 17.0161V20.6452C15.2014 20.8376 15.1249 21.0221 14.9888 21.1581C14.8527 21.2942 14.6682 21.3708 14.4758 21.371H9.03227C8.83984 21.3708 8.65535 21.2942 8.51929 21.1581C8.38322 21.0221 8.30668 20.8376 8.30646 20.6452ZM9.03227 20.6452H14.4762L14.4758 17.0161H9.03227V20.6452ZM16.2903 17.379H18.8307C18.9269 17.379 19.0192 17.3408 19.0873 17.2727C19.1553 17.2047 19.1936 17.1124 19.1936 17.0161C19.1936 16.9199 19.1553 16.8276 19.0873 16.7595C19.0192 16.6915 18.9269 16.6532 18.8307 16.6532H16.2903C16.1941 16.6532 16.1018 16.6915 16.0337 16.7595C15.9657 16.8276 15.9274 16.9199 15.9274 17.0161C15.9274 17.1124 15.9657 17.2047 16.0337 17.2727C16.1018 17.3408 16.1941 17.379 16.2903 17.379ZM21.0081 18.4677H16.2903C16.1941 18.4677 16.1018 18.506 16.0337 18.574C15.9657 18.6421 15.9274 18.7344 15.9274 18.8307C15.9274 18.9269 15.9657 19.0192 16.0337 19.0873C16.1018 19.1553 16.1941 19.1936 16.2903 19.1936H21.0081C21.1043 19.1936 21.1966 19.1553 21.2647 19.0873C21.3327 19.0192 21.371 18.9269 21.371 18.8307C21.371 18.7344 21.3327 18.6421 21.2647 18.574C21.1966 18.506 21.1043 18.4677 21.0081 18.4677ZM20.2823 20.2823H16.2903C16.1941 20.2823 16.1018 20.3205 16.0337 20.3886C15.9657 20.4566 15.9274 20.5489 15.9274 20.6452C15.9274 20.7414 15.9657 20.8337 16.0337 20.9018C16.1018 20.9698 16.1941 21.0081 16.2903 21.0081H20.2823C20.3785 21.0081 20.4708 20.9698 20.5389 20.9018C20.6069 20.8337 20.6452 20.7414 20.6452 20.6452C20.6452 20.5489 20.6069 20.4566 20.5389 20.3886C20.4708 20.3205 20.3785 20.2823 20.2823 20.2823Z" fill="white"/>
<path d="M9.39517 8.48791C9.39517 8.59557 9.36324 8.70082 9.30343 8.79034C9.24361 8.87986 9.1586 8.94963 9.05913 8.99083C8.95966 9.03203 8.85021 9.04281 8.74462 9.02181C8.63902 9.0008 8.54203 8.94896 8.4659 8.87283C8.38977 8.7967 8.33792 8.6997 8.31692 8.59411C8.29591 8.48851 8.30669 8.37906 8.3479 8.2796C8.3891 8.18013 8.45887 8.09511 8.54839 8.0353C8.63791 7.97548 8.74315 7.94356 8.85081 7.94356C8.99519 7.94356 9.13364 8.00091 9.23573 8.10299C9.33782 8.20508 9.39517 8.34354 9.39517 8.48791ZM10.6653 7.94356C10.5577 7.94356 10.4524 7.97548 10.3629 8.0353C10.2734 8.09511 10.2036 8.18013 10.1624 8.2796C10.1212 8.37906 10.1104 8.48851 10.1314 8.59411C10.1524 8.6997 10.2043 8.7967 10.2804 8.87283C10.3565 8.94896 10.4535 9.0008 10.5591 9.02181C10.6647 9.04281 10.7742 9.03203 10.8736 8.99083C10.9731 8.94963 11.0581 8.87986 11.1179 8.79034C11.1778 8.70082 11.2097 8.59557 11.2097 8.48791C11.2097 8.34354 11.1523 8.20508 11.0502 8.10299C10.9482 8.00091 10.8097 7.94356 10.6653 7.94356ZM12.4798 7.94356C12.3722 7.94356 12.2669 7.97548 12.1774 8.0353C12.0879 8.09511 12.0181 8.18013 11.9769 8.2796C11.9357 8.37906 11.9249 8.48851 11.946 8.59411C11.967 8.6997 12.0188 8.7967 12.0949 8.87283C12.1711 8.94896 12.2681 9.0008 12.3736 9.02181C12.4792 9.04281 12.5887 9.03203 12.6882 8.99083C12.7876 8.94963 12.8726 8.87986 12.9325 8.79034C12.9923 8.70082 13.0242 8.59557 13.0242 8.48791C13.0242 8.34354 12.9668 8.20508 12.8648 8.10299C12.7627 8.00091 12.6242 7.94356 12.4798 7.94356ZM23.1855 7.58065V22.0968C23.1852 22.3854 23.0704 22.6622 22.8663 22.8663C22.6622 23.0704 22.3854 23.1852 22.0968 23.1855H7.58065C7.29201 23.1852 7.01527 23.0704 6.81117 22.8663C6.60707 22.6622 6.49226 22.3854 6.49194 22.0968V7.58065C6.49226 7.29201 6.60707 7.01527 6.81117 6.81117C7.01527 6.60707 7.29201 6.49226 7.58065 6.49194H22.0968C22.3854 6.49226 22.6622 6.60707 22.8663 6.81117C23.0704 7.01527 23.1852 7.29201 23.1855 7.58065ZM22.4597 10.4839H7.21775V22.0968C7.21785 22.193 7.25611 22.2852 7.32415 22.3533C7.39218 22.4213 7.48443 22.4596 7.58065 22.4597H22.0968C22.193 22.4596 22.2852 22.4213 22.3533 22.3533C22.4213 22.2852 22.4596 22.193 22.4597 22.0968V10.4839ZM22.4597 7.58065C22.4596 7.48443 22.4213 7.39218 22.3533 7.32415C22.2852 7.25611 22.193 7.21785 22.0968 7.21775H7.58065C7.48443 7.21785 7.39218 7.25611 7.32415 7.32415C7.25611 7.39218 7.21785 7.48443 7.21775 7.58065V9.75807H22.4597V7.58065ZM8.30646 13.2057C8.30693 12.7727 8.47914 12.3576 8.78529 12.0514C9.09145 11.7453 9.50655 11.5731 9.93952 11.5726H19.7379C20.171 11.5726 20.5864 11.7446 20.8927 12.0509C21.1989 12.3572 21.371 12.7725 21.371 13.2057C21.371 13.6388 21.1989 14.0541 20.8927 14.3604C20.5864 14.6667 20.171 14.8387 19.7379 14.8387H9.93952C9.50655 14.8382 9.09145 14.666 8.78529 14.3599C8.47914 14.0537 8.30693 13.6386 8.30646 13.2057ZM9.03227 13.2057C9.03252 13.4462 9.12818 13.6768 9.29827 13.8469C9.46836 14.017 9.69898 14.1127 9.93952 14.1129H19.7379C19.9785 14.1129 20.2093 14.0173 20.3794 13.8472C20.5496 13.677 20.6452 13.4463 20.6452 13.2057C20.6452 12.965 20.5496 12.7343 20.3794 12.5641C20.2093 12.394 19.9785 12.2984 19.7379 12.2984H9.93952C9.69898 12.2986 9.46836 12.3943 9.29827 12.5644C9.12818 12.7345 9.03252 12.9651 9.03227 13.2057ZM8.30646 20.6452V17.0161C8.30668 16.8237 8.38322 16.6392 8.51929 16.5032C8.65535 16.3671 8.83984 16.2906 9.03227 16.2903H14.4758C14.6682 16.2906 14.8527 16.3671 14.9888 16.5032C15.1249 16.6392 15.2014 16.8237 15.2016 17.0161V20.6452C15.2014 20.8376 15.1249 21.0221 14.9888 21.1581C14.8527 21.2942 14.6682 21.3708 14.4758 21.371H9.03227C8.83984 21.3708 8.65535 21.2942 8.51929 21.1581C8.38322 21.0221 8.30668 20.8376 8.30646 20.6452ZM9.03227 20.6452H14.4762L14.4758 17.0161H9.03227V20.6452ZM16.2903 17.379H18.8307C18.9269 17.379 19.0192 17.3408 19.0873 17.2727C19.1553 17.2047 19.1936 17.1124 19.1936 17.0161C19.1936 16.9199 19.1553 16.8276 19.0873 16.7595C19.0192 16.6915 18.9269 16.6532 18.8307 16.6532H16.2903C16.1941 16.6532 16.1018 16.6915 16.0337 16.7595C15.9657 16.8276 15.9274 16.9199 15.9274 17.0161C15.9274 17.1124 15.9657 17.2047 16.0337 17.2727C16.1018 17.3408 16.1941 17.379 16.2903 17.379ZM21.0081 18.4677H16.2903C16.1941 18.4677 16.1018 18.506 16.0337 18.574C15.9657 18.6421 15.9274 18.7344 15.9274 18.8307C15.9274 18.9269 15.9657 19.0192 16.0337 19.0873C16.1018 19.1553 16.1941 19.1936 16.2903 19.1936H21.0081C21.1043 19.1936 21.1966 19.1553 21.2647 19.0873C21.3327 19.0192 21.371 18.9269 21.371 18.8307C21.371 18.7344 21.3327 18.6421 21.2647 18.574C21.1966 18.506 21.1043 18.4677 21.0081 18.4677ZM20.2823 20.2823H16.2903C16.1941 20.2823 16.1018 20.3205 16.0337 20.3886C15.9657 20.4566 15.9274 20.5489 15.9274 20.6452C15.9274 20.7414 15.9657 20.8337 16.0337 20.9018C16.1018 20.9698 16.1941 21.0081 16.2903 21.0081H20.2823C20.3785 21.0081 20.4708 20.9698 20.5389 20.9018C20.6069 20.8337 20.6452 20.7414 20.6452 20.6452C20.6452 20.5489 20.6069 20.4566 20.5389 20.3886C20.4708 20.3205 20.3785 20.2823 20.2823 20.2823Z" stroke="white" stroke-width="0.258065" mask="url(#path-2-outside-1_2037_993)"/>
</g>
<defs>
<clipPath id="clip0_2037_993">
<rect width="17.4194" height="17.4194" fill="white" transform="translate(6.12903 6.12903)"/>
</clipPath>
</defs>
</svg>
