<svg width="91" height="90" viewBox="0 0 91 90" fill="none" xmlns="http://www.w3.org/2000/svg">
<path d="M66.7797 70.8H52.3797V58C52.3797 53.5818 48.7979 50 44.3797 50H34.7797V41.216L56.5077 25.696C56.8597 25.4468 57.0963 25.066 57.1637 24.64C57.2275 24.2154 57.1179 23.783 56.8597 23.44L52.0597 17.04C51.5425 16.3524 50.5741 16.1968 49.8677 16.688L33.4677 28.032C36.3677 22.5684 34.2893 15.7882 28.8257 12.8884C23.3621 9.98836 16.5819 12.0668 13.6821 17.5304C11.3503 21.9234 12.1949 27.3278 15.7557 30.8H13.9797C13.5283 30.801 13.0981 30.9928 12.7957 31.328L2.45968 42.816C-0.378124 45.9866 -0.237524 50.8236 2.77968 53.824L11.2437 62.336C11.5763 62.669 12.0387 62.8388 12.5077 62.8C12.9827 62.7634 13.4167 62.5172 13.6917 62.128L15.5797 59.456V88.4C15.5797 89.2836 16.2961 90 17.1797 90H26.7797C27.6633 90 28.3797 89.2836 28.3797 88.4V62.8H39.5797V70.8H34.7797C33.8961 70.8 33.1797 71.5164 33.1797 72.4V88.4C33.1797 89.2836 33.8961 90 34.7797 90H66.7797C67.6633 90 68.3797 89.2836 68.3797 88.4V72.4C68.3797 71.5164 67.6635 70.8 66.7797 70.8ZM15.5797 22.8C15.5797 18.3818 19.1615 14.8 23.5797 14.8C27.9979 14.8 31.5797 18.3818 31.5797 22.8C31.5797 27.2182 27.9979 30.8 23.5797 30.8C19.1615 30.8 15.5797 27.2182 15.5797 22.8ZM27.3877 34L25.1797 38.416L22.9717 34H27.3877ZM15.5797 51.136L13.0197 48.4L15.5797 45.84V51.136ZM26.7797 59.6C25.8961 59.6 25.1797 60.3164 25.1797 61.2V86.7999H18.7797V42C18.7765 41.354 18.3851 40.7734 17.7877 40.528C17.1919 40.2774 16.5039 40.41 16.0437 40.864L9.64368 47.264C9.03388 47.8862 9.03388 48.8818 9.64368 49.504L14.8757 54.96L12.1717 58.736L5.00368 51.6C3.17588 49.7912 3.09828 46.8632 4.82768 44.96L14.6997 34H19.3877L23.7557 42.72C24.1587 43.5064 25.1227 43.8174 25.9093 43.4144C26.2079 43.2614 26.4509 43.0186 26.6037 42.72L31.2277 33.488L50.4277 20.192L53.3237 24.048L32.2517 39.104C31.8321 39.4026 31.5821 39.885 31.5797 40.4V51.6C31.5797 52.4836 32.2961 53.2 33.1797 53.2H44.3797C47.0307 53.2 49.1797 55.349 49.1797 58V70.8H42.7797V61.2C42.7797 60.3164 42.0633 59.6 41.1797 59.6H26.7797ZM65.1797 86.7999H36.3797V74H65.1797V86.7999Z" fill="#FC3A3C"/>
<path d="M88.7696 4.69L85.9635 4.03696C85.9464 4.03292 85.9315 4.02195 85.9224 4.00617L84.4551 1.44676C83.9359 0.540828 83.0181 0 82.0002 0C80.9823 0 80.0645 0.540826 79.5455 1.44657L78.0777 4.00655C78.0689 4.02195 78.0541 4.03312 78.0369 4.03696L75.2309 4.69C74.2377 4.92115 73.457 5.65694 73.1424 6.65873C72.8279 7.66051 73.0413 8.73062 73.7135 9.52146L75.6126 11.756C75.6243 11.7696 75.6301 11.7881 75.6284 11.806L75.3613 14.7692C75.2668 15.8178 75.7021 16.8134 76.5256 17.4324C77.3492 18.0515 78.3989 18.172 79.3335 17.7551L81.9748 16.5767C81.9748 16.5767 81.9749 16.5767 81.9751 16.5765C81.9913 16.5694 82.0095 16.5695 82.0254 16.5767L84.6666 17.7551C85.0346 17.9193 85.42 17.9999 85.8024 17.9999C86.3923 17.9999 86.9749 17.8077 87.4744 17.4324C88.2979 16.8134 88.7331 15.8178 88.6387 14.769L88.3715 11.806C88.3699 11.7877 88.3754 11.7695 88.387 11.756L90.2864 9.52127C90.9587 8.73043 91.1722 7.66032 90.8575 6.65854C90.5435 5.65714 89.7626 4.92115 88.7696 4.69ZM88.1915 7.61509L86.2917 9.85019C85.7757 10.4578 85.521 11.2685 85.5935 12.0741L85.8607 15.0371C85.8623 15.0556 85.8642 15.0747 85.8344 15.097C85.8054 15.1191 85.7879 15.1118 85.7716 15.1043L83.1307 13.926C82.7713 13.7657 82.3859 13.6854 82.0002 13.6854C81.6148 13.6854 81.2292 13.7657 80.8702 13.9258L78.2289 15.1043C78.2125 15.1118 78.1951 15.1193 78.166 15.097C78.1365 15.0749 78.1383 15.0558 78.1398 15.0373L78.4069 12.0741C78.4795 11.2685 78.2248 10.458 77.7084 9.85L75.809 7.61528C75.7973 7.60142 75.785 7.58699 75.7964 7.55119C75.8077 7.5152 75.8256 7.51116 75.8432 7.50712L78.6493 6.85408C79.4127 6.67644 80.0794 6.17525 80.4779 5.4793L81.9455 2.9197C81.9547 2.90372 81.9642 2.88736 82.0004 2.88736C82.0367 2.88736 82.0462 2.90372 82.0555 2.9197L83.5226 5.47891C83.9216 6.17525 84.5883 6.67644 85.3515 6.85408L88.1576 7.50712C88.1753 7.51116 88.1931 7.51539 88.2045 7.55119C88.2155 7.5868 88.2034 7.60104 88.1915 7.61509Z" fill="#FC3A3C"/>
<path d="M54.193 34.3064L49.832 37.5042L51.7242 40.0846L56.0852 36.8869L54.193 34.3064Z" fill="#FC3A3C"/>
<path d="M73.8375 19.9074L57.8425 31.6447L59.7356 34.2246L75.7307 22.4872L73.8375 19.9074Z" fill="#FC3A3C"/>
<path d="M67.4834 11.8653L57.8855 18.2643L59.6605 20.9267L69.2585 14.5277L67.4834 11.8653Z" fill="#FC3A3C"/>
</svg>
