<svg width="92" height="92" viewBox="0 0 92 92" fill="none" xmlns="http://www.w3.org/2000/svg">
<g clip-path="url(#clip0_2202_1044)">
<path d="M64.7216 38.8087C64.4299 38.5028 64.0249 38.3307 63.6023 38.3334H54.1263C53.2808 38.2855 52.5565 38.932 52.5086 39.7776C52.4971 39.9796 52.5259 40.1818 52.5929 40.3727C52.7476 40.6951 52.8412 41.0436 52.8689 41.4001C52.8689 43.0938 51.496 44.4667 49.8023 44.4667C48.1085 44.4667 46.7356 43.0938 46.7356 41.4001C46.7393 41.0484 46.8067 40.7003 46.9349 40.3727C47.2157 39.5739 46.7958 38.6985 45.9967 38.4177C45.8058 38.3507 45.6036 38.3219 45.4016 38.3334H36.0023V29.4707C36.0004 28.624 35.3121 27.9389 34.4653 27.9411C34.087 27.942 33.7224 28.0827 33.4416 28.3361C32.1883 29.4752 30.2488 29.3826 29.1096 28.1293C27.9703 26.876 28.0631 24.9365 29.3164 23.7972C29.8868 23.2788 30.6314 22.9941 31.4021 23.0001C32.1569 23.0058 32.8829 23.2897 33.4414 23.7974C34.0701 24.3647 35.0397 24.3151 35.6071 23.6864C35.8604 23.4056 36.0011 23.0411 36.0021 22.6627V9.20008C36.0021 8.3533 35.3155 7.66675 34.4688 7.66675C17.5321 7.70125 3.83007 21.4589 3.86457 38.3957C3.88795 49.9294 10.3809 60.4746 20.6689 65.6881V76.9427C18.8355 77.591 17.6078 79.3221 17.6023 81.2667C17.609 82.4014 18.0351 83.4937 18.7983 84.3334C18.0351 85.1731 17.609 86.2654 17.6023 87.4001C17.6023 89.9406 19.6617 92.0001 22.2023 92.0001H46.7356C49.2761 92.0001 51.3356 89.9406 51.3356 87.4001C51.3289 86.2654 50.9028 85.1731 50.1396 84.3334C50.9028 83.4937 51.3289 82.4014 51.3356 81.2667C51.3301 79.3221 50.1024 77.591 48.2689 76.9427V65.6881C58.1198 60.7732 64.5639 50.9374 65.1356 39.9434C65.1586 39.5244 65.0089 39.1145 64.7216 38.8087ZM46.7354 88.9334H22.2021C21.3553 88.9334 20.6688 88.2469 20.6688 87.4001C20.6688 86.5533 21.3553 85.8667 22.2021 85.8667H46.7354C47.5822 85.8667 48.2687 86.5533 48.2687 87.4001C48.2687 88.2469 47.5824 88.9334 46.7354 88.9334ZM46.7354 82.8001H22.2021C21.3553 82.8001 20.6688 82.1135 20.6688 81.2667C20.6688 80.42 21.3553 79.7334 22.2021 79.7334H46.7354C47.5822 79.7334 48.2687 80.42 48.2687 81.2667C48.2687 82.1135 47.5824 82.8001 46.7354 82.8001ZM29.8688 53.6667H28.3354C27.4886 53.6667 26.8021 52.9802 26.8021 52.1334C26.8021 51.2866 27.4886 50.6001 28.3354 50.6001C29.1822 50.6001 29.8688 51.2866 29.8688 52.1334V53.6667ZM32.9354 76.6667V56.7334H36.0021V76.6667H32.9354ZM46.0916 63.3421C45.548 63.5935 45.2007 64.1385 45.2023 64.7374V76.6667H39.0689V56.7334H40.6023C43.1428 56.7334 45.2023 54.674 45.2023 52.1334C45.2023 49.5929 43.1428 47.5334 40.6023 47.5334C38.0617 47.5334 36.0023 49.5929 36.0023 52.1334V53.6667H32.9356V52.1334C32.9356 49.5929 30.8762 47.5334 28.3356 47.5334C25.7951 47.5334 23.7356 49.5929 23.7356 52.1334C23.7356 54.674 25.7951 56.7334 28.3356 56.7334H29.8689V76.6667H23.7356V64.7374C23.7371 64.1385 23.3898 63.5935 22.8463 63.3421C9.01178 56.9421 2.98501 40.5389 9.38495 26.7044C13.6744 17.4325 22.7345 11.2883 32.9354 10.7334V20.0867C32.4336 19.9664 31.9179 19.9148 31.4021 19.9334C28.0148 19.9334 25.2688 22.6794 25.2688 26.0667C25.2688 29.4541 28.0148 32.2001 31.4021 32.2001C31.92 32.2037 32.4357 32.1366 32.9354 32.0007V39.8667C32.9354 40.7135 33.622 41.4001 34.4688 41.4001H43.6688C43.6688 44.7874 46.4148 47.5334 49.8021 47.5334C53.1894 47.5334 55.9354 44.7874 55.9354 41.4001H61.8848C60.8256 50.975 54.8349 59.2981 46.0916 63.3421ZM39.0688 53.6667V52.1334C39.0688 51.2866 39.7553 50.6001 40.6021 50.6001C41.4489 50.6001 42.1354 51.2866 42.1354 52.1334C42.1354 52.9802 41.4489 53.6667 40.6021 53.6667H39.0688Z" fill="#FC3A3C"/>
<path d="M57.4688 0C56.622 0 55.9355 0.68655 55.9355 1.53333V12.466C55.4358 12.3301 54.92 12.263 54.4021 12.2667C51.0148 12.2667 48.2688 15.0127 48.2688 18.4C48.2688 21.7873 51.0148 24.5333 54.4021 24.5333C54.92 24.537 55.4358 24.4699 55.9355 24.334V32.2C55.9355 33.0468 56.622 33.7333 57.4688 33.7333H66.6688C66.6688 37.1207 69.4148 39.8667 72.8021 39.8667C76.1895 39.8667 78.9355 37.1207 78.9355 33.7333H86.6021C87.4177 33.662 88.0642 33.0155 88.1355 32.2C88.1355 31.7093 88.1355 31.2187 88.1355 30.6667C88.1355 13.7298 74.4056 0 57.4688 0ZM77.1721 30.6667C76.3267 30.6187 75.6024 31.2652 75.5545 32.1109C75.543 32.3129 75.5717 32.5151 75.6388 32.706C75.7776 33.0314 75.8556 33.3797 75.8688 33.7333C75.8688 35.4271 74.4959 36.8 72.8021 36.8C71.1084 36.8 69.7355 35.4271 69.7355 33.7333C69.7391 33.3816 69.8066 33.0336 69.9348 32.706C70.2156 31.9071 69.7956 31.0318 68.9966 30.751C68.8057 30.6839 68.6035 30.6552 68.4015 30.6667H59.0021V21.804C59.0002 20.9572 58.3119 20.2722 57.4652 20.2743C57.0868 20.2753 56.7223 20.4159 56.4415 20.6693C55.1713 21.7896 53.2333 21.6679 52.1131 20.3977C50.9928 19.1276 51.1145 17.1896 52.3846 16.0693C53.5437 15.0472 55.2825 15.0472 56.4415 16.0693C57.0696 16.6374 58.0392 16.5889 58.6073 15.9608C58.8476 15.6952 58.9874 15.3538 59.0021 14.996V3.06667C73.6434 3.88125 85.0914 16.0028 85.0688 30.6667H77.1721Z" fill="#FC3A3C"/>
</g>
<defs>
<clipPath id="clip0_2202_1044">
<rect width="92" height="92" fill="white"/>
</clipPath>
</defs>
</svg>
