<svg width="73" height="73" viewBox="0 0 73 73" fill="none" xmlns="http://www.w3.org/2000/svg">
<mask id="path-1-outside-1_2202_1009" maskUnits="userSpaceOnUse" x="2.41901" y="2.41907" width="68" height="68" fill="black">
<rect fill="white" x="2.41901" y="2.41907" width="68" height="68"/>
<path d="M69.2587 3.76416C68.9964 3.49041 68.62 3.37635 68.2436 3.43338L41.5301 8.0301C40.629 8.09853 39.8876 8.66885 39.5797 9.51291C39.2717 10.357 39.477 11.2695 40.1044 11.9082L44.0053 15.7978L39.0664 20.7253C37.3326 12.4899 30.0897 6.49025 21.4437 6.49025C11.5089 6.49025 3.42186 14.5545 3.42186 24.4665C3.42186 33.0668 9.43295 40.3098 17.6911 42.0435L11.6001 48.1231C11.1553 48.5679 11.1553 49.2865 11.6001 49.7313C11.8283 49.9481 12.1134 50.0621 12.41 50.0621C12.7065 50.0621 12.9917 49.9481 13.2198 49.7313L45.625 17.406C46.5147 16.5163 46.5147 15.0792 45.625 14.1895L41.8267 10.2885L66.9889 5.96557L61.9131 30.2609C61.9017 30.3065 61.9017 30.3521 61.8903 30.3978L57.9893 26.5082C57.5559 26.0748 56.9856 25.8467 56.3811 25.8353C55.7765 25.8353 55.1948 26.0748 54.7728 26.4968L40.6633 40.5607C40.2184 41.0056 40.2184 41.7242 40.6633 42.169C41.1081 42.6138 41.8267 42.6138 42.2715 42.169L56.3583 28.1165L60.2592 32.006C60.8979 32.6448 61.8218 32.8387 62.6545 32.5307C63.4758 32.2342 64.0347 31.5156 64.1373 30.6601L69.5553 4.79072C69.6351 4.42572 69.5211 4.03791 69.2587 3.76416ZM5.70311 24.4665C5.70311 15.8092 12.7636 8.7715 21.4437 8.7715C29.5079 8.7715 36.192 14.7484 37.0817 22.7099L19.6758 40.0588C11.7028 39.1692 5.70311 32.4965 5.70311 24.4665ZM39.3629 45.0662L26.2229 58.172C25.9948 58.3887 25.7097 58.5028 25.4131 58.5028C25.1165 58.5028 24.8314 58.3887 24.6033 58.172C24.1584 57.7271 24.1584 57.0085 24.6033 56.5637L37.7547 43.4579C38.1995 43.0131 38.9181 43.0131 39.3629 43.4579C39.8078 43.9028 39.8078 44.6213 39.3629 45.0662ZM21.17 53.3015L5.37233 69.0649C5.1442 69.2817 4.85905 69.3957 4.56248 69.3957C4.26592 69.3957 3.98076 69.2817 3.75264 69.0649C3.3078 68.6201 3.3078 67.9015 3.75264 67.4567L19.5617 51.6932C20.0065 51.2484 20.7251 51.2484 21.17 51.6932C21.6148 52.1381 21.6148 52.8567 21.17 53.3015ZM24.8656 49.6173C24.6375 49.834 24.3523 49.9481 24.0558 49.9481C23.7592 49.9481 23.474 49.834 23.2459 49.6173C22.8011 49.1724 22.8011 48.4538 23.2459 48.009L29.9756 41.2907C30.4205 40.8459 31.139 40.8459 31.5839 41.2907C32.0287 41.7356 32.0287 42.4542 31.5839 42.899L24.8656 49.6173ZM22.63 60.1453C23.0748 60.5901 23.0748 61.3087 22.63 61.7535L15.1133 69.2474C14.8965 69.4642 14.6114 69.5782 14.3148 69.5782C14.0183 69.5782 13.7331 69.4642 13.505 69.2474C13.0601 68.8026 13.0601 68.084 13.505 67.6392L21.0217 60.1453C21.4665 59.7004 22.1851 59.7004 22.63 60.1453ZM26.9187 27.0215C26.9187 29.4853 24.9112 31.4928 22.4361 31.4928H22.1395V33.2151C22.1395 33.8424 21.6262 34.3557 20.9989 34.3557C20.3715 34.3557 19.8583 33.8424 19.8583 33.2151V31.4928H18.1359C17.5086 31.4928 16.9953 30.9795 16.9953 30.3521C16.9953 29.7248 17.5086 29.2115 18.1359 29.2115H22.4361C23.6451 29.2115 24.6375 28.2306 24.6375 27.0101C24.6375 25.801 23.6451 24.8087 22.4361 24.8087H20.5312C18.0561 24.8087 16.0486 22.8012 16.0486 20.3374C16.0486 18.1018 17.7139 16.254 19.8697 15.9346V14.1438C19.8697 13.5165 20.3829 13.0032 21.0103 13.0032C21.6376 13.0032 22.1509 13.5165 22.1509 14.1438V15.8662H24.8314C25.4587 15.8662 25.972 16.3795 25.972 17.0068C25.972 17.6342 25.4587 18.1474 24.8314 18.1474H20.5312C19.3222 18.1474 18.3298 19.1284 18.3298 20.3488C18.3298 21.5693 19.3222 22.5503 20.5312 22.5503H22.4475C24.9112 22.5503 26.9187 24.5578 26.9187 27.0215ZM62.2211 44.1081C62.472 44.3476 62.5975 44.6898 62.5633 45.032L61.6279 55.4915C61.6393 56.0048 61.2744 56.5523 60.704 56.7918C60.1109 57.0428 59.4151 56.8945 58.9361 56.4154L57.7156 55.1949L46.4462 66.4415C46.2181 66.6582 45.9329 66.7723 45.6364 66.7723C45.3398 66.7723 45.0547 66.6582 44.8265 66.4415C44.3817 65.9967 44.3817 65.2781 44.8265 64.8332L56.6092 53.0734C57.2137 52.4688 58.2289 52.4917 58.8676 53.1304L59.495 53.7578L60.1679 46.241L52.8794 47.1649L53.5523 47.8379C53.8603 48.1459 54.0428 48.5793 54.0428 49.0128C54.0428 49.4234 53.8831 49.7998 53.5979 50.0849L48.4765 55.1949C48.0317 55.6398 47.3131 55.6398 46.8683 55.1949C46.4234 54.7501 46.4234 54.0315 46.8683 53.5867L51.4764 48.9899L50.2559 47.7695C49.7769 47.2904 49.6286 46.5946 49.8795 46.0015C50.0962 45.4654 50.6095 45.1118 51.1912 45.0776L61.2858 43.8001C61.6279 43.7545 61.9701 43.8685 62.2211 44.1081ZM41.0397 61.0007C40.5948 60.5559 40.5948 59.8373 41.0397 59.3924L44.9634 55.4801C45.4083 55.0353 46.1269 55.0353 46.5717 55.4801C47.0165 55.9249 47.0165 56.6435 46.5717 57.0884L42.6479 61.0007C42.4198 61.2174 42.1347 61.3315 41.8381 61.3315C41.5415 61.3315 41.2564 61.2288 41.0397 61.0007ZM43.5833 62.7345C44.0281 63.1793 44.0281 63.8979 43.5833 64.3428L39.0094 68.9053C38.7812 69.122 38.4961 69.236 38.1995 69.236C37.903 69.236 37.6178 69.122 37.3897 68.9053C36.9448 68.4604 36.9448 67.7418 37.3897 67.297L41.9636 62.7345C42.4084 62.2896 43.1384 62.2896 43.5833 62.7345ZM45.2942 62.1642C44.9976 62.1642 44.7125 62.0501 44.4844 61.8334C44.0395 61.3885 44.0395 60.6699 44.4844 60.2251L46.9367 57.7842C47.3815 57.3393 48.1001 57.3393 48.545 57.7842C48.9898 58.229 48.9898 58.9476 48.545 59.3924L46.0926 61.8334C45.8759 62.0501 45.5793 62.1642 45.2942 62.1642ZM37.8003 65.3693C37.5037 65.3693 37.2186 65.2553 36.9904 65.0385C36.5456 64.5937 36.5456 63.8751 36.9904 63.4303L39.2489 61.1718C39.6937 60.727 40.4123 60.727 40.8572 61.1718C41.302 61.6167 41.302 62.3353 40.8572 62.7801L38.5987 65.0385C38.382 65.2553 38.0969 65.3693 37.8003 65.3693Z"/>
</mask>
<path d="M69.2587 3.76416C68.9964 3.49041 68.62 3.37635 68.2436 3.43338L41.5301 8.0301C40.629 8.09853 39.8876 8.66885 39.5797 9.51291C39.2717 10.357 39.477 11.2695 40.1044 11.9082L44.0053 15.7978L39.0664 20.7253C37.3326 12.4899 30.0897 6.49025 21.4437 6.49025C11.5089 6.49025 3.42186 14.5545 3.42186 24.4665C3.42186 33.0668 9.43295 40.3098 17.6911 42.0435L11.6001 48.1231C11.1553 48.5679 11.1553 49.2865 11.6001 49.7313C11.8283 49.9481 12.1134 50.0621 12.41 50.0621C12.7065 50.0621 12.9917 49.9481 13.2198 49.7313L45.625 17.406C46.5147 16.5163 46.5147 15.0792 45.625 14.1895L41.8267 10.2885L66.9889 5.96557L61.9131 30.2609C61.9017 30.3065 61.9017 30.3521 61.8903 30.3978L57.9893 26.5082C57.5559 26.0748 56.9856 25.8467 56.3811 25.8353C55.7765 25.8353 55.1948 26.0748 54.7728 26.4968L40.6633 40.5607C40.2184 41.0056 40.2184 41.7242 40.6633 42.169C41.1081 42.6138 41.8267 42.6138 42.2715 42.169L56.3583 28.1165L60.2592 32.006C60.8979 32.6448 61.8218 32.8387 62.6545 32.5307C63.4758 32.2342 64.0347 31.5156 64.1373 30.6601L69.5553 4.79072C69.6351 4.42572 69.5211 4.03791 69.2587 3.76416ZM5.70311 24.4665C5.70311 15.8092 12.7636 8.7715 21.4437 8.7715C29.5079 8.7715 36.192 14.7484 37.0817 22.7099L19.6758 40.0588C11.7028 39.1692 5.70311 32.4965 5.70311 24.4665ZM39.3629 45.0662L26.2229 58.172C25.9948 58.3887 25.7097 58.5028 25.4131 58.5028C25.1165 58.5028 24.8314 58.3887 24.6033 58.172C24.1584 57.7271 24.1584 57.0085 24.6033 56.5637L37.7547 43.4579C38.1995 43.0131 38.9181 43.0131 39.3629 43.4579C39.8078 43.9028 39.8078 44.6213 39.3629 45.0662ZM21.17 53.3015L5.37233 69.0649C5.1442 69.2817 4.85905 69.3957 4.56248 69.3957C4.26592 69.3957 3.98076 69.2817 3.75264 69.0649C3.3078 68.6201 3.3078 67.9015 3.75264 67.4567L19.5617 51.6932C20.0065 51.2484 20.7251 51.2484 21.17 51.6932C21.6148 52.1381 21.6148 52.8567 21.17 53.3015ZM24.8656 49.6173C24.6375 49.834 24.3523 49.9481 24.0558 49.9481C23.7592 49.9481 23.474 49.834 23.2459 49.6173C22.8011 49.1724 22.8011 48.4538 23.2459 48.009L29.9756 41.2907C30.4205 40.8459 31.139 40.8459 31.5839 41.2907C32.0287 41.7356 32.0287 42.4542 31.5839 42.899L24.8656 49.6173ZM22.63 60.1453C23.0748 60.5901 23.0748 61.3087 22.63 61.7535L15.1133 69.2474C14.8965 69.4642 14.6114 69.5782 14.3148 69.5782C14.0183 69.5782 13.7331 69.4642 13.505 69.2474C13.0601 68.8026 13.0601 68.084 13.505 67.6392L21.0217 60.1453C21.4665 59.7004 22.1851 59.7004 22.63 60.1453ZM26.9187 27.0215C26.9187 29.4853 24.9112 31.4928 22.4361 31.4928H22.1395V33.2151C22.1395 33.8424 21.6262 34.3557 20.9989 34.3557C20.3715 34.3557 19.8583 33.8424 19.8583 33.2151V31.4928H18.1359C17.5086 31.4928 16.9953 30.9795 16.9953 30.3521C16.9953 29.7248 17.5086 29.2115 18.1359 29.2115H22.4361C23.6451 29.2115 24.6375 28.2306 24.6375 27.0101C24.6375 25.801 23.6451 24.8087 22.4361 24.8087H20.5312C18.0561 24.8087 16.0486 22.8012 16.0486 20.3374C16.0486 18.1018 17.7139 16.254 19.8697 15.9346V14.1438C19.8697 13.5165 20.3829 13.0032 21.0103 13.0032C21.6376 13.0032 22.1509 13.5165 22.1509 14.1438V15.8662H24.8314C25.4587 15.8662 25.972 16.3795 25.972 17.0068C25.972 17.6342 25.4587 18.1474 24.8314 18.1474H20.5312C19.3222 18.1474 18.3298 19.1284 18.3298 20.3488C18.3298 21.5693 19.3222 22.5503 20.5312 22.5503H22.4475C24.9112 22.5503 26.9187 24.5578 26.9187 27.0215ZM62.2211 44.1081C62.472 44.3476 62.5975 44.6898 62.5633 45.032L61.6279 55.4915C61.6393 56.0048 61.2744 56.5523 60.704 56.7918C60.1109 57.0428 59.4151 56.8945 58.9361 56.4154L57.7156 55.1949L46.4462 66.4415C46.2181 66.6582 45.9329 66.7723 45.6364 66.7723C45.3398 66.7723 45.0547 66.6582 44.8265 66.4415C44.3817 65.9967 44.3817 65.2781 44.8265 64.8332L56.6092 53.0734C57.2137 52.4688 58.2289 52.4917 58.8676 53.1304L59.495 53.7578L60.1679 46.241L52.8794 47.1649L53.5523 47.8379C53.8603 48.1459 54.0428 48.5793 54.0428 49.0128C54.0428 49.4234 53.8831 49.7998 53.5979 50.0849L48.4765 55.1949C48.0317 55.6398 47.3131 55.6398 46.8683 55.1949C46.4234 54.7501 46.4234 54.0315 46.8683 53.5867L51.4764 48.9899L50.2559 47.7695C49.7769 47.2904 49.6286 46.5946 49.8795 46.0015C50.0962 45.4654 50.6095 45.1118 51.1912 45.0776L61.2858 43.8001C61.6279 43.7545 61.9701 43.8685 62.2211 44.1081ZM41.0397 61.0007C40.5948 60.5559 40.5948 59.8373 41.0397 59.3924L44.9634 55.4801C45.4083 55.0353 46.1269 55.0353 46.5717 55.4801C47.0165 55.9249 47.0165 56.6435 46.5717 57.0884L42.6479 61.0007C42.4198 61.2174 42.1347 61.3315 41.8381 61.3315C41.5415 61.3315 41.2564 61.2288 41.0397 61.0007ZM43.5833 62.7345C44.0281 63.1793 44.0281 63.8979 43.5833 64.3428L39.0094 68.9053C38.7812 69.122 38.4961 69.236 38.1995 69.236C37.903 69.236 37.6178 69.122 37.3897 68.9053C36.9448 68.4604 36.9448 67.7418 37.3897 67.297L41.9636 62.7345C42.4084 62.2896 43.1384 62.2896 43.5833 62.7345ZM45.2942 62.1642C44.9976 62.1642 44.7125 62.0501 44.4844 61.8334C44.0395 61.3885 44.0395 60.6699 44.4844 60.2251L46.9367 57.7842C47.3815 57.3393 48.1001 57.3393 48.545 57.7842C48.9898 58.229 48.9898 58.9476 48.545 59.3924L46.0926 61.8334C45.8759 62.0501 45.5793 62.1642 45.2942 62.1642ZM37.8003 65.3693C37.5037 65.3693 37.2186 65.2553 36.9904 65.0385C36.5456 64.5937 36.5456 63.8751 36.9904 63.4303L39.2489 61.1718C39.6937 60.727 40.4123 60.727 40.8572 61.1718C41.302 61.6167 41.302 62.3353 40.8572 62.7801L38.5987 65.0385C38.382 65.2553 38.0969 65.3693 37.8003 65.3693Z" fill="#0C0C0C"/>
<path d="M69.2587 3.76416C68.9964 3.49041 68.62 3.37635 68.2436 3.43338L41.5301 8.0301C40.629 8.09853 39.8876 8.66885 39.5797 9.51291C39.2717 10.357 39.477 11.2695 40.1044 11.9082L44.0053 15.7978L39.0664 20.7253C37.3326 12.4899 30.0897 6.49025 21.4437 6.49025C11.5089 6.49025 3.42186 14.5545 3.42186 24.4665C3.42186 33.0668 9.43295 40.3098 17.6911 42.0435L11.6001 48.1231C11.1553 48.5679 11.1553 49.2865 11.6001 49.7313C11.8283 49.9481 12.1134 50.0621 12.41 50.0621C12.7065 50.0621 12.9917 49.9481 13.2198 49.7313L45.625 17.406C46.5147 16.5163 46.5147 15.0792 45.625 14.1895L41.8267 10.2885L66.9889 5.96557L61.9131 30.2609C61.9017 30.3065 61.9017 30.3521 61.8903 30.3978L57.9893 26.5082C57.5559 26.0748 56.9856 25.8467 56.3811 25.8353C55.7765 25.8353 55.1948 26.0748 54.7728 26.4968L40.6633 40.5607C40.2184 41.0056 40.2184 41.7242 40.6633 42.169C41.1081 42.6138 41.8267 42.6138 42.2715 42.169L56.3583 28.1165L60.2592 32.006C60.8979 32.6448 61.8218 32.8387 62.6545 32.5307C63.4758 32.2342 64.0347 31.5156 64.1373 30.6601L69.5553 4.79072C69.6351 4.42572 69.5211 4.03791 69.2587 3.76416ZM5.70311 24.4665C5.70311 15.8092 12.7636 8.7715 21.4437 8.7715C29.5079 8.7715 36.192 14.7484 37.0817 22.7099L19.6758 40.0588C11.7028 39.1692 5.70311 32.4965 5.70311 24.4665ZM39.3629 45.0662L26.2229 58.172C25.9948 58.3887 25.7097 58.5028 25.4131 58.5028C25.1165 58.5028 24.8314 58.3887 24.6033 58.172C24.1584 57.7271 24.1584 57.0085 24.6033 56.5637L37.7547 43.4579C38.1995 43.0131 38.9181 43.0131 39.3629 43.4579C39.8078 43.9028 39.8078 44.6213 39.3629 45.0662ZM21.17 53.3015L5.37233 69.0649C5.1442 69.2817 4.85905 69.3957 4.56248 69.3957C4.26592 69.3957 3.98076 69.2817 3.75264 69.0649C3.3078 68.6201 3.3078 67.9015 3.75264 67.4567L19.5617 51.6932C20.0065 51.2484 20.7251 51.2484 21.17 51.6932C21.6148 52.1381 21.6148 52.8567 21.17 53.3015ZM24.8656 49.6173C24.6375 49.834 24.3523 49.9481 24.0558 49.9481C23.7592 49.9481 23.474 49.834 23.2459 49.6173C22.8011 49.1724 22.8011 48.4538 23.2459 48.009L29.9756 41.2907C30.4205 40.8459 31.139 40.8459 31.5839 41.2907C32.0287 41.7356 32.0287 42.4542 31.5839 42.899L24.8656 49.6173ZM22.63 60.1453C23.0748 60.5901 23.0748 61.3087 22.63 61.7535L15.1133 69.2474C14.8965 69.4642 14.6114 69.5782 14.3148 69.5782C14.0183 69.5782 13.7331 69.4642 13.505 69.2474C13.0601 68.8026 13.0601 68.084 13.505 67.6392L21.0217 60.1453C21.4665 59.7004 22.1851 59.7004 22.63 60.1453ZM26.9187 27.0215C26.9187 29.4853 24.9112 31.4928 22.4361 31.4928H22.1395V33.2151C22.1395 33.8424 21.6262 34.3557 20.9989 34.3557C20.3715 34.3557 19.8583 33.8424 19.8583 33.2151V31.4928H18.1359C17.5086 31.4928 16.9953 30.9795 16.9953 30.3521C16.9953 29.7248 17.5086 29.2115 18.1359 29.2115H22.4361C23.6451 29.2115 24.6375 28.2306 24.6375 27.0101C24.6375 25.801 23.6451 24.8087 22.4361 24.8087H20.5312C18.0561 24.8087 16.0486 22.8012 16.0486 20.3374C16.0486 18.1018 17.7139 16.254 19.8697 15.9346V14.1438C19.8697 13.5165 20.3829 13.0032 21.0103 13.0032C21.6376 13.0032 22.1509 13.5165 22.1509 14.1438V15.8662H24.8314C25.4587 15.8662 25.972 16.3795 25.972 17.0068C25.972 17.6342 25.4587 18.1474 24.8314 18.1474H20.5312C19.3222 18.1474 18.3298 19.1284 18.3298 20.3488C18.3298 21.5693 19.3222 22.5503 20.5312 22.5503H22.4475C24.9112 22.5503 26.9187 24.5578 26.9187 27.0215ZM62.2211 44.1081C62.472 44.3476 62.5975 44.6898 62.5633 45.032L61.6279 55.4915C61.6393 56.0048 61.2744 56.5523 60.704 56.7918C60.1109 57.0428 59.4151 56.8945 58.9361 56.4154L57.7156 55.1949L46.4462 66.4415C46.2181 66.6582 45.9329 66.7723 45.6364 66.7723C45.3398 66.7723 45.0547 66.6582 44.8265 66.4415C44.3817 65.9967 44.3817 65.2781 44.8265 64.8332L56.6092 53.0734C57.2137 52.4688 58.2289 52.4917 58.8676 53.1304L59.495 53.7578L60.1679 46.241L52.8794 47.1649L53.5523 47.8379C53.8603 48.1459 54.0428 48.5793 54.0428 49.0128C54.0428 49.4234 53.8831 49.7998 53.5979 50.0849L48.4765 55.1949C48.0317 55.6398 47.3131 55.6398 46.8683 55.1949C46.4234 54.7501 46.4234 54.0315 46.8683 53.5867L51.4764 48.9899L50.2559 47.7695C49.7769 47.2904 49.6286 46.5946 49.8795 46.0015C50.0962 45.4654 50.6095 45.1118 51.1912 45.0776L61.2858 43.8001C61.6279 43.7545 61.9701 43.8685 62.2211 44.1081ZM41.0397 61.0007C40.5948 60.5559 40.5948 59.8373 41.0397 59.3924L44.9634 55.4801C45.4083 55.0353 46.1269 55.0353 46.5717 55.4801C47.0165 55.9249 47.0165 56.6435 46.5717 57.0884L42.6479 61.0007C42.4198 61.2174 42.1347 61.3315 41.8381 61.3315C41.5415 61.3315 41.2564 61.2288 41.0397 61.0007ZM43.5833 62.7345C44.0281 63.1793 44.0281 63.8979 43.5833 64.3428L39.0094 68.9053C38.7812 69.122 38.4961 69.236 38.1995 69.236C37.903 69.236 37.6178 69.122 37.3897 68.9053C36.9448 68.4604 36.9448 67.7418 37.3897 67.297L41.9636 62.7345C42.4084 62.2896 43.1384 62.2896 43.5833 62.7345ZM45.2942 62.1642C44.9976 62.1642 44.7125 62.0501 44.4844 61.8334C44.0395 61.3885 44.0395 60.6699 44.4844 60.2251L46.9367 57.7842C47.3815 57.3393 48.1001 57.3393 48.545 57.7842C48.9898 58.229 48.9898 58.9476 48.545 59.3924L46.0926 61.8334C45.8759 62.0501 45.5793 62.1642 45.2942 62.1642ZM37.8003 65.3693C37.5037 65.3693 37.2186 65.2553 36.9904 65.0385C36.5456 64.5937 36.5456 63.8751 36.9904 63.4303L39.2489 61.1718C39.6937 60.727 40.4123 60.727 40.8572 61.1718C41.302 61.6167 41.302 62.3353 40.8572 62.7801L38.5987 65.0385C38.382 65.2553 38.0969 65.3693 37.8003 65.3693Z" stroke="#0C0C0C" stroke-width="0.6" mask="url(#path-1-outside-1_2202_1009)"/>
</svg>
