<svg width="69" height="70" viewBox="0 0 69 70" fill="none" xmlns="http://www.w3.org/2000/svg">
<path d="M68.4715 53.1437L57.6209 42.2916L59.7623 40.7357C61.8582 39.2131 62.7285 36.5345 61.9281 34.0703L60.4657 29.5701C60.3112 29.0945 60.3112 28.5916 60.4657 28.1161L61.9281 23.6157C62.7287 21.1517 61.8582 18.4729 59.7623 16.9505L55.9341 14.1689C55.5294 13.8749 55.2338 13.4682 55.0795 12.9925L53.6171 8.49216C52.8165 6.02832 50.5382 4.37271 47.9475 4.37271H43.2152C42.7152 4.37271 42.237 4.21735 41.8324 3.9234L38.0042 1.14197C35.9083 -0.380656 33.0919 -0.380656 30.9958 1.14197L27.1674 3.92358C26.7628 4.21753 26.2847 4.37289 25.7846 4.37289H21.0526C18.4619 4.37289 16.1833 6.02832 15.3827 8.49234L13.9203 12.9929C13.7659 13.4682 13.4703 13.8749 13.0657 14.1691L9.23753 16.9505C7.14162 18.4733 6.27132 21.1519 7.07179 23.6157L8.53414 28.1161C8.6886 28.5916 8.6886 29.0945 8.53414 29.57L7.07179 34.0705C6.27132 36.5345 7.14162 39.2133 9.23753 40.7357L11.3789 42.2916L0.528374 53.1435C0.0978246 53.5741 -0.086413 54.1928 0.0382767 54.7889C0.162966 55.3851 0.579982 55.8779 1.14713 56.0998L9.86188 59.5096L13.2716 68.2243C13.4934 68.7915 13.9864 69.2083 14.5826 69.3332C14.7055 69.359 14.8293 69.3714 14.9521 69.3714C15.4256 69.3714 15.8861 69.1849 16.2281 68.8429L29.5668 55.5058L30.9958 56.5441C32.0438 57.3054 33.2718 57.686 34.4999 57.686C35.7279 57.686 36.9562 57.3054 38.004 56.5439L39.4332 55.5056L52.7721 68.8429C53.1141 69.1849 53.5744 69.3714 54.0479 69.3714C54.1708 69.3714 54.2945 69.359 54.4174 69.3332C55.0136 69.2085 55.5064 68.7915 55.7284 68.2243L59.1381 59.5096L67.8529 56.0998C68.42 55.8781 68.8369 55.3851 68.9617 54.7889C69.0864 54.193 68.902 53.5741 68.4715 53.1437ZM15.6272 64.3402L12.9351 57.4595C12.7518 56.9907 12.3809 56.6201 11.9121 56.4365L5.03146 53.7444L13.9599 44.8146L15.3829 49.1939C16.1835 51.6579 18.4619 53.3133 21.0527 53.3133H25.7848C26.0425 53.3133 26.2942 53.3554 26.5331 53.4355L15.6272 64.3402ZM33.117 53.6244L29.2888 50.8428C28.2634 50.0981 27.0519 49.7044 25.7848 49.7044H21.0527C20.0303 49.7044 19.1311 49.0512 18.8154 48.0787L17.353 43.5785C16.9789 42.4269 16.2756 41.4377 15.3195 40.7018C15.2867 40.6737 15.2528 40.6475 15.2185 40.6222C15.2078 40.6143 15.1981 40.6055 15.1873 40.5977L11.3591 37.8161C10.5321 37.2154 10.1885 36.1581 10.5045 35.1859L11.9668 30.6855C12.3584 29.4803 12.3584 28.2063 11.9668 27.0011L10.5045 22.5009C10.1885 21.5285 10.5321 20.4714 11.3591 19.8703L15.1873 17.0889C16.2128 16.3438 16.9616 15.3131 17.353 14.1083L18.8154 9.60788C19.1311 8.63544 20.0305 7.98222 21.0527 7.98222H25.7848C27.0521 7.98222 28.2638 7.58848 29.2889 6.84359L33.117 4.06234C33.9441 3.46145 35.0561 3.46127 35.8829 4.06234L39.7111 6.84395C40.7364 7.58884 41.9479 7.98258 43.2152 7.98258H47.9475C48.9697 7.98258 49.8687 8.63598 50.1847 9.60824L51.647 14.1084C52.0384 15.3136 52.7873 16.3444 53.8128 17.0893L57.6411 19.8709C58.4681 20.4718 58.8115 21.5288 58.4956 22.5013L57.0332 27.0018C56.6418 28.2069 56.6418 29.4808 57.0332 30.686L58.4956 35.1864C58.8115 36.1588 58.4681 37.2157 57.641 37.8168L53.8129 40.5981C53.7996 40.6078 53.7875 40.6188 53.7741 40.6285C53.7436 40.6513 53.7135 40.6746 53.6841 40.6995C52.7263 41.4355 52.0216 42.4258 51.647 43.5787L50.1847 48.0793C49.8687 49.0517 48.9697 49.7049 47.9475 49.7049H43.2152C41.9483 49.7049 40.7366 50.0987 39.7111 50.8435L35.8831 53.6248C35.0553 54.2255 33.944 54.225 33.117 53.6244ZM57.0879 56.4365C56.6191 56.6201 56.2484 56.9907 56.0649 57.4595L53.3728 64.3402L42.4667 53.4357C42.7056 53.3554 42.9573 53.3135 43.215 53.3135H47.9473C50.5378 53.3135 52.8163 51.6581 53.617 49.1943L55.04 44.8146L63.9687 53.7446L57.0879 56.4365Z" fill="#0C0C0C"/>
<path d="M42.8453 42.227C43.2194 42.227 43.5918 42.1106 43.9061 41.8824C44.4617 41.4787 44.7402 40.7946 44.6241 40.1176L43.1907 31.7598L49.2629 25.8407C49.7548 25.3612 49.9317 24.6441 49.7195 23.9909C49.5071 23.3377 48.9425 22.8617 48.2629 22.7628L39.871 21.5433L36.1182 13.939C35.8141 13.3232 35.1869 12.9332 34.4999 12.9332C33.813 12.9332 33.1857 13.3232 32.8818 13.939L29.1291 21.5433L20.7373 22.7628C20.0576 22.8615 19.4929 23.3377 19.2806 23.9909C19.0682 24.6441 19.2454 25.3612 19.7373 25.8407L25.8095 31.7598L24.3761 40.1176C24.2598 40.7946 24.5381 41.4787 25.0939 41.8824C25.6495 42.2862 26.3862 42.3393 26.9942 42.0199L34.4999 38.0738L42.0058 42.0197C42.2698 42.1584 42.558 42.227 42.8453 42.227ZM35.3395 34.438C35.0766 34.2997 34.7883 34.2308 34.4999 34.2308C34.2116 34.2308 33.923 34.2999 33.6603 34.438L28.5511 37.1241L29.5269 31.4348C29.6275 30.8494 29.4333 30.2521 29.008 29.8374L24.8746 25.8084L30.5869 24.9781C31.1746 24.8928 31.6828 24.5236 31.9455 23.9911L34.4999 18.8151L37.0543 23.9913C37.3173 24.5238 37.8252 24.893 38.4129 24.9783L44.1254 25.8086L39.9919 29.8376C39.5667 30.2521 39.3726 30.8494 39.4729 31.4349L40.4488 37.1243L35.3395 34.438Z" fill="#0C0C0C"/>
</svg>
