<svg width="86" height="79" viewBox="0 0 86 79" fill="none" xmlns="http://www.w3.org/2000/svg">
<g clip-path="url(#clip0_2202_998)">
<path d="M20.3609 55.7302C21.068 54.7361 21.4492 53.5469 21.4518 52.327V49.9477C21.4518 48.3945 20.8348 46.905 19.7366 45.8068C18.6383 44.7085 17.1488 44.0916 15.5957 44.0916C14.0425 44.0916 12.553 44.7085 11.4547 45.8068C10.3565 46.905 9.73952 48.3945 9.73952 49.9477V52.3353C9.74221 53.5576 10.1252 54.7488 10.8355 55.7436C9.71621 56.2011 8.72549 56.9247 7.94922 57.8518C7.65467 58.2213 7.47042 58.6665 7.41767 59.136C7.36491 59.6056 7.4458 60.0806 7.65102 60.5062C7.85624 60.9318 8.17746 61.2909 8.57771 61.5421C8.97797 61.7933 9.441 61.9263 9.91353 61.926H21.2912C21.7653 61.9279 22.2303 61.7955 22.6323 61.544C23.0343 61.2926 23.3569 60.9324 23.5626 60.5052C23.7683 60.078 23.8488 59.6012 23.7948 59.1301C23.7407 58.6591 23.5543 58.2129 23.2572 57.8434C22.479 56.9129 21.4845 56.1873 20.3609 55.7302ZM9.90517 59.4112C10.5995 58.5395 11.913 57.8501 13.4958 57.5222C13.7452 57.4726 13.9737 57.3483 14.1509 57.166C14.3282 56.9836 14.4458 56.7516 14.4883 56.5009C14.5307 56.2502 14.496 55.9924 14.3887 55.7619C14.2814 55.5313 14.1065 55.3388 13.8873 55.2098C13.3885 54.9112 12.9754 54.4887 12.6881 53.9832C12.4008 53.4778 12.249 52.9067 12.2476 52.3253V49.9477C12.2476 49.0602 12.6002 48.209 13.2277 47.5814C13.8553 46.9539 14.7065 46.6013 15.594 46.6013C16.4807 46.604 17.3303 46.9574 17.9573 47.5844C18.5843 48.2114 18.9377 49.061 18.9403 49.9477V52.3336C18.9392 52.9143 18.7881 53.4847 18.5017 53.9898C18.2153 54.4949 17.8033 54.9174 17.3057 55.2165C17.0888 55.3463 16.9162 55.5385 16.8104 55.7679C16.7046 55.9974 16.6705 56.2534 16.7127 56.5026C16.7548 56.7517 16.8711 56.9824 17.0465 57.1643C17.2219 57.3462 17.4481 57.4709 17.6955 57.5222C19.2817 57.8568 20.5918 58.5411 21.2861 59.4162L9.90517 59.4112Z" fill="#0C0C0C"/>
<path d="M36.651 11.0079C36.9505 11.2622 37.3303 11.5851 37.5629 11.8009C37.5177 12.1155 37.4257 12.6057 37.3521 12.9906C36.9187 15.2628 36.5774 17.0564 37.7252 17.8428C37.8636 17.9397 38.0167 18.0137 38.1786 18.062C39.2696 18.3849 40.6734 17.5182 42.3917 16.4574C42.7264 16.2516 43.148 15.9889 43.4274 15.835C43.7119 15.9739 44.1502 16.2148 44.4932 16.4039C46.5195 17.5165 48.119 18.395 49.225 17.5483C50.331 16.7017 49.8943 14.9281 49.3488 12.6827C49.2551 12.3012 49.138 11.8177 49.0778 11.5115C49.2986 11.2839 49.6617 10.9426 49.9478 10.6749C51.631 9.09207 52.9595 7.8422 52.4977 6.52875C52.0359 5.2153 50.2138 5.07978 47.9082 4.90744C47.5167 4.87732 47.0197 4.84051 46.7052 4.80203C46.5563 4.52093 46.3438 4.07085 46.1765 3.71613C45.191 1.62466 44.4129 -0.0267739 43.0225 0.00836293C41.6321 0.0434997 40.9377 1.73341 40.061 3.87174C39.9121 4.23482 39.7263 4.69662 39.5891 4.98273C39.2763 5.03962 38.781 5.10153 38.3928 5.15005C36.0989 5.43951 34.2868 5.66874 33.892 7.00394C33.4971 8.33913 34.8875 9.51371 36.651 11.0079ZM38.7074 7.63473C40.1296 7.45402 40.7252 7.36702 41.1636 7.03238C41.602 6.69774 41.8329 6.14392 42.3833 4.81709C42.5507 4.39879 42.8368 3.70944 43.1028 3.15729C43.3956 3.69605 43.7119 4.36867 43.9059 4.7786C44.5167 6.07532 44.7827 6.6191 45.2445 6.92864C45.7063 7.23818 46.2969 7.29674 47.7275 7.40383C48.1793 7.43729 48.9221 7.49418 49.5295 7.57114C49.1079 8.01621 48.5658 8.52653 48.2345 8.83607C47.1904 9.81823 46.7587 10.2382 46.6031 10.7669C46.4475 11.2956 46.5763 11.8829 46.916 13.2767C47.0248 13.7167 47.2004 14.4479 47.3109 15.0419C46.757 14.7792 46.1045 14.4211 45.708 14.2053C44.4514 13.516 43.9193 13.2365 43.3655 13.2499C42.8117 13.2633 42.2963 13.5695 41.0766 14.3241C40.6918 14.5617 40.0576 14.9532 39.5189 15.2444C39.5975 14.637 39.738 13.9058 39.8217 13.4607C40.0911 12.0519 40.1915 11.4529 40.0074 10.9393C39.8234 10.4256 39.3733 10.0224 38.279 9.09876C37.9327 8.80595 37.3655 8.32408 36.9221 7.90243C37.5194 7.78364 38.2573 7.69161 38.7074 7.63473Z" fill="#0C0C0C"/>
<path d="M59.6271 26.1083C60.4453 27.2343 62.2289 26.8461 64.4877 26.3576C64.8709 26.2739 65.3595 26.1685 65.6723 26.1166C65.8949 26.3425 66.2278 26.7139 66.4889 27.0068C67.8274 28.5126 68.9317 29.7424 70.0695 29.7424C70.2399 29.7427 70.4093 29.7162 70.5714 29.6638C71.8949 29.2338 72.0773 27.4167 72.3099 25.1161C72.3483 24.7262 72.3985 24.2293 72.4471 23.9164C72.7298 23.7742 73.1866 23.5818 73.5447 23.4144C75.6612 22.4841 77.3328 21.7413 77.3328 20.3559C77.3328 18.9705 75.6596 18.2292 73.5447 17.2973C73.1866 17.14 72.7298 16.9392 72.4471 16.7953C72.3985 16.4808 72.3483 15.9855 72.3099 15.5957C72.0773 13.295 71.8949 11.478 70.5714 11.0479C69.2479 10.6179 68.0315 11.9799 66.4922 13.705C66.2312 13.9978 65.8982 14.3742 65.6757 14.5951C65.3628 14.5432 64.8759 14.4378 64.4928 14.3542C62.2323 13.8639 60.4487 13.4774 59.6305 14.6035C58.8123 15.7295 59.7326 17.3056 60.8954 19.3034C61.0945 19.6381 61.3455 20.0731 61.4911 20.3542C61.3455 20.637 61.0945 21.067 60.8954 21.4066C59.7326 23.4044 58.809 24.9822 59.6271 26.1083ZM63.9557 16.8087C65.3578 17.1132 65.9467 17.2304 66.4654 17.0597C66.9841 16.889 67.3991 16.4473 68.3545 15.3865C68.6556 15.0519 69.1509 14.493 69.5859 14.0597C69.6813 14.6654 69.7532 15.4066 69.8018 15.8567C69.9457 17.2839 70.0176 17.8812 70.3422 18.3263C70.6668 18.7714 71.2123 19.0257 72.5173 19.6029C72.9323 19.7853 73.6133 20.0865 74.1604 20.3642C73.6133 20.6436 72.9323 20.9431 72.5173 21.1272C71.2056 21.7044 70.6601 21.9638 70.3422 22.4022C70.0243 22.8405 69.9457 23.4462 69.8018 24.8734C69.7566 25.3235 69.683 26.0648 69.5859 26.6704C69.1509 26.2371 68.6556 25.6816 68.3545 25.3436C67.3991 24.2744 66.9908 23.8377 66.4654 23.6621C66.2918 23.6073 66.1104 23.5807 65.9283 23.5834C65.49 23.5834 64.9111 23.7039 63.949 23.9181C63.5056 24.0134 62.7777 24.1707 62.1737 24.2661C62.4515 23.7206 62.8263 23.0765 63.0538 22.6849C63.7766 21.4468 64.0694 20.9214 64.0694 20.3709C64.0694 19.8204 63.7766 19.2934 63.0538 18.0552C62.8263 17.662 62.4515 17.0195 62.1737 16.4724C62.7861 16.5544 63.5139 16.7133 63.9557 16.8087Z" fill="#0C0C0C"/>
<path d="M53.3744 59.5234C51.4285 59.5468 49.3454 59.5619 47.8529 59.5586C48.713 58.4241 50.0632 56.6121 52.0677 53.7476C53.013 52.3973 53.6254 51.1307 53.8931 49.9829C53.8931 49.9411 53.9099 49.901 53.9149 49.8591L53.9902 49.2651C53.9969 49.2124 54.0002 49.1593 54.0002 49.1062C54.0018 47.8194 53.5241 46.5782 52.6602 45.6245C51.7964 44.6709 50.6083 44.0731 49.3277 43.9477C48.047 43.8224 46.7656 44.1785 45.7333 44.9465C44.7009 45.7146 43.9916 46.8397 43.7436 48.1023C43.7055 48.2663 43.7008 48.4364 43.7298 48.6023C43.7588 48.7682 43.8209 48.9265 43.9124 49.0679C44.0038 49.2093 44.1229 49.3308 44.2623 49.4253C44.4018 49.5197 44.5588 49.5851 44.724 49.6176C44.8893 49.65 45.0594 49.6489 45.2242 49.6142C45.389 49.5796 45.5451 49.5121 45.6833 49.4158C45.8215 49.3196 45.9389 49.1965 46.0285 49.0539C46.1181 48.9113 46.1781 48.7521 46.2049 48.5858C46.3465 47.9546 46.712 47.396 47.2336 47.0134C47.7552 46.6307 48.3978 46.45 49.0424 46.5044C49.6871 46.5589 50.2902 46.845 50.7402 47.3098C51.1902 47.7745 51.4567 48.3865 51.4904 49.0326L51.4335 49.4709C51.2311 50.2925 50.7542 51.2462 50.0113 52.3053C47.5785 55.7839 46.1245 57.6863 45.3448 58.7086C44.4112 59.93 44.0966 60.3416 44.3192 61.0678C44.383 61.2724 44.4951 61.4586 44.6459 61.6109C44.7967 61.7632 44.9819 61.877 45.1859 61.9428C45.3532 61.9981 45.5657 62.07 48.5005 62.07C49.6583 62.07 51.2411 62.0583 53.4112 62.0315C53.576 62.0294 53.7388 61.9949 53.8903 61.9299C54.0417 61.8649 54.1789 61.7707 54.2939 61.6527C54.409 61.5347 54.4997 61.3952 54.5608 61.2422C54.6219 61.0891 54.6523 60.9255 54.6502 60.7607C54.6481 60.5959 54.6136 60.4332 54.5486 60.2817C54.4836 60.1303 54.3895 59.9931 54.2714 59.8781C54.1534 59.763 54.0139 59.6723 53.8609 59.6112C53.7078 59.55 53.5442 59.5197 53.3795 59.5217L53.3744 59.5234Z" fill="#0C0C0C"/>
<path d="M73.8777 54.1759L79.3088 49.1798C79.554 48.9546 79.6997 48.6412 79.7138 48.3086C79.7279 47.976 79.6093 47.6514 79.3841 47.4062C79.1589 47.1611 78.8455 47.0154 78.5129 47.0013C78.1803 46.9872 77.8557 47.1057 77.6105 47.3309L72.8922 51.6678V48.0956C72.8922 47.7628 72.7599 47.4436 72.5246 47.2082C72.2893 46.9729 71.9701 46.8407 71.6373 46.8407C71.3045 46.8407 70.9853 46.9729 70.7499 47.2082C70.5146 47.4436 70.3824 47.7628 70.3824 48.0956V60.7783C70.3824 61.1111 70.5146 61.4303 70.7499 61.6656C70.9853 61.901 71.3045 62.0332 71.6373 62.0332C71.9701 62.0332 72.2893 61.901 72.5246 61.6656C72.7599 61.4303 72.8922 61.1111 72.8922 60.7783V56.7158L78.0372 61.6801C78.1557 61.7946 78.2957 61.8846 78.449 61.945C78.6023 62.0054 78.766 62.035 78.9308 62.0322C79.0956 62.0293 79.2582 61.994 79.4093 61.9283C79.5604 61.8626 79.6971 61.7677 79.8116 61.6492C79.9261 61.5307 80.0161 61.3907 80.0765 61.2374C80.1369 61.0841 80.1665 60.9203 80.1636 60.7556C80.1607 60.5908 80.1254 60.4282 80.0597 60.2771C79.994 60.126 79.8992 59.9893 79.7806 59.8748L73.8777 54.1759Z" fill="#0C0C0C"/>
<path d="M62.1219 43.7654C60.6131 43.7654 59.1661 44.3647 58.0993 45.4316C57.0324 46.4985 56.433 47.9454 56.433 49.4542V56.5451C56.433 58.0539 57.0324 59.5009 58.0993 60.5677C59.1661 61.6346 60.6131 62.234 62.1219 62.234C63.6306 62.234 65.0776 61.6346 66.1445 60.5677C67.2113 59.5009 67.8107 58.0539 67.8107 56.5451V49.4458C67.8085 47.9385 67.2081 46.4937 66.1415 45.4286C65.0749 44.3636 63.6292 43.7654 62.1219 43.7654ZM65.3009 56.5435C65.3009 57.3866 64.966 58.1952 64.3698 58.7914C63.7736 59.3876 62.965 59.7225 62.1219 59.7225C61.2787 59.7225 60.4701 59.3876 59.8739 58.7914C59.2778 58.1952 58.9428 57.3866 58.9428 56.5435V49.4542C58.9428 48.6111 59.2778 47.8025 59.8739 47.2063C60.4701 46.6101 61.2787 46.2752 62.1219 46.2752C62.965 46.2752 63.7736 46.6101 64.3698 47.2063C64.966 47.8025 65.3009 48.6111 65.3009 49.4542V56.5435Z" fill="#0C0C0C"/>
<path d="M39.9538 44.0782H36.6777C36.3449 44.0782 36.0257 44.2105 35.7904 44.4458C35.5551 44.6811 35.4229 45.0003 35.4229 45.3331C35.4229 45.6659 35.5551 45.9851 35.7904 46.2205C36.0257 46.4558 36.3449 46.588 36.6777 46.588H38.6989V60.6561C38.6989 60.9889 38.8311 61.3081 39.0665 61.5435C39.3018 61.7788 39.621 61.911 39.9538 61.911C40.2866 61.911 40.6058 61.7788 40.8412 61.5435C41.0765 61.3081 41.2087 60.9889 41.2087 60.6561V45.3331C41.2087 45.1683 41.1763 45.0052 41.1132 44.8529C41.0501 44.7007 40.9577 44.5623 40.8412 44.4458C40.7246 44.3293 40.5863 44.2368 40.4341 44.1738C40.2818 44.1107 40.1186 44.0782 39.9538 44.0782Z" fill="#0C0C0C"/>
<path d="M32.9265 51.7247H30.728V49.5244C30.728 49.1916 30.5957 48.8724 30.3604 48.6371C30.1251 48.4017 29.8059 48.2695 29.4731 48.2695C29.1402 48.2695 28.8211 48.4017 28.5857 48.6371C28.3504 48.8724 28.2182 49.1916 28.2182 49.5244V51.7247H26.0179C25.6851 51.7247 25.3659 51.8569 25.1306 52.0922C24.8953 52.3275 24.7631 52.6467 24.7631 52.9795C24.7631 53.3124 24.8953 53.6315 25.1306 53.8669C25.3659 54.1022 25.6851 54.2344 26.0179 54.2344H28.2182V56.433C28.2182 56.7658 28.3504 57.085 28.5857 57.3203C28.8211 57.5557 29.1402 57.6879 29.4731 57.6879C29.8059 57.6879 30.1251 57.5557 30.3604 57.3203C30.5957 57.085 30.728 56.7658 30.728 56.433V54.2344H32.9265C33.2593 54.2344 33.5785 54.1022 33.8139 53.8669C34.0492 53.6315 34.1814 53.3124 34.1814 52.9795C34.1814 52.6467 34.0492 52.3275 33.8139 52.0922C33.5785 51.8569 33.2593 51.7247 32.9265 51.7247Z" fill="#0C0C0C"/>
<path d="M8.7842 34.0747L8.78409 34.0747C6.42871 34.0774 4.17057 35.0142 2.50506 36.6797C0.83955 38.3452 -0.0973127 40.6034 -0.1 42.9588V42.9589L-0.1 63.0371L-0.0999999 63.0372C-0.0973127 65.3926 0.83955 67.6507 2.50506 69.3162C4.17057 70.9817 6.42871 71.9186 8.78409 71.9213H8.7842H35.0335L40.1007 76.9885L40.1008 76.9886C40.826 77.7125 41.8088 78.1191 42.8334 78.1191C43.8581 78.1191 44.8409 77.7125 45.5661 76.9886L45.5662 76.9885L50.6334 71.9213H76.8827C79.2382 71.9186 81.4963 70.9817 83.1618 69.3162C84.8273 67.6507 85.7642 65.3926 85.7669 63.0372V42.9589C85.7642 40.6034 84.8273 38.3452 83.1618 36.6797C81.4963 35.0142 79.2382 34.0774 76.8828 34.0747L8.7842 34.0747ZM48.9418 69.7795L49.0125 69.8503L48.9418 69.7796L43.6495 75.0718L43.6494 75.072C43.5424 75.1794 43.4152 75.2646 43.2752 75.3228C43.1352 75.381 42.9851 75.4109 42.8334 75.4109C42.6818 75.4109 42.5317 75.381 42.3917 75.3228C42.2517 75.2646 42.1245 75.1794 42.0175 75.072L42.0173 75.0718L36.7251 69.7879C36.7251 69.7879 36.7251 69.7879 36.725 69.7879C36.5448 69.6077 36.3308 69.4648 36.0954 69.3674C35.8599 69.2699 35.6075 69.2198 35.3526 69.2199H8.78431C7.14583 69.2181 5.57508 68.5659 4.41727 67.4065C3.25946 66.2472 2.60933 64.6756 2.60977 63.0371V42.959C2.61152 41.3219 3.26261 39.7524 4.42018 38.5949C5.57775 37.4373 7.14726 36.7862 8.78431 36.7845H76.8827C78.5196 36.7862 80.0891 37.4373 81.2467 38.5949C82.4043 39.7524 83.0554 41.3219 83.0571 42.959V63.037C83.0554 64.674 82.4043 66.2435 81.2467 67.4011C80.0891 68.5587 78.5196 69.2098 76.8826 69.2115H50.3142C50.0594 69.2114 49.807 69.2615 49.5715 69.359C49.3361 69.4565 49.1221 69.5994 48.9418 69.7795Z" fill="#0C0C0C" stroke="#0C0C0C" stroke-width="0.2"/>
<path d="M12.1255 23.4144C12.4836 23.5817 12.9404 23.7741 13.2232 23.9163C13.2717 24.2292 13.3219 24.7262 13.3604 25.116C13.5929 27.4166 13.7753 29.232 15.0988 29.662C15.2607 29.7158 15.4302 29.7429 15.6007 29.7424C16.7385 29.7424 17.8378 28.5126 19.1814 27.0067C19.444 26.7139 19.7753 26.3374 19.9979 26.1149C20.3124 26.1668 20.7993 26.2738 21.1825 26.3558C23.4413 26.8461 25.2249 27.2326 26.0431 26.1082C26.8613 24.9838 25.941 23.4043 24.7781 21.4066C24.5807 21.0719 24.3297 20.6386 24.1825 20.3558C24.3297 20.0747 24.5807 19.643 24.7781 19.305C25.9494 17.3073 26.8613 15.7295 26.0431 14.6051C25.2249 13.4807 23.4413 13.8655 21.1908 14.3558C20.806 14.4394 20.3208 14.5448 20.0062 14.5967C19.7837 14.3708 19.4524 13.9994 19.1897 13.7066C17.6387 11.9815 16.4223 10.6279 15.0988 11.0496C13.7753 11.4712 13.5929 13.2967 13.3604 15.5956C13.3219 15.9871 13.2717 16.4824 13.2248 16.7969C12.9404 16.9392 12.4836 17.1316 12.1255 17.2989C10.009 18.2309 8.33746 18.9721 8.33746 20.3575C8.33746 21.7429 10.009 22.4841 12.1255 23.4144ZM11.4931 20.3558C12.0402 20.0781 12.7212 19.7769 13.1361 19.5945C14.4479 19.0173 14.9934 18.7579 15.3113 18.3195C15.6292 17.8812 15.7078 17.2755 15.8517 15.8483C15.8969 15.3982 15.9705 14.6569 16.0676 14.0513C16.5026 14.4846 16.9979 15.0401 17.299 15.3781C18.2544 16.4473 18.6627 16.884 19.188 17.0513C19.7134 17.2186 20.3024 17.1048 21.6978 16.8003C22.1412 16.7049 22.869 16.546 23.4731 16.4506C23.1953 16.9977 22.8205 17.6402 22.593 18.0318C21.8702 19.2716 21.5774 19.797 21.5774 20.3474C21.5774 20.8979 21.8702 21.425 22.593 22.6631C22.8205 23.0546 23.1953 23.6971 23.4731 24.2443C22.8674 24.1489 22.1345 23.9916 21.6978 23.8963C20.2957 23.5917 19.7067 23.4746 19.188 23.6453C18.6694 23.8159 18.2544 24.2577 17.299 25.3268C16.9979 25.6615 16.5026 26.2203 16.0676 26.6537C15.9705 26.048 15.9002 25.3067 15.8517 24.8567C15.7078 23.4294 15.6359 22.8321 15.3113 22.3854C14.9867 21.9386 14.4412 21.6877 13.1361 21.1104C12.7212 20.9264 12.0402 20.6269 11.4931 20.3474V20.3558Z" fill="#0C0C0C"/>
</g>
<defs>
<clipPath id="clip0_2202_998">
<rect width="85.6669" height="78.0171" fill="white"/>
</clipPath>
</defs>
</svg>
