<svg width="150" height="69" viewBox="0 0 150 69" fill="none" xmlns="http://www.w3.org/2000/svg">
<g clip-path="url(#clip0_2203_1206)">
<mask id="path-1-inside-1_2203_1206" fill="white">
<path d="M40.7226 6.3944L37.793 12.3711L29.4932 11.1593L25.1572 2.35305C24.8097 1.64665 24.2723 1.05193 23.6057 0.636089C22.9391 0.220252 22.17 -0.00012207 21.3852 -0.00012207C20.6005 -0.00012207 19.8314 0.220252 19.1648 0.636089C18.4982 1.05193 17.9608 1.64665 17.6133 2.35305L13.2832 11.1593L3.61523 12.5741C2.8382 12.6861 2.1079 13.0141 1.50688 13.5211C0.90587 14.0281 0.458127 14.6938 0.214284 15.4429C-0.029559 16.192 -0.0597757 16.9947 0.127051 17.7601C0.313877 18.5256 0.710294 19.2233 1.27148 19.7744L8.27929 26.6306L6.62402 36.3104C6.49206 37.0868 6.57895 37.8847 6.87487 38.6141C7.1708 39.3435 7.66397 39.9753 8.29869 40.4382C8.93341 40.9011 9.68439 41.1765 10.4668 41.2335C11.2493 41.2905 12.032 41.1267 12.7266 40.7606L21.3838 36.1927L28.6289 40.0164L27.2695 47.9726C27.1249 48.8327 27.2224 49.7163 27.5511 50.5237C27.8798 51.3311 28.4266 52.0303 29.1298 52.5425C29.8331 53.0546 30.6648 53.3594 31.5313 53.4225C32.3979 53.4855 33.2647 53.3043 34.0342 52.8993L44.7773 47.2285C44.8162 47.2081 44.8594 47.1975 44.9033 47.1975C44.9472 47.1975 44.9904 47.2081 45.0293 47.2285L54.835 52.4111L53.0771 62.7056C52.9096 63.6926 53.0201 64.7069 53.3963 65.6342C53.7725 66.5614 54.3994 67.3646 55.2061 67.9531C56.0129 68.5416 56.9675 68.892 57.9621 68.9647C58.9567 69.0375 59.9518 68.8296 60.8349 68.3647L70.8926 63.0556C71.4081 62.7826 71.7945 62.3152 71.9668 61.7561C72.139 61.1971 72.083 60.5922 71.811 60.0746C71.5391 59.557 71.0735 59.1691 70.5166 58.9962C69.9598 58.8233 69.3573 58.8795 68.8418 59.1525L58.7842 64.4469C58.6269 64.5316 58.449 64.57 58.271 64.5578C58.0929 64.5457 57.9219 64.4833 57.7775 64.378C57.6331 64.2727 57.5213 64.1286 57.4547 63.9623C57.3882 63.7961 57.3697 63.6143 57.4014 63.438L59.9531 48.4962C60.3281 46.3049 59.792 44.6313 58.4883 43.3519L47.3935 32.5132C47.2646 32.3891 47.1731 32.2309 47.1297 32.057C47.0862 31.883 47.0926 31.7003 47.148 31.5297C47.2034 31.3592 47.3055 31.2079 47.4428 31.0931C47.58 30.9783 47.7468 30.9047 47.9238 30.8807L63.2607 28.6424C64.1189 28.5165 64.9338 28.1829 65.635 27.6705C66.3363 27.1581 66.9029 26.4823 67.2861 25.7011L74.1445 11.7476C74.2231 11.5875 74.3448 11.4528 74.4957 11.3585C74.6466 11.2643 74.8208 11.2143 74.9985 11.2143C75.1763 11.2143 75.3504 11.2643 75.5014 11.3585C75.6523 11.4528 75.7739 11.5875 75.8525 11.7476L82.7109 25.7011C83.0944 26.4826 83.6615 27.1588 84.3633 27.6712C85.0651 28.1836 85.8805 28.5169 86.7393 28.6424L102.076 30.8807C102.252 30.9062 102.418 30.9807 102.554 31.0958C102.69 31.2109 102.791 31.362 102.846 31.532C102.901 31.702 102.908 31.884 102.865 32.0575C102.822 32.2309 102.731 32.3888 102.604 32.5132L91.5059 43.3724C90.8845 43.9799 90.4198 44.7301 90.1519 45.5582C89.8839 46.3863 89.8207 47.2675 89.9678 48.1256C91.1748 55.1847 91.3447 56.1906 92.5869 63.4615C92.6179 63.6377 92.5989 63.819 92.5321 63.9848C92.4653 64.1505 92.3534 64.2941 92.2091 64.399C92.0649 64.504 91.8941 64.566 91.7164 64.5781C91.5387 64.5902 91.3611 64.5519 91.2041 64.4675L81.1494 59.1731C80.8941 59.0379 80.6148 58.9545 80.3275 58.9277C80.0401 58.9009 79.7503 58.9312 79.4746 59.0168C79.1988 59.1024 78.9426 59.2417 78.7205 59.4268C78.4984 59.6118 78.3148 59.8389 78.1802 60.0952C78.0455 60.3515 77.9625 60.6319 77.9357 60.9204C77.909 61.2089 77.9392 61.4999 78.0244 61.7767C78.1097 62.0535 78.2485 62.3108 78.4328 62.5337C78.6171 62.7567 78.8434 62.941 79.0986 63.0762L89.1533 68.3853C90.0364 68.8514 91.0318 69.0602 92.0269 68.988C93.022 68.9158 93.9771 68.5655 94.7843 67.9767C95.5914 67.3879 96.2184 66.5841 96.5942 65.6563C96.9701 64.7284 97.0799 63.7135 96.9111 62.7262L95.1533 52.4317L104.962 47.2579C105 47.2363 105.043 47.2249 105.086 47.2249C105.13 47.2249 105.173 47.2363 105.211 47.2579L115.96 52.8993C116.73 53.3055 117.599 53.4874 118.467 53.4243C119.335 53.3613 120.168 53.0558 120.872 52.5425C121.576 52.0292 122.123 51.3284 122.452 50.5193C122.78 49.7102 122.877 48.8251 122.73 47.9638L121.371 40.0076L128.613 36.1839L137.27 40.7547C137.965 41.121 138.748 41.2849 139.531 41.2279C140.314 41.1708 141.065 40.8951 141.7 40.4318C142.335 39.9686 142.828 39.3363 143.124 38.6064C143.419 37.8765 143.506 37.0782 143.373 36.3016L142.494 31.169C142.451 30.8786 142.35 30.5999 142.198 30.3492C142.046 30.0984 141.845 29.8807 141.608 29.7087C141.371 29.5367 141.102 29.414 140.817 29.3477C140.533 29.2814 140.237 29.2729 139.949 29.3226C139.661 29.3723 139.385 29.4793 139.139 29.6373C138.892 29.7953 138.68 30.0011 138.514 30.2426C138.347 30.4842 138.231 30.7566 138.171 31.044C138.111 31.3313 138.108 31.6278 138.164 31.9161L138.976 36.6692L130.567 32.2337C129.964 31.9151 129.292 31.7485 128.61 31.7485C127.928 31.7485 127.257 31.9151 126.653 32.2337L121.562 34.9191L129.445 27.2041C130.068 26.5937 130.508 25.8207 130.716 24.9723C130.924 24.124 130.892 23.2341 130.623 22.4033C130.354 21.5724 129.859 20.8336 129.194 20.2703C128.528 19.707 127.719 19.3417 126.858 19.2155L114.847 17.4655C114.803 17.4591 114.762 17.442 114.727 17.4159C114.692 17.3897 114.663 17.3552 114.645 17.3155L114.255 16.5242L121.239 15.5066C121.915 15.4082 122.557 15.1461 123.109 14.7428C123.662 14.3394 124.108 13.8071 124.409 13.1917L128.613 4.66197L132.817 13.1917C133.118 13.8087 133.563 14.3428 134.116 14.7478C134.668 15.1527 135.311 15.4162 135.987 15.5154L145.389 16.886L142.04 20.1597C141.631 20.5698 141.399 21.1254 141.395 21.7059C141.391 22.2865 141.615 22.8451 142.019 23.2608C142.423 23.6765 142.973 23.9157 143.551 23.9265C144.13 23.9374 144.689 23.7189 145.107 23.3187L148.729 19.7891C149.291 19.2381 149.688 18.5402 149.875 17.7743C150.062 17.0084 150.032 16.2052 149.788 15.4555C149.545 14.7059 149.096 14.0397 148.495 13.5326C147.893 13.0254 147.162 12.6974 146.385 12.5858L136.717 11.174L132.384 2.35599C132.037 1.64947 131.5 1.05455 130.833 0.638557C130.167 0.222564 129.398 0.00209504 128.613 0.00209504C127.829 0.00209504 127.06 0.222564 126.393 0.638557C125.727 1.05455 125.19 1.64947 124.843 2.35599L120.513 11.1623L112.213 12.3741L109.283 6.39734C108.898 5.61399 108.302 4.95446 107.563 4.4933C106.824 4.03214 105.971 3.78775 105.101 3.78775C104.231 3.78775 103.378 4.03214 102.639 4.4933C101.9 4.95446 101.304 5.61399 100.919 6.39734L95.5459 17.3243C95.5271 17.364 95.4988 17.3985 95.4635 17.4247C95.4283 17.4509 95.3871 17.4679 95.3437 17.4743L84.3545 19.0744L79.7959 9.80337C79.3539 8.90538 78.6705 8.14939 77.823 7.62081C76.9755 7.09223 75.9977 6.81211 75 6.81211C74.0023 6.81211 73.0245 7.09223 72.177 7.62081C71.3295 8.14939 70.6461 8.90538 70.2041 9.80337L65.6455 19.0744L54.665 17.4743C54.6216 17.4679 54.5805 17.4509 54.5452 17.4247C54.51 17.3985 54.4817 17.364 54.4629 17.3243L49.0898 6.39734C48.7041 5.61412 48.108 4.95477 47.3687 4.49377C46.6294 4.03276 45.7765 3.78847 44.9062 3.78847C44.036 3.78847 43.183 4.03276 42.4438 4.49377C41.7045 4.95477 41.1084 5.61412 40.7226 6.39734V6.3944ZM95.9648 21.8392C96.7138 21.7303 97.4252 21.4402 98.0376 20.9939C98.6501 20.5476 99.1453 19.9585 99.4805 19.2773L104.854 8.34742C104.873 8.30012 104.906 8.26011 104.949 8.23315C104.992 8.2062 105.043 8.19369 105.094 8.19742C105.145 8.19395 105.196 8.20653 105.239 8.23342C105.283 8.2603 105.317 8.30015 105.337 8.34742C111.053 19.9744 110.733 19.3361 110.845 19.5244C111.196 20.141 111.682 20.6694 112.267 21.0694C112.852 21.4695 113.52 21.7307 114.22 21.8333L126.231 23.5834C126.282 23.5897 126.33 23.6103 126.369 23.6429C126.409 23.6755 126.438 23.7186 126.454 23.7673C126.47 23.816 126.472 23.8682 126.46 23.9179C126.447 23.9677 126.421 24.0128 126.384 24.0481L117.691 32.5543C117.15 33.0854 116.746 33.7408 116.514 34.4639C116.281 35.187 116.228 35.9561 116.358 36.7045L118.409 48.7168C118.421 48.7664 118.418 48.8187 118.399 48.8662C118.38 48.9137 118.347 48.954 118.304 48.9815C118.263 49.0153 118.213 49.0354 118.161 49.0391C118.108 49.0428 118.056 49.0299 118.011 49.0021L107.276 43.3313C106.607 42.9778 105.862 42.7931 105.105 42.7931C104.349 42.7931 103.604 42.9778 102.935 43.3313L94.3857 47.8403C94.3284 47.6134 94.2989 47.3803 94.2978 47.1461C94.3153 46.9116 94.4199 46.6922 94.5908 46.5314L105.688 35.6721C106.403 34.9725 106.908 34.0863 107.147 33.1136C107.386 32.1409 107.349 31.1205 107.041 30.1677C106.732 29.2149 106.164 28.3677 105.402 27.7219C104.639 27.076 103.711 26.6573 102.724 26.5129L87.3896 24.2775C86.8037 24.1922 86.666 23.7422 86.4141 23.2334L95.9648 21.8392ZM23.3437 32.2396C22.7402 31.9209 22.0686 31.7544 21.3867 31.7544C20.7048 31.7544 20.0332 31.9209 19.4297 32.2396L11.0215 36.678L12.6269 27.2659C12.7412 26.591 12.6908 25.8983 12.4801 25.2472C12.2694 24.5961 11.9046 24.0061 11.417 23.5275L4.61425 16.8831L14.0156 15.5124C14.6912 15.4119 15.3323 15.1481 15.884 14.7439C16.4356 14.3397 16.8812 13.807 17.1826 13.1917L21.3867 4.66197L25.5908 13.1917C25.8916 13.808 26.3375 14.3414 26.8898 14.7458C27.4422 15.1501 28.0843 15.4133 28.7607 15.5124L35.7451 16.5301L35.3555 17.3243C35.3356 17.3636 35.3066 17.3974 35.2709 17.423C35.2352 17.4487 35.1938 17.4652 35.1504 17.4713L23.1387 19.2361C22.2804 19.3648 21.4749 19.7311 20.8126 20.294C20.1503 20.8569 19.6574 21.594 19.3893 22.4226C19.1212 23.2512 19.0885 24.1384 19.2949 24.9846C19.5013 25.8308 19.9385 26.6025 20.5576 27.2129L28.4355 34.928L23.3437 32.2396ZM45.1494 8.34742L50.5195 19.2773C50.8547 19.9583 51.3499 20.5471 51.9624 20.9929C52.5749 21.4387 53.2863 21.7282 54.0351 21.8362L63.6035 23.2334L63.3486 23.754C63.2797 23.8927 63.1785 24.0127 63.0535 24.1039C62.9286 24.195 62.7836 24.2546 62.6309 24.2775L47.2939 26.5129C42.9375 27.1482 41.1416 32.5485 44.3291 35.6692L55.4209 46.5314C55.5406 46.6487 55.6279 46.7953 55.6742 46.9567C55.7204 47.1181 55.724 47.2888 55.6846 47.452L55.6172 47.8403L47.0742 43.3313C46.4047 42.9778 45.6597 42.7931 44.9033 42.7931C44.1469 42.7931 43.4019 42.9778 42.7324 43.3313L31.9834 49.0021C31.9381 49.0269 31.8867 49.0381 31.8353 49.0344C31.7838 49.0308 31.7345 49.0123 31.6932 48.9814C31.6519 48.9504 31.6203 48.9082 31.6021 48.8597C31.584 48.8113 31.58 48.7586 31.5908 48.708L33.6416 36.6986C33.7706 35.9504 33.7158 35.1818 33.482 34.4596C33.2481 33.7375 32.8424 33.0834 32.2998 32.5543L23.6191 24.054C23.5822 24.0189 23.5559 23.974 23.5433 23.9245C23.5307 23.875 23.5323 23.8229 23.5479 23.7743C23.5635 23.7257 23.5926 23.6825 23.6316 23.6498C23.6706 23.617 23.7181 23.5961 23.7685 23.5893L35.7803 21.8245C36.5294 21.7161 37.241 21.4262 37.8535 20.9799C38.4661 20.5335 38.9611 19.9441 39.2959 19.2626L44.666 8.33566C44.6887 8.2905 44.7235 8.25256 44.7664 8.22605C44.8094 8.19955 44.8588 8.18551 44.9092 8.18551C44.9596 8.18551 45.009 8.19955 45.0519 8.22605C45.0948 8.25256 45.1296 8.2905 45.1523 8.33566L45.1494 8.34742Z"/>
</mask>
<path d="M40.7226 6.3944L37.793 12.3711L29.4932 11.1593L25.1572 2.35305C24.8097 1.64665 24.2723 1.05193 23.6057 0.636089C22.9391 0.220252 22.17 -0.00012207 21.3852 -0.00012207C20.6005 -0.00012207 19.8314 0.220252 19.1648 0.636089C18.4982 1.05193 17.9608 1.64665 17.6133 2.35305L13.2832 11.1593L3.61523 12.5741C2.8382 12.6861 2.1079 13.0141 1.50688 13.5211C0.90587 14.0281 0.458127 14.6938 0.214284 15.4429C-0.029559 16.192 -0.0597757 16.9947 0.127051 17.7601C0.313877 18.5256 0.710294 19.2233 1.27148 19.7744L8.27929 26.6306L6.62402 36.3104C6.49206 37.0868 6.57895 37.8847 6.87487 38.6141C7.1708 39.3435 7.66397 39.9753 8.29869 40.4382C8.93341 40.9011 9.68439 41.1765 10.4668 41.2335C11.2493 41.2905 12.032 41.1267 12.7266 40.7606L21.3838 36.1927L28.6289 40.0164L27.2695 47.9726C27.1249 48.8327 27.2224 49.7163 27.5511 50.5237C27.8798 51.3311 28.4266 52.0303 29.1298 52.5425C29.8331 53.0546 30.6648 53.3594 31.5313 53.4225C32.3979 53.4855 33.2647 53.3043 34.0342 52.8993L44.7773 47.2285C44.8162 47.2081 44.8594 47.1975 44.9033 47.1975C44.9472 47.1975 44.9904 47.2081 45.0293 47.2285L54.835 52.4111L53.0771 62.7056C52.9096 63.6926 53.0201 64.7069 53.3963 65.6342C53.7725 66.5614 54.3994 67.3646 55.2061 67.9531C56.0129 68.5416 56.9675 68.892 57.9621 68.9647C58.9567 69.0375 59.9518 68.8296 60.8349 68.3647L70.8926 63.0556C71.4081 62.7826 71.7945 62.3152 71.9668 61.7561C72.139 61.1971 72.083 60.5922 71.811 60.0746C71.5391 59.557 71.0735 59.1691 70.5166 58.9962C69.9598 58.8233 69.3573 58.8795 68.8418 59.1525L58.7842 64.4469C58.6269 64.5316 58.449 64.57 58.271 64.5578C58.0929 64.5457 57.9219 64.4833 57.7775 64.378C57.6331 64.2727 57.5213 64.1286 57.4547 63.9623C57.3882 63.7961 57.3697 63.6143 57.4014 63.438L59.9531 48.4962C60.3281 46.3049 59.792 44.6313 58.4883 43.3519L47.3935 32.5132C47.2646 32.3891 47.1731 32.2309 47.1297 32.057C47.0862 31.883 47.0926 31.7003 47.148 31.5297C47.2034 31.3592 47.3055 31.2079 47.4428 31.0931C47.58 30.9783 47.7468 30.9047 47.9238 30.8807L63.2607 28.6424C64.1189 28.5165 64.9338 28.1829 65.635 27.6705C66.3363 27.1581 66.9029 26.4823 67.2861 25.7011L74.1445 11.7476C74.2231 11.5875 74.3448 11.4528 74.4957 11.3585C74.6466 11.2643 74.8208 11.2143 74.9985 11.2143C75.1763 11.2143 75.3504 11.2643 75.5014 11.3585C75.6523 11.4528 75.7739 11.5875 75.8525 11.7476L82.7109 25.7011C83.0944 26.4826 83.6615 27.1588 84.3633 27.6712C85.0651 28.1836 85.8805 28.5169 86.7393 28.6424L102.076 30.8807C102.252 30.9062 102.418 30.9807 102.554 31.0958C102.69 31.2109 102.791 31.362 102.846 31.532C102.901 31.702 102.908 31.884 102.865 32.0575C102.822 32.2309 102.731 32.3888 102.604 32.5132L91.5059 43.3724C90.8845 43.9799 90.4198 44.7301 90.1519 45.5582C89.8839 46.3863 89.8207 47.2675 89.9678 48.1256C91.1748 55.1847 91.3447 56.1906 92.5869 63.4615C92.6179 63.6377 92.5989 63.819 92.5321 63.9848C92.4653 64.1505 92.3534 64.2941 92.2091 64.399C92.0649 64.504 91.8941 64.566 91.7164 64.5781C91.5387 64.5902 91.3611 64.5519 91.2041 64.4675L81.1494 59.1731C80.8941 59.0379 80.6148 58.9545 80.3275 58.9277C80.0401 58.9009 79.7503 58.9312 79.4746 59.0168C79.1988 59.1024 78.9426 59.2417 78.7205 59.4268C78.4984 59.6118 78.3148 59.8389 78.1802 60.0952C78.0455 60.3515 77.9625 60.6319 77.9357 60.9204C77.909 61.2089 77.9392 61.4999 78.0244 61.7767C78.1097 62.0535 78.2485 62.3108 78.4328 62.5337C78.6171 62.7567 78.8434 62.941 79.0986 63.0762L89.1533 68.3853C90.0364 68.8514 91.0318 69.0602 92.0269 68.988C93.022 68.9158 93.9771 68.5655 94.7843 67.9767C95.5914 67.3879 96.2184 66.5841 96.5942 65.6563C96.9701 64.7284 97.0799 63.7135 96.9111 62.7262L95.1533 52.4317L104.962 47.2579C105 47.2363 105.043 47.2249 105.086 47.2249C105.13 47.2249 105.173 47.2363 105.211 47.2579L115.96 52.8993C116.73 53.3055 117.599 53.4874 118.467 53.4243C119.335 53.3613 120.168 53.0558 120.872 52.5425C121.576 52.0292 122.123 51.3284 122.452 50.5193C122.78 49.7102 122.877 48.8251 122.73 47.9638L121.371 40.0076L128.613 36.1839L137.27 40.7547C137.965 41.121 138.748 41.2849 139.531 41.2279C140.314 41.1708 141.065 40.8951 141.7 40.4318C142.335 39.9686 142.828 39.3363 143.124 38.6064C143.419 37.8765 143.506 37.0782 143.373 36.3016L142.494 31.169C142.451 30.8786 142.35 30.5999 142.198 30.3492C142.046 30.0984 141.845 29.8807 141.608 29.7087C141.371 29.5367 141.102 29.414 140.817 29.3477C140.533 29.2814 140.237 29.2729 139.949 29.3226C139.661 29.3723 139.385 29.4793 139.139 29.6373C138.892 29.7953 138.68 30.0011 138.514 30.2426C138.347 30.4842 138.231 30.7566 138.171 31.044C138.111 31.3313 138.108 31.6278 138.164 31.9161L138.976 36.6692L130.567 32.2337C129.964 31.9151 129.292 31.7485 128.61 31.7485C127.928 31.7485 127.257 31.9151 126.653 32.2337L121.562 34.9191L129.445 27.2041C130.068 26.5937 130.508 25.8207 130.716 24.9723C130.924 24.124 130.892 23.2341 130.623 22.4033C130.354 21.5724 129.859 20.8336 129.194 20.2703C128.528 19.707 127.719 19.3417 126.858 19.2155L114.847 17.4655C114.803 17.4591 114.762 17.442 114.727 17.4159C114.692 17.3897 114.663 17.3552 114.645 17.3155L114.255 16.5242L121.239 15.5066C121.915 15.4082 122.557 15.1461 123.109 14.7428C123.662 14.3394 124.108 13.8071 124.409 13.1917L128.613 4.66197L132.817 13.1917C133.118 13.8087 133.563 14.3428 134.116 14.7478C134.668 15.1527 135.311 15.4162 135.987 15.5154L145.389 16.886L142.04 20.1597C141.631 20.5698 141.399 21.1254 141.395 21.7059C141.391 22.2865 141.615 22.8451 142.019 23.2608C142.423 23.6765 142.973 23.9157 143.551 23.9265C144.13 23.9374 144.689 23.7189 145.107 23.3187L148.729 19.7891C149.291 19.2381 149.688 18.5402 149.875 17.7743C150.062 17.0084 150.032 16.2052 149.788 15.4555C149.545 14.7059 149.096 14.0397 148.495 13.5326C147.893 13.0254 147.162 12.6974 146.385 12.5858L136.717 11.174L132.384 2.35599C132.037 1.64947 131.5 1.05455 130.833 0.638557C130.167 0.222564 129.398 0.00209504 128.613 0.00209504C127.829 0.00209504 127.06 0.222564 126.393 0.638557C125.727 1.05455 125.19 1.64947 124.843 2.35599L120.513 11.1623L112.213 12.3741L109.283 6.39734C108.898 5.61399 108.302 4.95446 107.563 4.4933C106.824 4.03214 105.971 3.78775 105.101 3.78775C104.231 3.78775 103.378 4.03214 102.639 4.4933C101.9 4.95446 101.304 5.61399 100.919 6.39734L95.5459 17.3243C95.5271 17.364 95.4988 17.3985 95.4635 17.4247C95.4283 17.4509 95.3871 17.4679 95.3437 17.4743L84.3545 19.0744L79.7959 9.80337C79.3539 8.90538 78.6705 8.14939 77.823 7.62081C76.9755 7.09223 75.9977 6.81211 75 6.81211C74.0023 6.81211 73.0245 7.09223 72.177 7.62081C71.3295 8.14939 70.6461 8.90538 70.2041 9.80337L65.6455 19.0744L54.665 17.4743C54.6216 17.4679 54.5805 17.4509 54.5452 17.4247C54.51 17.3985 54.4817 17.364 54.4629 17.3243L49.0898 6.39734C48.7041 5.61412 48.108 4.95477 47.3687 4.49377C46.6294 4.03276 45.7765 3.78847 44.9062 3.78847C44.036 3.78847 43.183 4.03276 42.4438 4.49377C41.7045 4.95477 41.1084 5.61412 40.7226 6.39734V6.3944ZM95.9648 21.8392C96.7138 21.7303 97.4252 21.4402 98.0376 20.9939C98.6501 20.5476 99.1453 19.9585 99.4805 19.2773L104.854 8.34742C104.873 8.30012 104.906 8.26011 104.949 8.23315C104.992 8.2062 105.043 8.19369 105.094 8.19742C105.145 8.19395 105.196 8.20653 105.239 8.23342C105.283 8.2603 105.317 8.30015 105.337 8.34742C111.053 19.9744 110.733 19.3361 110.845 19.5244C111.196 20.141 111.682 20.6694 112.267 21.0694C112.852 21.4695 113.52 21.7307 114.22 21.8333L126.231 23.5834C126.282 23.5897 126.33 23.6103 126.369 23.6429C126.409 23.6755 126.438 23.7186 126.454 23.7673C126.47 23.816 126.472 23.8682 126.46 23.9179C126.447 23.9677 126.421 24.0128 126.384 24.0481L117.691 32.5543C117.15 33.0854 116.746 33.7408 116.514 34.4639C116.281 35.187 116.228 35.9561 116.358 36.7045L118.409 48.7168C118.421 48.7664 118.418 48.8187 118.399 48.8662C118.38 48.9137 118.347 48.954 118.304 48.9815C118.263 49.0153 118.213 49.0354 118.161 49.0391C118.108 49.0428 118.056 49.0299 118.011 49.0021L107.276 43.3313C106.607 42.9778 105.862 42.7931 105.105 42.7931C104.349 42.7931 103.604 42.9778 102.935 43.3313L94.3857 47.8403C94.3284 47.6134 94.2989 47.3803 94.2978 47.1461C94.3153 46.9116 94.4199 46.6922 94.5908 46.5314L105.688 35.6721C106.403 34.9725 106.908 34.0863 107.147 33.1136C107.386 32.1409 107.349 31.1205 107.041 30.1677C106.732 29.2149 106.164 28.3677 105.402 27.7219C104.639 27.076 103.711 26.6573 102.724 26.5129L87.3896 24.2775C86.8037 24.1922 86.666 23.7422 86.4141 23.2334L95.9648 21.8392ZM23.3437 32.2396C22.7402 31.9209 22.0686 31.7544 21.3867 31.7544C20.7048 31.7544 20.0332 31.9209 19.4297 32.2396L11.0215 36.678L12.6269 27.2659C12.7412 26.591 12.6908 25.8983 12.4801 25.2472C12.2694 24.5961 11.9046 24.0061 11.417 23.5275L4.61425 16.8831L14.0156 15.5124C14.6912 15.4119 15.3323 15.1481 15.884 14.7439C16.4356 14.3397 16.8812 13.807 17.1826 13.1917L21.3867 4.66197L25.5908 13.1917C25.8916 13.808 26.3375 14.3414 26.8898 14.7458C27.4422 15.1501 28.0843 15.4133 28.7607 15.5124L35.7451 16.5301L35.3555 17.3243C35.3356 17.3636 35.3066 17.3974 35.2709 17.423C35.2352 17.4487 35.1938 17.4652 35.1504 17.4713L23.1387 19.2361C22.2804 19.3648 21.4749 19.7311 20.8126 20.294C20.1503 20.8569 19.6574 21.594 19.3893 22.4226C19.1212 23.2512 19.0885 24.1384 19.2949 24.9846C19.5013 25.8308 19.9385 26.6025 20.5576 27.2129L28.4355 34.928L23.3437 32.2396ZM45.1494 8.34742L50.5195 19.2773C50.8547 19.9583 51.3499 20.5471 51.9624 20.9929C52.5749 21.4387 53.2863 21.7282 54.0351 21.8362L63.6035 23.2334L63.3486 23.754C63.2797 23.8927 63.1785 24.0127 63.0535 24.1039C62.9286 24.195 62.7836 24.2546 62.6309 24.2775L47.2939 26.5129C42.9375 27.1482 41.1416 32.5485 44.3291 35.6692L55.4209 46.5314C55.5406 46.6487 55.6279 46.7953 55.6742 46.9567C55.7204 47.1181 55.724 47.2888 55.6846 47.452L55.6172 47.8403L47.0742 43.3313C46.4047 42.9778 45.6597 42.7931 44.9033 42.7931C44.1469 42.7931 43.4019 42.9778 42.7324 43.3313L31.9834 49.0021C31.9381 49.0269 31.8867 49.0381 31.8353 49.0344C31.7838 49.0308 31.7345 49.0123 31.6932 48.9814C31.6519 48.9504 31.6203 48.9082 31.6021 48.8597C31.584 48.8113 31.58 48.7586 31.5908 48.708L33.6416 36.6986C33.7706 35.9504 33.7158 35.1818 33.482 34.4596C33.2481 33.7375 32.8424 33.0834 32.2998 32.5543L23.6191 24.054C23.5822 24.0189 23.5559 23.974 23.5433 23.9245C23.5307 23.875 23.5323 23.8229 23.5479 23.7743C23.5635 23.7257 23.5926 23.6825 23.6316 23.6498C23.6706 23.617 23.7181 23.5961 23.7685 23.5893L35.7803 21.8245C36.5294 21.7161 37.241 21.4262 37.8535 20.9799C38.4661 20.5335 38.9611 19.9441 39.2959 19.2626L44.666 8.33566C44.6887 8.2905 44.7235 8.25256 44.7664 8.22605C44.8094 8.19955 44.8588 8.18551 44.9092 8.18551C44.9596 8.18551 45.009 8.19955 45.0519 8.22605C45.0948 8.25256 45.1296 8.2905 45.1523 8.33566L45.1494 8.34742Z" fill="#EA3637" stroke="white" stroke-width="0.4" mask="url(#path-1-inside-1_2203_1206)"/>
<path d="M69.2344 61.4497L74.6367 58.8025C74.7552 58.7456 74.8848 58.7161 75.0161 58.7161C75.1474 58.7161 75.2771 58.7456 75.3955 58.8025L81.167 61.6027" stroke="#EA3637" stroke-width="4.9252" stroke-miterlimit="10"/>
<path d="M140.833 34.5015L139.143 25.8041C139.104 25.6193 139.116 25.4273 139.178 25.249C139.24 25.0706 139.349 24.9127 139.494 24.7923L146.927 18.4391" stroke="#EA3637" stroke-width="4.9252" stroke-miterlimit="10"/>
</g>
<defs>
<clipPath id="clip0_2203_1206">
<rect width="150" height="69" fill="white"/>
</clipPath>
</defs>
</svg>
