<svg width="80" height="80" viewBox="0 0 80 80" fill="none" xmlns="http://www.w3.org/2000/svg">
<g clip-path="url(#clip0_2203_1170)">
<path d="M64.694 23.3859L51.4864 21.4667L45.5797 9.49858C43.2983 4.87561 36.7012 4.87702 34.4206 9.49842L28.5139 21.4665L15.3062 23.3859C10.2042 24.1272 8.16764 30.4014 11.858 33.9989L21.4151 43.3148L19.159 56.4687C18.2876 61.5501 23.625 65.4258 28.187 63.0281L40.0003 56.8172L51.8137 63.0281C56.3694 65.423 61.713 61.5494 60.8417 56.4687L58.5856 43.3147L68.143 33.9987C71.8339 30.4 69.7939 24.127 64.694 23.3859ZM64.4197 30.1798L53.8586 40.4742C53.2301 41.0869 52.9434 41.9695 53.0917 42.8345L55.5848 57.3706C55.71 58.1006 54.9505 58.6519 54.2951 58.3076L41.2409 51.4447C40.4642 51.0364 39.5359 51.0364 38.7592 51.4447L25.705 58.3076C25.0494 58.6522 24.2901 58.1005 24.4153 57.3706L26.9084 42.8345C27.0567 41.9695 26.77 41.0869 26.1415 40.4742L15.5805 30.1798C15.05 29.6628 15.3401 28.7703 16.0731 28.6636L30.6681 26.5428C31.5365 26.4165 32.2875 25.8712 32.6759 25.0842L39.2031 11.8587C39.5308 11.195 40.4694 11.1945 40.7972 11.8589L47.3244 25.0842C47.7128 25.8712 48.4637 26.4167 49.3322 26.5428L63.9272 28.6636C64.66 28.7703 64.95 29.663 64.4197 30.1798Z" fill="#EA3637"/>
<path d="M21.0517 7.3675L17.8625 2.97797C16.9966 1.78672 15.3291 1.52234 14.1378 2.38828C12.9464 3.25391 12.6822 4.92156 13.548 6.11297L16.7372 10.5023C17.6035 11.6942 19.271 11.9575 20.4619 11.092C21.6533 10.2266 21.9175 8.55891 21.0517 7.3675Z" fill="#EA3637"/>
<path d="M10.4683 46.7042C10.0135 45.3038 8.50911 44.5366 7.10817 44.9922L1.84317 46.703C0.442543 47.1581 -0.323863 48.6624 0.131137 50.0631C0.586918 51.4661 2.09379 52.2299 3.49129 51.7752L8.75629 50.0644C10.1571 49.6092 10.9235 48.1049 10.4683 46.7042Z" fill="#EA3637"/>
<path d="M65.8624 2.38843C64.6711 1.52281 63.0034 1.78672 62.1377 2.97812L58.9484 7.3675C58.0827 8.5589 58.3469 10.2267 59.5383 11.0922C60.7302 11.9581 62.3977 11.6934 63.263 10.5025L66.4522 6.11312C67.3178 4.92172 67.0538 3.2539 65.8624 2.38843Z" fill="#EA3637"/>
<path d="M78.1567 46.703L72.8917 44.9922C71.4911 44.5362 69.9867 45.3036 69.5315 46.7042C69.0764 48.1048 69.8428 49.6094 71.2436 50.0644L76.5086 51.7751C77.9062 52.2297 79.4129 51.4659 79.8687 50.0631C80.3239 48.6625 79.5573 47.1581 78.1567 46.703Z" fill="#EA3637"/>
<path d="M40 67.3758C38.5273 67.3758 37.3334 68.5697 37.3334 70.0423V75.4545C37.3334 76.9272 38.5273 78.1211 40 78.1211C41.4727 78.1211 42.6666 76.9272 42.6666 75.4545V70.0423C42.6667 68.5695 41.4728 67.3758 40 67.3758Z" fill="#EA3637"/>
</g>
<defs>
<clipPath id="clip0_2203_1170">
<rect width="80" height="80" fill="white"/>
</clipPath>
</defs>
</svg>
