<svg width="87" height="65" viewBox="0 0 87 65" fill="none" xmlns="http://www.w3.org/2000/svg">
<path d="M84.2368 2.59952C84.194 1.75622 83.498 1.08765 82.6458 1.08765H4.26929C3.41702 1.08765 2.72107 1.75622 2.67826 2.59952C2.67627 2.6269 2.67627 2.65378 2.67627 2.68116V63.2143C2.67627 64.0945 3.39014 64.8084 4.26929 64.8084H82.6458C83.5249 64.8084 84.2388 64.0945 84.2388 63.2143V2.68116C84.2388 2.65378 84.2388 2.6269 84.2368 2.59952ZM81.0527 61.6208H5.8623V14.7916H81.0527V61.6208ZM81.0527 11.6046H5.8623V4.25526H81.0527V11.6046Z" fill="white"/>
<path d="M29.9169 9.63307H17.1727C16.2926 9.63307 15.5797 8.9197 15.5797 8.04005C15.5797 7.15941 16.2926 6.44653 17.1727 6.44653H29.9169C30.797 6.44653 31.5099 7.15941 31.5099 8.04005C31.5099 8.9197 30.797 9.63307 29.9169 9.63307Z" fill="white"/>
<path d="M10.8037 9.63307C9.92401 9.63307 9.21014 8.9197 9.21014 8.04005C9.21014 7.15941 9.92252 6.44653 10.8027 6.44653H10.8037C11.6838 6.44653 12.3967 7.15941 12.3967 8.04005C12.3967 8.9197 11.6838 9.63307 10.8037 9.63307Z" fill="white"/>
<path d="M74.9993 30.213H11.9158C11.0356 30.213 10.3228 29.4996 10.3228 28.6195V20.6519C10.3228 19.7717 11.0356 19.0588 11.9158 19.0588H74.9993C75.8794 19.0588 76.5923 19.7717 76.5923 20.6519V28.6195C76.5923 29.4991 75.8794 30.213 74.9993 30.213ZM13.5088 27.0254H73.4062V22.2454H13.5088V27.0254Z" fill="white"/>
<path d="M34.5286 34.522C34.5286 33.73 33.6978 33.0813 32.9436 33.0813H11.9158C11.0615 33.0813 10.3228 33.8201 10.3228 34.6753V55.7091C10.3228 56.5698 11.0595 57.3026 11.9158 57.3026H32.9436C33.8023 57.3026 34.5366 56.5733 34.5366 55.7091V34.6753C34.5341 34.624 34.5316 34.5733 34.5286 34.522C34.5286 34.5095 34.5346 34.5733 34.5286 34.522ZM29.098 36.2688L22.4297 42.9391L15.7614 36.2688H29.098ZM13.5088 38.5214L20.1771 45.1922L13.5088 51.8625V38.5214ZM15.7614 54.1156L22.4297 47.4453L29.098 54.1156H15.7614ZM31.3506 51.8625L24.6823 45.1922L31.3506 38.5214V51.8625Z" fill="white"/>
<path d="M74.9888 57.3021H40.261C39.3809 57.3021 38.668 56.5892 38.668 55.7086V34.6743C38.668 33.7947 39.3809 33.0808 40.261 33.0808H74.9888C75.8684 33.0808 76.5818 33.7947 76.5818 34.6743V55.7086C76.5818 56.5882 75.8684 57.3021 74.9888 57.3021ZM41.8541 54.1156H73.3958V36.2683H41.8541V54.1156Z" fill="white"/>
</svg>
