<svg width="65" height="65" viewBox="0 0 65 65" fill="none" xmlns="http://www.w3.org/2000/svg">
<g clip-path="url(#clip0_2289_549)">
<path d="M37.0951 45.3344C37.2036 45.2011 37.3084 45.0657 37.4121 44.9319L37.4442 44.8904L37.4449 44.8895C37.4908 44.8296 37.5433 44.7645 37.5978 44.697C37.6333 44.6531 37.6696 44.6081 37.7054 44.563L46.7788 53.6473L46.7795 53.6481C47.3531 54.2162 47.6761 54.9903 47.6761 55.7975C47.6761 56.6047 47.3536 57.3778 46.7805 57.9464C45.5793 59.1066 43.6751 59.1068 42.4737 57.9468C42.4734 57.9465 42.473 57.9461 42.4726 57.9457L33.3893 48.8785C33.4354 48.8421 33.4811 48.8053 33.526 48.7692C33.5922 48.716 33.6564 48.6643 33.7165 48.618L33.717 48.6177L34.034 48.1131L34.1594 48.2689C34.1596 48.2688 34.1597 48.2687 34.1599 48.2686C34.6998 47.8338 35.2168 47.3718 35.7097 46.8848L35.7114 46.8831C36.1983 46.3903 36.6603 45.8739 37.0951 45.3344ZM37.0951 45.3344C37.095 45.3345 37.0949 45.3347 37.0948 45.3348L36.9397 45.2085L37.0954 45.334C37.0953 45.3342 37.0952 45.3343 37.0951 45.3344ZM18.6163 11.5524C18.6161 11.5524 18.6159 11.5524 18.6157 11.5524L18.6388 11.7511L18.6163 11.5524ZM18.6163 11.5524C18.6702 11.5461 18.7254 11.5393 18.7814 11.5324C18.912 11.5162 19.047 11.4995 19.1805 11.4879L19.1811 11.4878C19.7851 11.4367 20.3949 11.4025 21.012 11.4025M18.6163 11.5524L41.5957 32.1858C41.5957 31.4997 41.5629 30.8189 41.4962 30.144L41.6953 30.1245C41.6953 30.1245 41.6953 30.1244 41.6952 30.1243C41.2284 25.345 39.1127 20.8776 35.7115 17.4886C31.8214 13.5779 26.5283 11.3865 21.012 11.4025M21.012 11.4025C21.0121 11.4025 21.0122 11.4025 21.0123 11.4025V11.6025L21.0117 11.4025C21.0118 11.4025 21.0119 11.4025 21.012 11.4025ZM18.6174 52.8197L18.617 52.8197C18.1963 52.7712 17.776 52.7136 17.3585 52.6403C17.1519 52.604 16.9476 52.5645 16.7434 52.5219C16.743 52.5218 16.7427 52.5217 16.7423 52.5216L16.7832 52.3258L18.6174 52.8197ZM18.6174 52.8197C18.6763 52.8264 18.7371 52.8339 18.799 52.8416M18.6174 52.8197L18.799 52.8416M18.799 52.8416C18.9241 52.857 19.0536 52.873 19.1811 52.8838M18.799 52.8416L19.1811 52.8838M19.1811 52.8838C19.7853 52.9354 20.3952 52.9691 21.0122 52.9691L19.1809 52.8838C19.181 52.8838 19.181 52.8838 19.1811 52.8838ZM64.7384 13.5546L64.7376 13.5529L64.6461 14.0151C64.6403 13.9204 64.6218 13.8263 64.5906 13.7369L64.7803 13.6736C64.7802 13.6734 64.7802 13.6731 64.7801 13.6729C64.7787 13.6686 64.7769 13.6631 64.7749 13.6567C64.7667 13.6308 64.7539 13.5901 64.7384 13.5546ZM64.8461 13.9943L64.8449 13.9901L51.0198 0.100505L51.1032 -0.0812623C51.1028 -0.0814584 51.1024 -0.0816555 51.102 -0.0818511C51.0676 -0.097501 51.0258 -0.111134 51.0019 -0.118936C50.9957 -0.120955 50.9907 -0.122583 50.9874 -0.123756L50.9866 -0.124011C50.8776 -0.161599 50.7645 -0.184255 50.6494 -0.191176L50.6451 -0.191433C50.6416 -0.192268 50.6375 -0.193214 50.6329 -0.194144C50.6195 -0.196877 50.5999 -0.2 50.5765 -0.2L18.0765 -0.2L18.0763 -0.2C14.9763 -0.19616 12.4637 2.31587 12.4599 5.41642V5.41667V13.2599C5.00799 16.6021 0.20625 24.0103 0.20625 32.1858C0.20625 40.3613 5.00799 47.7695 12.4599 51.1117V59.5833V59.5836C12.4637 62.6841 14.9763 65.1962 18.0763 65.2H18.0765H59.2432H59.2435C62.344 65.1962 64.8566 62.6841 64.8599 59.5835V59.5833V14.0833C64.8599 14.0422 64.8501 14.0081 64.8465 13.9956L64.8461 13.9943ZM2.79566 32.1858L2.79566 32.1855C2.78938 27.352 4.70646 22.7153 8.12413 19.2976C11.5418 15.8799 16.1791 13.9628 21.0121 13.9691H21.0123C21.6214 13.9691 22.2258 13.9989 22.8224 14.057C31.1079 14.8758 37.7763 21.2224 39.0037 29.4572L39.004 29.4589C39.1463 30.3612 39.2211 31.2729 39.2279 32.1862C39.2358 35.6178 38.2658 38.9803 36.4326 41.8808L36.4322 41.8814C34.9782 44.1991 33.0188 46.158 30.7006 47.6109L30.7004 47.611C25.0867 51.1365 18.0012 51.3343 12.1996 48.1269C6.39809 44.9201 2.79671 38.8145 2.79566 32.1858ZM15.5036 52.2208L15.5053 52.2212L16.78 12.0468C16.3727 12.1314 15.9686 12.2309 15.5676 12.3414L15.5154 12.1484C15.5152 12.1484 15.5151 12.1485 15.5149 12.1485C15.4568 12.1642 15.3968 12.1799 15.3356 12.1958C15.2333 12.2225 15.1278 12.2499 15.0234 12.2799V5.41667C15.0234 3.73232 16.389 2.36667 18.0734 2.36667H49.2932V11.9167C49.2932 13.8219 50.8379 15.3667 52.7432 15.3667H62.2932V59.5833C62.2932 61.2677 60.9281 62.6333 59.2432 62.6333H18.0765C16.3922 62.6333 15.0265 61.2677 15.0265 59.5833V52.0912C15.1238 52.1197 15.2237 52.1461 15.3207 52.1717C15.3834 52.1883 15.4449 52.2045 15.5036 52.2208ZM15.0265 51.9032L15.0323 51.8842L15.0265 51.9032ZM51.8599 4.18141L60.4785 12.8H52.7432C52.2554 12.8 51.8599 12.4045 51.8599 11.9167V4.18141Z" fill="white" stroke="white" stroke-width="0.4"/>
<path d="M45.1599 7.58333C45.1599 6.98507 44.6748 6.5 44.0765 6.5H20.2432C19.6449 6.5 19.1599 6.98507 19.1599 7.58333C19.1599 8.1816 19.6449 8.66667 20.2432 8.66667H44.0765C44.6748 8.66667 45.1599 8.1816 45.1599 7.58333Z" fill="white"/>
<path d="M57.0766 26H44.0766C43.4783 26 42.9932 26.4851 42.9932 27.0833C42.9932 27.6816 43.4783 28.1667 44.0766 28.1667H57.0766C57.6748 28.1667 58.1599 27.6816 58.1599 27.0833C58.1599 26.4851 57.6748 26 57.0766 26Z" fill="white"/>
<path d="M57.0766 32.5H44.0766C43.4783 32.5 42.9932 32.9851 42.9932 33.5833C42.9932 34.1816 43.4783 34.6667 44.0766 34.6667H57.0766C57.6748 34.6667 58.1599 34.1816 58.1599 33.5833C58.1599 32.9851 57.6748 32.5 57.0766 32.5Z" fill="white"/>
<path d="M58.1599 40.0833C58.1599 39.4851 57.6748 39 57.0765 39H42.9932C42.3949 39 41.9099 39.4851 41.9099 40.0833C41.9099 40.6816 42.3949 41.1667 42.9932 41.1667H57.0765C57.6748 41.1667 58.1599 40.6816 58.1599 40.0833Z" fill="white"/>
<path d="M58.1599 46.5833C58.1599 45.9851 57.6748 45.5 57.0766 45.5H47.3266C46.7283 45.5 46.2432 45.9851 46.2432 46.5833C46.2432 47.1816 46.7283 47.6667 47.3266 47.6667H57.0766C57.6748 47.6667 58.1599 47.1816 58.1599 46.5833Z" fill="white"/>
<path d="M45.1599 14.0833C45.1599 13.4851 44.6748 13 44.0765 13H35.4099C34.8116 13 34.3265 13.4851 34.3265 14.0833C34.3265 14.6816 34.8116 15.1667 35.4099 15.1667H44.0765C44.6748 15.1667 45.1599 14.6816 45.1599 14.0833Z" fill="white"/>
<path d="M58.1599 20.5833C58.1599 19.9851 57.6748 19.5 57.0766 19.5H40.8266C40.2283 19.5 39.7432 19.9851 39.7432 20.5833C39.7432 21.1816 40.2283 21.6667 40.8266 21.6667H57.0766C57.6748 21.6667 58.1599 21.1816 58.1599 20.5833Z" fill="white"/>
<path d="M16.9932 27.0832H24.5766C25.1748 27.0832 25.6599 26.5981 25.6599 25.9998C25.6599 25.4016 25.1748 24.9165 24.5766 24.9165H16.9932C16.395 24.9165 15.9099 25.4016 15.9099 25.9998C15.9099 26.5981 16.395 27.0832 16.9932 27.0832Z" fill="white"/>
<path d="M29.9932 32.4998C29.9932 31.9016 29.5081 31.4165 28.9099 31.4165H12.6599C12.0616 31.4165 11.5765 31.9016 11.5765 32.4998C11.5765 33.0981 12.0616 33.5832 12.6599 33.5832H28.9099C29.5081 33.5832 29.9932 33.0981 29.9932 32.4998Z" fill="white"/>
<path d="M24.5766 37.9167H16.9932C16.395 37.9167 15.9099 38.4018 15.9099 39.0001C15.9099 39.5983 16.395 40.0834 16.9932 40.0834H24.5766C25.1748 40.0834 25.6599 39.5983 25.6599 39.0001C25.6599 38.4018 25.1748 37.9167 24.5766 37.9167Z" fill="white"/>
<path d="M28.7237 46.4748C31.3659 45.0677 33.5569 42.9423 35.0438 40.3446C35.1295 40.1949 35.2226 40.0499 35.303 39.8981C35.3448 39.8198 35.3776 39.7389 35.4178 39.6606C35.5823 39.3443 35.7426 39.0279 35.8844 38.7042C36.0267 38.3805 36.1383 38.0726 36.2541 37.7542C36.2875 37.6621 36.3298 37.5722 36.3626 37.4791C39.1175 29.4678 35.256 20.6838 27.4907 17.2978C19.7248 13.9119 10.6609 17.0603 6.66612 24.531C5.40876 26.8844 4.75389 29.5128 4.76024 32.1815C4.75019 37.9071 7.75739 43.2142 12.6742 46.1479C17.591 49.0821 23.6895 49.2085 28.7237 46.4812V46.4748ZM14.2611 44.5446C13.082 43.9019 12.0019 43.0926 11.0534 42.1415C10.3954 41.484 9.80345 40.764 9.28559 39.9912C9.02957 39.6082 8.79417 39.2152 8.57783 38.8116C5.31725 32.6549 7.04487 25.0393 12.643 20.8927C18.2411 16.7461 26.0296 17.3131 30.9687 22.2268C35.3427 26.6421 36.3266 33.3939 33.395 38.874V38.883C32.1033 41.2999 30.1228 43.2788 27.7054 44.5695C23.5117 46.8477 18.4479 46.8398 14.2611 44.5488V44.5446Z" fill="white"/>
<path d="M59.2432 52C58.645 52 58.1599 52.4851 58.1599 53.0833V57.4167C58.1599 58.0149 57.6748 58.5 57.0766 58.5H52.7432C52.145 58.5 51.6599 58.9851 51.6599 59.5833C51.6599 60.1816 52.145 60.6667 52.7432 60.6667H57.0766C58.8719 60.6667 60.3266 59.2115 60.3266 57.4167V53.0833C60.3266 52.4851 59.8415 52 59.2432 52Z" fill="white"/>
</g>
<defs>
<clipPath id="clip0_2289_549">
<rect width="65" height="65" fill="white"/>
</clipPath>
</defs>
</svg>
