<svg width="54" height="54" viewBox="0 0 54 54" fill="none" xmlns="http://www.w3.org/2000/svg">
<mask id="path-1-outside-1_2037_665" maskUnits="userSpaceOnUse" x="0.125" y="0.125" width="54" height="54" fill="black">
<rect fill="white" x="0.125" y="0.125" width="54" height="54"/>
<path d="M10.125 7.3125C10.125 7.64626 10.026 7.97252 9.8406 8.25002C9.65518 8.52753 9.39163 8.74382 9.08328 8.87155C8.77493 8.99927 8.43563 9.03269 8.10828 8.96757C7.78094 8.90246 7.48026 8.74174 7.24426 8.50574C7.00826 8.26974 6.84754 7.96906 6.78242 7.64171C6.71731 7.31437 6.75073 6.97507 6.87845 6.66672C7.00618 6.35837 7.22247 6.09482 7.49997 5.90939C7.77748 5.72397 8.10374 5.625 8.4375 5.625C8.88505 5.625 9.31427 5.80279 9.63074 6.11926C9.94721 6.43572 10.125 6.86495 10.125 7.3125ZM14.0625 5.625C13.7287 5.625 13.4025 5.72397 13.125 5.90939C12.8475 6.09482 12.6312 6.35837 12.5035 6.66672C12.3757 6.97507 12.3423 7.31437 12.4074 7.64171C12.4725 7.96906 12.6333 8.26974 12.8693 8.50574C13.1053 8.74174 13.4059 8.90246 13.7333 8.96757C14.0606 9.03269 14.3999 8.99927 14.7083 8.87155C15.0166 8.74382 15.2802 8.52753 15.4656 8.25002C15.651 7.97252 15.75 7.64626 15.75 7.3125C15.75 6.86495 15.5722 6.43572 15.2557 6.11926C14.9393 5.80279 14.5101 5.625 14.0625 5.625ZM19.6875 5.625C19.3537 5.625 19.0275 5.72397 18.75 5.90939C18.4725 6.09482 18.2562 6.35837 18.1285 6.66672C18.0007 6.97507 17.9673 7.31437 18.0324 7.64171C18.0975 7.96906 18.2583 8.26974 18.4943 8.50574C18.7303 8.74174 19.0309 8.90246 19.3583 8.96757C19.6856 9.03269 20.0249 8.99927 20.3333 8.87155C20.6416 8.74382 20.9052 8.52753 21.0906 8.25002C21.276 7.97252 21.375 7.64626 21.375 7.3125C21.375 6.86495 21.1972 6.43572 20.8807 6.11926C20.5643 5.80279 20.1351 5.625 19.6875 5.625ZM52.875 4.5V49.5C52.874 50.3948 52.5181 51.2527 51.8854 51.8854C51.2527 52.5181 50.3948 52.874 49.5 52.875H4.5C3.6052 52.874 2.74732 52.5181 2.1146 51.8854C1.48188 51.2527 1.12598 50.3948 1.125 49.5V4.5C1.12598 3.6052 1.48188 2.74732 2.1146 2.1146C2.74732 1.48188 3.6052 1.12598 4.5 1.125H49.5C50.3948 1.12598 51.2527 1.48188 51.8854 2.1146C52.5181 2.74732 52.874 3.6052 52.875 4.5ZM50.625 13.5H3.375V49.5C3.3753 49.7983 3.49392 50.0842 3.70483 50.2952C3.91575 50.5061 4.20172 50.6247 4.5 50.625H49.5C49.7983 50.6247 50.0842 50.5061 50.2952 50.2952C50.5061 50.0842 50.6247 49.7983 50.625 49.5V13.5ZM50.625 4.5C50.6247 4.20172 50.5061 3.91575 50.2952 3.70483C50.0842 3.49392 49.7983 3.3753 49.5 3.375H4.5C4.20172 3.3753 3.91575 3.49392 3.70483 3.70483C3.49392 3.91575 3.3753 4.20172 3.375 4.5V11.25H50.625V4.5ZM6.75 21.9375C6.75146 20.5953 7.2853 19.3085 8.23438 18.3594C9.18347 17.4103 10.4703 16.8765 11.8125 16.875H42.1875C43.5302 16.875 44.8178 17.4084 45.7672 18.3578C46.7166 19.3072 47.25 20.5948 47.25 21.9375C47.25 23.2802 46.7166 24.5678 45.7672 25.5172C44.8178 26.4666 43.5302 27 42.1875 27H11.8125C10.4703 26.9985 9.18347 26.4647 8.23438 25.5156C7.2853 24.5665 6.75146 23.2797 6.75 21.9375ZM9 21.9375C9.00077 22.6832 9.29734 23.3981 9.82462 23.9254C10.3519 24.4527 11.0668 24.7492 11.8125 24.75H42.1875C42.9334 24.75 43.6488 24.4537 44.1762 23.9262C44.7037 23.3988 45 22.6834 45 21.9375C45 21.1916 44.7037 20.4762 44.1762 19.9488C43.6488 19.4213 42.9334 19.125 42.1875 19.125H11.8125C11.0668 19.1258 10.3519 19.4223 9.82462 19.9496C9.29734 20.4769 9.00077 21.1918 9 21.9375ZM6.75 45V33.75C6.75068 33.1535 6.98796 32.5816 7.40977 32.1598C7.83157 31.738 8.40347 31.5007 9 31.5H25.875C26.4715 31.5007 27.0434 31.738 27.4652 32.1598C27.887 32.5816 28.1243 33.1535 28.125 33.75V45C28.1243 45.5965 27.887 46.1684 27.4652 46.5902C27.0434 47.012 26.4715 47.2493 25.875 47.25H9C8.40347 47.2493 7.83157 47.012 7.40977 46.5902C6.98796 46.1684 6.75068 45.5965 6.75 45ZM9 45H25.8761L25.875 33.75H9V45ZM31.5 34.875H39.375C39.6734 34.875 39.9595 34.7565 40.1705 34.5455C40.3815 34.3345 40.5 34.0484 40.5 33.75C40.5 33.4516 40.3815 33.1655 40.1705 32.9545C39.9595 32.7435 39.6734 32.625 39.375 32.625H31.5C31.2016 32.625 30.9155 32.7435 30.7045 32.9545C30.4935 33.1655 30.375 33.4516 30.375 33.75C30.375 34.0484 30.4935 34.3345 30.7045 34.5455C30.9155 34.7565 31.2016 34.875 31.5 34.875ZM46.125 38.25H31.5C31.2016 38.25 30.9155 38.3685 30.7045 38.5795C30.4935 38.7905 30.375 39.0766 30.375 39.375C30.375 39.6734 30.4935 39.9595 30.7045 40.1705C30.9155 40.3815 31.2016 40.5 31.5 40.5H46.125C46.4234 40.5 46.7095 40.3815 46.9205 40.1705C47.1315 39.9595 47.25 39.6734 47.25 39.375C47.25 39.0766 47.1315 38.7905 46.9205 38.5795C46.7095 38.3685 46.4234 38.25 46.125 38.25ZM43.875 43.875H31.5C31.2016 43.875 30.9155 43.9935 30.7045 44.2045C30.4935 44.4155 30.375 44.7016 30.375 45C30.375 45.2984 30.4935 45.5845 30.7045 45.7955C30.9155 46.0065 31.2016 46.125 31.5 46.125H43.875C44.1734 46.125 44.4595 46.0065 44.6705 45.7955C44.8815 45.5845 45 45.2984 45 45C45 44.7016 44.8815 44.4155 44.6705 44.2045C44.4595 43.9935 44.1734 43.875 43.875 43.875Z"/>
</mask>
<path d="M10.125 7.3125C10.125 7.64626 10.026 7.97252 9.8406 8.25002C9.65518 8.52753 9.39163 8.74382 9.08328 8.87155C8.77493 8.99927 8.43563 9.03269 8.10828 8.96757C7.78094 8.90246 7.48026 8.74174 7.24426 8.50574C7.00826 8.26974 6.84754 7.96906 6.78242 7.64171C6.71731 7.31437 6.75073 6.97507 6.87845 6.66672C7.00618 6.35837 7.22247 6.09482 7.49997 5.90939C7.77748 5.72397 8.10374 5.625 8.4375 5.625C8.88505 5.625 9.31427 5.80279 9.63074 6.11926C9.94721 6.43572 10.125 6.86495 10.125 7.3125ZM14.0625 5.625C13.7287 5.625 13.4025 5.72397 13.125 5.90939C12.8475 6.09482 12.6312 6.35837 12.5035 6.66672C12.3757 6.97507 12.3423 7.31437 12.4074 7.64171C12.4725 7.96906 12.6333 8.26974 12.8693 8.50574C13.1053 8.74174 13.4059 8.90246 13.7333 8.96757C14.0606 9.03269 14.3999 8.99927 14.7083 8.87155C15.0166 8.74382 15.2802 8.52753 15.4656 8.25002C15.651 7.97252 15.75 7.64626 15.75 7.3125C15.75 6.86495 15.5722 6.43572 15.2557 6.11926C14.9393 5.80279 14.5101 5.625 14.0625 5.625ZM19.6875 5.625C19.3537 5.625 19.0275 5.72397 18.75 5.90939C18.4725 6.09482 18.2562 6.35837 18.1285 6.66672C18.0007 6.97507 17.9673 7.31437 18.0324 7.64171C18.0975 7.96906 18.2583 8.26974 18.4943 8.50574C18.7303 8.74174 19.0309 8.90246 19.3583 8.96757C19.6856 9.03269 20.0249 8.99927 20.3333 8.87155C20.6416 8.74382 20.9052 8.52753 21.0906 8.25002C21.276 7.97252 21.375 7.64626 21.375 7.3125C21.375 6.86495 21.1972 6.43572 20.8807 6.11926C20.5643 5.80279 20.1351 5.625 19.6875 5.625ZM52.875 4.5V49.5C52.874 50.3948 52.5181 51.2527 51.8854 51.8854C51.2527 52.5181 50.3948 52.874 49.5 52.875H4.5C3.6052 52.874 2.74732 52.5181 2.1146 51.8854C1.48188 51.2527 1.12598 50.3948 1.125 49.5V4.5C1.12598 3.6052 1.48188 2.74732 2.1146 2.1146C2.74732 1.48188 3.6052 1.12598 4.5 1.125H49.5C50.3948 1.12598 51.2527 1.48188 51.8854 2.1146C52.5181 2.74732 52.874 3.6052 52.875 4.5ZM50.625 13.5H3.375V49.5C3.3753 49.7983 3.49392 50.0842 3.70483 50.2952C3.91575 50.5061 4.20172 50.6247 4.5 50.625H49.5C49.7983 50.6247 50.0842 50.5061 50.2952 50.2952C50.5061 50.0842 50.6247 49.7983 50.625 49.5V13.5ZM50.625 4.5C50.6247 4.20172 50.5061 3.91575 50.2952 3.70483C50.0842 3.49392 49.7983 3.3753 49.5 3.375H4.5C4.20172 3.3753 3.91575 3.49392 3.70483 3.70483C3.49392 3.91575 3.3753 4.20172 3.375 4.5V11.25H50.625V4.5ZM6.75 21.9375C6.75146 20.5953 7.2853 19.3085 8.23438 18.3594C9.18347 17.4103 10.4703 16.8765 11.8125 16.875H42.1875C43.5302 16.875 44.8178 17.4084 45.7672 18.3578C46.7166 19.3072 47.25 20.5948 47.25 21.9375C47.25 23.2802 46.7166 24.5678 45.7672 25.5172C44.8178 26.4666 43.5302 27 42.1875 27H11.8125C10.4703 26.9985 9.18347 26.4647 8.23438 25.5156C7.2853 24.5665 6.75146 23.2797 6.75 21.9375ZM9 21.9375C9.00077 22.6832 9.29734 23.3981 9.82462 23.9254C10.3519 24.4527 11.0668 24.7492 11.8125 24.75H42.1875C42.9334 24.75 43.6488 24.4537 44.1762 23.9262C44.7037 23.3988 45 22.6834 45 21.9375C45 21.1916 44.7037 20.4762 44.1762 19.9488C43.6488 19.4213 42.9334 19.125 42.1875 19.125H11.8125C11.0668 19.1258 10.3519 19.4223 9.82462 19.9496C9.29734 20.4769 9.00077 21.1918 9 21.9375ZM6.75 45V33.75C6.75068 33.1535 6.98796 32.5816 7.40977 32.1598C7.83157 31.738 8.40347 31.5007 9 31.5H25.875C26.4715 31.5007 27.0434 31.738 27.4652 32.1598C27.887 32.5816 28.1243 33.1535 28.125 33.75V45C28.1243 45.5965 27.887 46.1684 27.4652 46.5902C27.0434 47.012 26.4715 47.2493 25.875 47.25H9C8.40347 47.2493 7.83157 47.012 7.40977 46.5902C6.98796 46.1684 6.75068 45.5965 6.75 45ZM9 45H25.8761L25.875 33.75H9V45ZM31.5 34.875H39.375C39.6734 34.875 39.9595 34.7565 40.1705 34.5455C40.3815 34.3345 40.5 34.0484 40.5 33.75C40.5 33.4516 40.3815 33.1655 40.1705 32.9545C39.9595 32.7435 39.6734 32.625 39.375 32.625H31.5C31.2016 32.625 30.9155 32.7435 30.7045 32.9545C30.4935 33.1655 30.375 33.4516 30.375 33.75C30.375 34.0484 30.4935 34.3345 30.7045 34.5455C30.9155 34.7565 31.2016 34.875 31.5 34.875ZM46.125 38.25H31.5C31.2016 38.25 30.9155 38.3685 30.7045 38.5795C30.4935 38.7905 30.375 39.0766 30.375 39.375C30.375 39.6734 30.4935 39.9595 30.7045 40.1705C30.9155 40.3815 31.2016 40.5 31.5 40.5H46.125C46.4234 40.5 46.7095 40.3815 46.9205 40.1705C47.1315 39.9595 47.25 39.6734 47.25 39.375C47.25 39.0766 47.1315 38.7905 46.9205 38.5795C46.7095 38.3685 46.4234 38.25 46.125 38.25ZM43.875 43.875H31.5C31.2016 43.875 30.9155 43.9935 30.7045 44.2045C30.4935 44.4155 30.375 44.7016 30.375 45C30.375 45.2984 30.4935 45.5845 30.7045 45.7955C30.9155 46.0065 31.2016 46.125 31.5 46.125H43.875C44.1734 46.125 44.4595 46.0065 44.6705 45.7955C44.8815 45.5845 45 45.2984 45 45C45 44.7016 44.8815 44.4155 44.6705 44.2045C44.4595 43.9935 44.1734 43.875 43.875 43.875Z" fill="white"/>
<path d="M10.125 7.3125C10.125 7.64626 10.026 7.97252 9.8406 8.25002C9.65518 8.52753 9.39163 8.74382 9.08328 8.87155C8.77493 8.99927 8.43563 9.03269 8.10828 8.96757C7.78094 8.90246 7.48026 8.74174 7.24426 8.50574C7.00826 8.26974 6.84754 7.96906 6.78242 7.64171C6.71731 7.31437 6.75073 6.97507 6.87845 6.66672C7.00618 6.35837 7.22247 6.09482 7.49997 5.90939C7.77748 5.72397 8.10374 5.625 8.4375 5.625C8.88505 5.625 9.31427 5.80279 9.63074 6.11926C9.94721 6.43572 10.125 6.86495 10.125 7.3125ZM14.0625 5.625C13.7287 5.625 13.4025 5.72397 13.125 5.90939C12.8475 6.09482 12.6312 6.35837 12.5035 6.66672C12.3757 6.97507 12.3423 7.31437 12.4074 7.64171C12.4725 7.96906 12.6333 8.26974 12.8693 8.50574C13.1053 8.74174 13.4059 8.90246 13.7333 8.96757C14.0606 9.03269 14.3999 8.99927 14.7083 8.87155C15.0166 8.74382 15.2802 8.52753 15.4656 8.25002C15.651 7.97252 15.75 7.64626 15.75 7.3125C15.75 6.86495 15.5722 6.43572 15.2557 6.11926C14.9393 5.80279 14.5101 5.625 14.0625 5.625ZM19.6875 5.625C19.3537 5.625 19.0275 5.72397 18.75 5.90939C18.4725 6.09482 18.2562 6.35837 18.1285 6.66672C18.0007 6.97507 17.9673 7.31437 18.0324 7.64171C18.0975 7.96906 18.2583 8.26974 18.4943 8.50574C18.7303 8.74174 19.0309 8.90246 19.3583 8.96757C19.6856 9.03269 20.0249 8.99927 20.3333 8.87155C20.6416 8.74382 20.9052 8.52753 21.0906 8.25002C21.276 7.97252 21.375 7.64626 21.375 7.3125C21.375 6.86495 21.1972 6.43572 20.8807 6.11926C20.5643 5.80279 20.1351 5.625 19.6875 5.625ZM52.875 4.5V49.5C52.874 50.3948 52.5181 51.2527 51.8854 51.8854C51.2527 52.5181 50.3948 52.874 49.5 52.875H4.5C3.6052 52.874 2.74732 52.5181 2.1146 51.8854C1.48188 51.2527 1.12598 50.3948 1.125 49.5V4.5C1.12598 3.6052 1.48188 2.74732 2.1146 2.1146C2.74732 1.48188 3.6052 1.12598 4.5 1.125H49.5C50.3948 1.12598 51.2527 1.48188 51.8854 2.1146C52.5181 2.74732 52.874 3.6052 52.875 4.5ZM50.625 13.5H3.375V49.5C3.3753 49.7983 3.49392 50.0842 3.70483 50.2952C3.91575 50.5061 4.20172 50.6247 4.5 50.625H49.5C49.7983 50.6247 50.0842 50.5061 50.2952 50.2952C50.5061 50.0842 50.6247 49.7983 50.625 49.5V13.5ZM50.625 4.5C50.6247 4.20172 50.5061 3.91575 50.2952 3.70483C50.0842 3.49392 49.7983 3.3753 49.5 3.375H4.5C4.20172 3.3753 3.91575 3.49392 3.70483 3.70483C3.49392 3.91575 3.3753 4.20172 3.375 4.5V11.25H50.625V4.5ZM6.75 21.9375C6.75146 20.5953 7.2853 19.3085 8.23438 18.3594C9.18347 17.4103 10.4703 16.8765 11.8125 16.875H42.1875C43.5302 16.875 44.8178 17.4084 45.7672 18.3578C46.7166 19.3072 47.25 20.5948 47.25 21.9375C47.25 23.2802 46.7166 24.5678 45.7672 25.5172C44.8178 26.4666 43.5302 27 42.1875 27H11.8125C10.4703 26.9985 9.18347 26.4647 8.23438 25.5156C7.2853 24.5665 6.75146 23.2797 6.75 21.9375ZM9 21.9375C9.00077 22.6832 9.29734 23.3981 9.82462 23.9254C10.3519 24.4527 11.0668 24.7492 11.8125 24.75H42.1875C42.9334 24.75 43.6488 24.4537 44.1762 23.9262C44.7037 23.3988 45 22.6834 45 21.9375C45 21.1916 44.7037 20.4762 44.1762 19.9488C43.6488 19.4213 42.9334 19.125 42.1875 19.125H11.8125C11.0668 19.1258 10.3519 19.4223 9.82462 19.9496C9.29734 20.4769 9.00077 21.1918 9 21.9375ZM6.75 45V33.75C6.75068 33.1535 6.98796 32.5816 7.40977 32.1598C7.83157 31.738 8.40347 31.5007 9 31.5H25.875C26.4715 31.5007 27.0434 31.738 27.4652 32.1598C27.887 32.5816 28.1243 33.1535 28.125 33.75V45C28.1243 45.5965 27.887 46.1684 27.4652 46.5902C27.0434 47.012 26.4715 47.2493 25.875 47.25H9C8.40347 47.2493 7.83157 47.012 7.40977 46.5902C6.98796 46.1684 6.75068 45.5965 6.75 45ZM9 45H25.8761L25.875 33.75H9V45ZM31.5 34.875H39.375C39.6734 34.875 39.9595 34.7565 40.1705 34.5455C40.3815 34.3345 40.5 34.0484 40.5 33.75C40.5 33.4516 40.3815 33.1655 40.1705 32.9545C39.9595 32.7435 39.6734 32.625 39.375 32.625H31.5C31.2016 32.625 30.9155 32.7435 30.7045 32.9545C30.4935 33.1655 30.375 33.4516 30.375 33.75C30.375 34.0484 30.4935 34.3345 30.7045 34.5455C30.9155 34.7565 31.2016 34.875 31.5 34.875ZM46.125 38.25H31.5C31.2016 38.25 30.9155 38.3685 30.7045 38.5795C30.4935 38.7905 30.375 39.0766 30.375 39.375C30.375 39.6734 30.4935 39.9595 30.7045 40.1705C30.9155 40.3815 31.2016 40.5 31.5 40.5H46.125C46.4234 40.5 46.7095 40.3815 46.9205 40.1705C47.1315 39.9595 47.25 39.6734 47.25 39.375C47.25 39.0766 47.1315 38.7905 46.9205 38.5795C46.7095 38.3685 46.4234 38.25 46.125 38.25ZM43.875 43.875H31.5C31.2016 43.875 30.9155 43.9935 30.7045 44.2045C30.4935 44.4155 30.375 44.7016 30.375 45C30.375 45.2984 30.4935 45.5845 30.7045 45.7955C30.9155 46.0065 31.2016 46.125 31.5 46.125H43.875C44.1734 46.125 44.4595 46.0065 44.6705 45.7955C44.8815 45.5845 45 45.2984 45 45C45 44.7016 44.8815 44.4155 44.6705 44.2045C44.4595 43.9935 44.1734 43.875 43.875 43.875Z" stroke="white" stroke-width="0.8" mask="url(#path-1-outside-1_2037_665)"/>
</svg>
