<svg width="59" height="59" viewBox="0 0 59 59" fill="none" xmlns="http://www.w3.org/2000/svg">
<g clip-path="url(#clip0_2037_698)">
<path d="M7.37508 57.0417H51.6251C52.0275 57.0417 52.3543 57.3685 52.3543 57.7708C52.3543 58.1731 52.0274 58.5 51.6251 58.5H7.37508C6.97269 58.5 6.64587 58.1731 6.64587 57.7709C6.64587 57.3686 6.97272 57.0417 7.37508 57.0417Z" fill="white" stroke="white"/>
<path d="M57.8209 35.1309L57.8214 35.1321L57.8225 35.1351V35.1352C57.8446 35.1907 57.8538 35.2434 57.8596 35.2868C57.8622 35.3062 57.8639 35.3219 57.8655 35.3357C57.868 35.3576 57.87 35.3751 57.8739 35.3961C57.8778 35.4156 57.8821 35.4312 57.8875 35.4509C57.891 35.4636 57.895 35.4782 57.8996 35.4965C57.9099 35.5372 57.9207 35.5881 57.9206 35.6459L57.8209 35.1309ZM57.8209 35.1309L57.8118 35.1083L47.9903 10.5521M57.8209 35.1309L47.9903 10.5521M47.9903 10.5521C47.9873 10.5435 47.9836 10.5356 47.9796 10.5286C47.9786 10.5268 47.9776 10.525 47.9766 10.5234M47.9903 10.5521L47.9766 10.5234M47.9766 10.5234C47.7687 10.0323 47.2819 9.68341 46.7083 9.68341H30.8792V7.25303C32.3123 6.69753 33.3375 5.3169 33.3375 3.6875C33.3375 1.57158 31.616 -0.15 29.5 -0.15C27.3841 -0.15 25.6625 1.57158 25.6625 3.6875C25.6625 5.3169 26.6878 6.69753 28.1208 7.25303V9.6833H12.2917C11.7193 9.6833 11.2334 10.0308 11.0249 10.5249C11.0181 10.5357 11.0124 10.5477 11.0082 10.5608L1.18827 35.1133L1.17941 35.1355C1.179 35.1365 1.17861 35.1374 1.17821 35.1384C1.15544 35.1938 1.14619 35.2476 1.14047 35.2909C1.13788 35.3106 1.13611 35.3264 1.13455 35.3404C1.13212 35.3621 1.13018 35.3795 1.12642 35.4C1.12266 35.4172 1.11888 35.4305 1.11412 35.4471C1.11038 35.4602 1.10604 35.4755 1.10062 35.4964C1.09013 35.537 1.07925 35.588 1.07925 35.6458C1.07925 35.6591 1.08086 35.6699 1.08212 35.6768C1.08219 35.6771 1.08227 35.6775 1.08234 35.6779C1.08242 35.679 1.0825 35.68 1.08258 35.6809L1.08377 35.6928L1.0841 35.696C1.1131 41.8565 6.12546 46.8583 12.2916 46.8583C18.4582 46.8583 23.4709 41.856 23.4992 35.6948C23.4992 35.6943 23.4993 35.6937 23.4994 35.6928L23.5006 35.6816C23.5007 35.6805 23.5008 35.6793 23.5009 35.678C23.501 35.6776 23.5011 35.6772 23.5011 35.6767C23.5024 35.6699 23.504 35.659 23.504 35.6458C23.504 35.588 23.4931 35.537 23.4828 35.4963C23.4782 35.4782 23.4742 35.4639 23.4708 35.4512C23.4653 35.4313 23.461 35.4156 23.4571 35.3961C23.4531 35.375 23.4512 35.3576 23.4487 35.3357C23.4471 35.3218 23.4454 35.3062 23.4428 35.2868C23.437 35.2434 23.4277 35.1907 23.4057 35.1352V35.1351L23.4046 35.1321L23.404 35.1308L23.395 35.1083L14.3298 12.4417H28.1207V51.475H12.2917C11.5304 51.475 10.9125 52.0929 10.9125 52.8542C10.9125 53.6155 11.5304 54.2334 12.2917 54.2334H46.7085C47.4698 54.2334 48.0877 53.6155 48.0877 52.8542C48.0877 52.0928 47.4697 51.475 46.7083 51.475H30.8792V12.4417H44.6701L35.6024 35.1108L35.6033 35.1112L35.5948 35.1303L35.5947 35.1303L35.5936 35.1331C35.5699 35.1895 35.5605 35.2444 35.5546 35.2885C35.5521 35.3082 35.5503 35.324 35.5487 35.338C35.5462 35.3604 35.5442 35.3781 35.5402 35.3994L35.5399 35.4015C35.5366 35.4205 35.5323 35.4366 35.5266 35.4585C35.5237 35.4697 35.5203 35.4823 35.5165 35.4976C35.5067 35.5373 35.4958 35.5882 35.4958 35.6459C35.4958 35.6592 35.4974 35.67 35.4987 35.6768L47.9766 10.5234ZM35.6852 35.144L35.7417 35.1665H35.7363L35.6852 35.144ZM23.4992 35.6925C23.4992 35.6927 23.4992 35.6929 23.4992 35.6931V35.6925ZM35.5015 35.6897C35.5016 35.6899 35.5016 35.6899 35.5015 35.6896L35.5015 35.6897ZM35.4988 35.6775C35.4993 35.6849 35.5 35.6908 35.5004 35.6943L35.5005 35.6949L35.5007 35.6969C35.5301 41.857 40.5423 46.8584 46.7082 46.8584C52.8748 46.8584 57.8875 41.8561 57.9158 35.6949C57.9158 35.6945 57.9159 35.6938 57.916 35.6929L57.9172 35.6817C57.9173 35.6806 57.9174 35.6794 57.9175 35.6782C57.9176 35.6777 57.9177 35.6773 57.9177 35.6768C57.919 35.6701 57.9206 35.6594 57.9206 35.6464L35.4988 35.6775ZM35.5007 35.6932C35.5007 35.6933 35.5007 35.6934 35.5007 35.6935C35.5007 35.6932 35.5007 35.6929 35.5007 35.6926L35.5007 35.6932ZM12.2917 44.1C8.1003 44.1 4.61043 41.0331 3.9509 37.025H20.6349C19.9729 41.0332 16.483 44.1 12.2917 44.1ZM20.0868 34.2667H4.49666L12.2917 14.7754L20.0868 34.2667ZM29.5 4.76671C28.9044 4.76671 28.4208 4.28316 28.4208 3.6875C28.4208 3.09184 28.9044 2.60829 29.5 2.60829C30.0957 2.60829 30.5792 3.09184 30.5792 3.6875C30.5792 4.28316 30.0957 4.76671 29.5 4.76671ZM38.9109 34.2667L46.7083 14.7754L54.5034 34.2667H38.9109ZM46.7083 44.1C42.5169 44.1 39.027 41.0331 38.3675 37.025H55.0515C54.3896 41.0332 50.8997 44.1 46.7083 44.1Z" fill="white" stroke="white" stroke-width="0.3"/>
</g>
<defs>
<clipPath id="clip0_2037_698">
<rect width="59" height="59" fill="white"/>
</clipPath>
</defs>
</svg>
