<svg width="93" height="93" viewBox="0 0 93 93" fill="none" xmlns="http://www.w3.org/2000/svg">
<g clip-path="url(#clip0_2202_1038)">
<path d="M92.6212 39.6629L77.0555 19.4426C76.4793 18.6948 75.4285 18.5103 74.6317 19.0169L64.5819 25.4084H51.4747C51.3051 25.4084 51.1362 25.4446 50.973 25.4921L40.8104 28.4175L30.2653 25.5332L20.0189 19.0169C19.2356 18.5188 18.2039 18.6877 17.6214 19.41L0.404539 40.7357C-0.214174 41.502 -0.112001 42.6209 0.634429 43.2631L9.65828 51.0289L17.7541 61.9387C15.3863 64.4611 15.4325 68.4395 17.896 70.9037C18.9879 71.9949 20.3765 72.6115 21.8048 72.7549C21.7551 73.0784 21.7296 73.4069 21.7296 73.7404C21.7296 75.4617 22.4001 77.0802 23.6169 78.297C24.8345 79.5146 26.4529 80.1851 28.1743 80.1851C28.1977 80.1851 28.2204 80.1837 28.2431 80.183C28.2424 80.227 28.2403 80.2702 28.2403 80.3142C28.2403 82.0356 28.9108 83.654 30.1276 84.8716C31.3452 86.0884 32.9636 86.7589 34.685 86.7589C35.0248 86.7589 35.3611 86.7313 35.6911 86.6802C35.8309 88.1134 36.4489 89.5084 37.5444 90.6039C38.8003 91.8605 40.4506 92.4884 42.101 92.4884C43.7514 92.4884 45.4018 91.8605 46.6583 90.6039L47.6439 89.6183L48.0575 89.9518C49.3035 91.1587 50.9212 91.7618 52.539 91.7618C54.1893 91.7618 55.8397 91.1339 57.0956 89.8773C58.3777 88.5952 59.0056 86.903 58.9794 85.2192C60.6624 85.2448 62.3554 84.6176 63.6375 83.3361C64.9182 82.0547 65.5461 80.3639 65.5213 78.6809C67.2746 78.7086 68.9377 78.0352 70.1787 76.7942C71.4608 75.5121 72.0887 73.8199 72.0625 72.1361C73.7469 72.1617 75.4384 71.5345 76.7206 70.2523C78.9088 68.0641 79.1905 64.6818 77.5678 62.1849L83.4789 49.805L92.3658 42.1576C93.1002 41.5254 93.2123 40.4299 92.6212 39.6629V39.6629ZM19.4357 22.9683L26.8035 27.6533L10.7758 47.1797L4.3531 41.6517L19.4357 22.9683ZM20.4751 64.3682L22.6988 62.1445C22.7662 62.0771 22.8372 62.0132 22.9095 61.9536C23.3445 61.5989 23.871 61.3874 24.4286 61.337C24.4443 61.3356 24.4606 61.3356 24.4762 61.3349C24.5557 61.3285 24.6351 61.3243 24.7153 61.325C25.4773 61.3356 26.1855 61.6471 26.7105 62.2012C27.7407 63.2904 27.6854 65.0699 26.587 66.1683L24.4308 68.3245C23.3402 69.4151 21.5657 69.4151 20.4751 68.3245C19.3846 67.2333 19.3846 65.4587 20.4751 64.3682ZM26.1961 75.7179C25.6675 75.19 25.3766 74.4875 25.3766 73.7404C25.3766 72.9933 25.6675 72.2908 26.1961 71.7622L30.5079 67.4504C31.3338 66.6245 32.6323 66.3981 33.6881 66.9012C34.7765 67.4199 35.3888 68.6012 35.2292 69.7897C35.144 70.424 34.8489 71.0215 34.3962 71.4749L30.1525 75.7179C29.6239 76.2465 28.9214 76.5374 28.1743 76.5374C27.4271 76.5374 26.7247 76.2465 26.1961 75.7179ZM32.7068 82.2917C32.1782 81.7638 31.8873 81.0614 31.8873 80.3142C31.8873 79.5671 32.1782 78.8647 32.7068 78.336L37.0179 74.0242C37.9013 73.1416 39.3182 72.9514 40.3995 73.5808C41.3872 74.1555 41.9045 75.2836 41.7349 76.4075C41.6419 77.0255 41.3482 77.6066 40.9061 78.0487L36.6631 82.2917C36.1345 82.8203 35.4321 83.1112 34.685 83.1112C33.9378 83.1112 33.2354 82.8203 32.7068 82.2917ZM40.1228 88.0247C39.0323 86.9342 39.0323 85.1596 40.1228 84.0691L42.3465 81.8454C42.4139 81.778 42.4842 81.7148 42.5565 81.6552C42.5587 81.6538 42.5601 81.6524 42.5615 81.651C42.9234 81.3572 43.3484 81.1607 43.8018 81.0748C43.8124 81.0734 43.823 81.072 43.8337 81.0706C43.9117 81.0564 43.9912 81.045 44.0707 81.038C44.1026 81.0351 44.1345 81.0351 44.1672 81.033C44.2324 81.0294 44.297 81.0252 44.363 81.0259C45.1243 81.0365 45.8332 81.3473 46.3582 81.9022C46.4228 81.9703 46.4831 82.0412 46.5384 82.1143C47.3771 83.2105 47.2643 84.8389 46.2234 85.8805L44.0785 88.0254C42.9879 89.116 41.2134 89.1153 40.1228 88.0247V88.0247ZM74.1414 67.6732C73.0509 68.7644 71.2763 68.7637 70.1858 67.6732C70.146 67.6334 70.1042 67.5965 70.0616 67.5618L58.3358 55.7126C57.627 54.9966 56.4726 54.991 55.7567 55.6998C55.0408 56.4079 55.0351 57.5623 55.7432 58.2782L67.596 70.2545C67.5974 70.2559 67.5988 70.2573 67.6002 70.2587C68.6908 71.3493 68.6908 73.1245 67.6002 74.2151C67.0716 74.7437 66.3692 75.0346 65.622 75.0346C64.8742 75.0346 64.1718 74.7437 63.6439 74.2151L55.7148 66.2037C55.0067 65.4878 53.8523 65.4821 53.1364 66.1902C52.4205 66.8991 52.4148 68.0535 53.1229 68.7694L60.9306 76.658C60.9703 76.7077 61.0129 76.7552 61.0583 76.8006C62.1489 77.8912 62.1489 79.6664 61.0583 80.757C59.9671 81.8475 58.1918 81.8468 57.1013 80.7563L52.7738 76.3834C52.065 75.6675 50.9106 75.6611 50.1947 76.3699C49.4787 77.078 49.4731 78.2325 50.1812 78.9484L54.388 83.1985C54.4277 83.2482 54.4703 83.2964 54.5164 83.3418C55.607 84.4324 55.607 86.2076 54.5164 87.2982C53.4259 88.3894 51.6513 88.3887 50.5608 87.2982C50.4352 87.1726 50.2876 87.0761 50.1471 86.9682C50.0279 86.8774 49.9967 86.8143 50.0563 86.6695C50.1166 86.5227 50.2067 86.39 50.267 86.2424C50.3337 86.0778 50.3876 85.9082 50.4402 85.7379C50.7197 84.8368 50.802 83.8676 50.6764 82.9324C50.4352 81.138 49.4482 79.5188 47.9525 78.4943C47.1444 77.9415 46.2092 77.579 45.24 77.4427C45.7097 75.3709 45.1456 73.1245 43.6783 71.5742C42.4707 70.2984 40.8395 69.5825 39.0848 69.5584C39.0209 69.5577 38.9571 69.5577 38.8925 69.5584C38.9315 67.8839 38.3227 66.22 37.1683 65.0004C35.96 63.7246 34.3288 63.0087 32.5748 62.9846C32.0533 62.9775 31.5268 63.0328 31.0188 63.1499C30.8017 61.6393 30.0403 60.2415 28.8874 59.2418C27.7415 58.2499 26.3004 57.6993 24.7657 57.678C23.1501 57.6546 21.5628 58.2506 20.363 59.334L13.3138 49.8355L30.178 29.2902L35.5527 30.7604L28.5333 43.1467C27.6847 44.6445 27.4704 46.3829 27.9295 48.0418C28.3886 49.7014 29.4656 51.0821 30.9635 51.9307C31.0571 51.984 31.1515 52.0343 31.2473 52.0826C31.2544 52.0861 31.2615 52.0897 31.2693 52.0932C31.5211 52.2188 31.7801 52.3267 32.0427 52.4175C33.2652 52.8411 34.5856 52.8872 35.8592 52.5353C37.5181 52.0762 38.8989 50.9984 39.7475 49.5013L44.3091 41.4516L52.4538 42.0292L74.1421 63.7168C75.232 64.8081 75.232 66.5826 74.1414 67.6732V67.6732ZM74.8971 59.3142L54.5512 38.969C54.5129 38.93 54.4724 38.8931 54.4306 38.8583C54.1375 38.6142 53.7743 38.4666 53.3911 38.4397L43.4186 37.7323C42.7289 37.6847 42.0435 38.0516 41.703 38.6525L36.5744 47.7033C36.2062 48.3533 35.6066 48.8209 34.8865 49.0202C34.167 49.2196 33.4121 49.126 32.7614 48.7577C32.1115 48.3895 31.6439 47.7899 31.4445 47.0697C31.2451 46.3495 31.3381 45.5946 31.707 44.9447L38.5533 32.862L41.3276 32.0638C41.3461 32.0581 41.3638 32.051 41.3822 32.0453L51.7365 29.0554H64.247L79.8652 48.9095L74.8971 59.3142ZM82.2542 46.0473L67.811 27.6767L75.1823 22.9889L88.6784 40.5193L82.2542 46.0473Z" fill="#FC3A3C"/>
<path d="M56.3418 21.9842C56.8087 21.9842 57.2756 21.8061 57.6317 21.4499L70.0883 8.99332C70.8007 8.28095 70.8007 7.12653 70.0883 6.41416C69.3759 5.70179 68.2215 5.70179 67.5092 6.41416L55.0526 18.8707C54.3402 19.5831 54.3402 20.7375 55.0526 21.4499C55.4088 21.8061 55.8756 21.9842 56.3418 21.9842Z" fill="#FC3A3C"/>
<path d="M35.3681 21.4499C35.7242 21.8061 36.1911 21.9842 36.658 21.9842C37.1241 21.9842 37.591 21.8061 37.9472 21.4499C38.6596 20.7375 38.6596 19.5831 37.9472 18.8707L25.4906 6.41416C24.7783 5.70179 23.6238 5.70179 22.9115 6.41416C22.1991 7.12653 22.1991 8.28095 22.9115 8.99332L35.3681 21.4499Z" fill="#FC3A3C"/>
<path d="M46.5 21.9841C47.5068 21.9841 48.3235 21.1675 48.3235 20.1606V9.85182C48.3235 8.84499 47.5068 8.02832 46.5 8.02832C45.4932 8.02832 44.6765 8.84499 44.6765 9.85182V20.1606C44.6765 21.1675 45.4932 21.9841 46.5 21.9841Z" fill="#FC3A3C"/>
<path d="M44.8173 3.24255C45.1068 3.94428 45.8284 4.40477 46.5897 4.36504C47.3418 4.32601 48.0024 3.81799 48.2351 3.10207C48.4685 2.38047 48.2145 1.55812 47.61 1.09834C46.9934 0.628631 46.1335 0.602378 45.4885 1.02881C44.769 1.5042 44.4902 2.45071 44.8173 3.24255Z" fill="#FC3A3C"/>
</g>
<defs>
<clipPath id="clip0_2202_1038">
<rect width="93" height="93" fill="white"/>
</clipPath>
</defs>
</svg>
