<svg width="87" height="87" viewBox="0 0 87 87" fill="none" xmlns="http://www.w3.org/2000/svg">
<g clip-path="url(#clip0_2202_1107)">
<path d="M87.0001 55.8652C87.0096 53.6976 86.3163 51.5853 85.0241 49.8449C83.7319 48.1046 81.9105 46.8299 79.8328 46.212L72.9051 44.1202V41.6071C73.7427 41.1505 74.5121 40.5785 75.1905 39.9079C76.1439 38.9724 76.9004 37.8555 77.4155 36.6231C77.9306 35.3907 78.1938 34.0677 78.1897 32.7321V27.1756C78.191 25.1296 77.5695 23.1316 76.4079 21.4473C75.2462 19.763 73.5994 18.4722 71.6864 17.7464C69.7735 17.0206 67.6849 16.8943 65.6984 17.3843C63.7118 17.8742 61.9215 18.9572 60.5653 20.4892V17.0653C60.5653 12.5393 58.7674 8.19865 55.5671 4.9983C52.3667 1.79794 48.0261 0 43.5001 0C38.9741 0 34.6335 1.79794 31.4331 4.9983C28.2328 8.19865 26.4348 12.5393 26.4348 17.0653V20.4892C25.0787 18.9572 23.2883 17.8742 21.3018 17.3843C19.3153 16.8943 17.2267 17.0206 15.3138 17.7464C13.4008 18.4722 11.754 19.763 10.5923 21.4473C9.4307 23.1316 8.80923 25.1296 8.81054 27.1756V32.7337C8.80642 34.0694 9.06964 35.3924 9.58472 36.6248C10.0998 37.8572 10.8563 38.974 11.8097 39.9095C12.4878 40.5806 13.2572 41.1526 14.0951 41.6088V44.1219L7.1674 46.212C5.08972 46.8299 3.26828 48.1046 1.9761 49.8449C0.683918 51.5853 -0.0093899 53.6976 9.60595e-05 55.8652V67.8345C-0.000127276 68.002 0.0326716 68.1679 0.0966169 68.3227C0.160562 68.4775 0.254399 68.6182 0.372762 68.7368C0.491125 68.8553 0.63169 68.9493 0.78642 69.0135C0.94115 69.0776 1.10701 69.1106 1.27451 69.1106H16.4825V76.1148C16.4825 76.4528 16.6168 76.777 16.8558 77.016C17.0948 77.255 17.4189 77.3892 17.7569 77.3892H30.4161C31.2891 80.1759 33.029 82.6111 35.3825 84.34C37.7359 86.069 40.5799 87.0013 43.5001 87.0013C46.4203 87.0013 49.2643 86.069 51.6177 84.34C53.9711 82.6111 55.7111 80.1759 56.5841 77.3892H69.2467C69.5847 77.3892 69.9088 77.255 70.1478 77.016C70.3868 76.777 70.5211 76.4528 70.5211 76.1148V69.1106H85.7257C86.0637 69.1106 86.3878 68.9764 86.6268 68.7374C86.8658 68.4984 87.0001 68.1742 87.0001 67.8362V65.5779V57.8958C87.0001 57.8839 87.0001 57.8737 87.0001 57.8618V55.8652ZM68.1065 19.6413C70.104 19.6435 72.0191 20.438 73.4316 21.8505C74.8441 23.263 75.6386 25.1781 75.6408 27.1756V32.7337C75.6408 34.7321 74.8471 36.6487 73.4342 38.0619C72.0213 39.4752 70.1049 40.2693 68.1065 40.2698H68.0062C63.906 40.2171 60.5704 36.7779 60.5704 32.6046V27.1756C60.5727 25.1778 61.3674 23.2624 62.7803 21.8499C64.1931 20.4374 66.1087 19.6431 68.1065 19.6413ZM70.3562 42.5637V45.0667C70.3562 45.6634 70.1192 46.2356 69.6973 46.6575C69.2754 47.0794 68.7032 47.3164 68.1065 47.3164C67.5098 47.3164 66.9376 47.0794 66.5157 46.6575C66.0938 46.2356 65.8567 45.6634 65.8567 45.0667V42.5569C66.5494 42.7193 67.2575 42.8065 67.9688 42.8169H68.1048C68.8624 42.8172 69.6176 42.7323 70.3562 42.5637ZM63.3079 41.5833V44.1321L56.3785 46.2238C55.4396 46.508 54.5472 46.9276 53.7294 47.4694L50.2681 44.302V40.178C51.6249 39.1976 52.7528 37.9345 53.5742 36.476C54.3956 35.0174 54.8909 33.398 55.0259 31.7295H56.5382C57.0438 31.7292 57.5447 31.6335 58.0148 31.4474V32.6029C58.0154 34.4359 58.5065 36.2354 59.4373 37.8146C60.368 39.3937 61.7045 40.695 63.3079 41.5833ZM37.3319 49.7395L41.4474 52.3122L37.0618 56.5704C37.0511 56.5818 37.0377 56.5902 37.0228 56.595C37.0079 56.5998 36.9921 56.6006 36.9768 56.5976C36.9613 56.5952 36.9466 56.589 36.9342 56.5795C36.9217 56.57 36.9118 56.5575 36.9054 56.5432L33.8842 50.3479L36.7321 47.7548V48.6486C36.7324 48.8648 36.7875 49.0774 36.8924 49.2664C36.9974 49.4555 37.1486 49.6148 37.3319 49.7293V49.7395ZM43.5001 39.8331C41.1076 39.8299 38.814 38.8781 37.1222 37.1864C35.4305 35.4946 34.4787 33.201 34.4755 30.8085V26.7049L35.6837 24.812C35.9393 24.406 36.2938 24.0717 36.7142 23.8404C37.1345 23.6092 37.6067 23.4886 38.0864 23.49H41.9946C43.3338 23.486 44.6573 23.2012 45.8796 22.6539C47.1019 22.1065 48.1957 21.3089 49.0905 20.3125C49.3198 20.6564 49.5749 20.9825 49.8535 21.2878C50.6113 22.1187 51.7515 22.7254 52.5399 23.0771V30.7983C52.5368 33.1935 51.5829 35.4894 49.8878 37.1816C48.1928 38.8738 45.8952 39.8238 43.5001 39.8229V39.8331ZM47.7193 41.5816V47.9537L43.5001 50.5789L39.2809 47.9435V41.5714C41.9925 42.6386 45.0077 42.6386 47.7193 41.5714V41.5816ZM43.5001 53.8601L46.0489 56.3342L44.6658 59.5814H42.3429L40.9598 56.3342L43.5001 53.8601ZM45.5528 52.302L49.6683 49.7293C49.8516 49.6148 50.0028 49.4555 50.1077 49.2664C50.2127 49.0774 50.2678 48.8648 50.2681 48.6486V47.7548L53.1177 50.3479L50.0948 56.5364C50.089 56.5511 50.0792 56.564 50.0667 56.5736C50.0541 56.5831 50.0391 56.5891 50.0234 56.5908C50.0081 56.5939 49.9923 56.593 49.9774 56.5882C49.9625 56.5834 49.9491 56.575 49.9384 56.5636L45.5528 52.302ZM55.0684 29.1807V23.49H56.5399C56.9302 23.49 57.3045 23.645 57.5804 23.921C57.8564 24.197 58.0114 24.5713 58.0114 24.9615V27.7075C58.0114 28.0979 57.8564 28.4724 57.5805 28.7486C57.3046 29.0248 56.9303 29.1802 56.5399 29.1807H55.0684ZM28.9837 17.0653C28.9837 13.2153 30.5131 9.52295 33.2354 6.80059C35.9578 4.07823 39.6501 2.54883 43.5001 2.54883C47.3501 2.54883 51.0424 4.07823 53.7648 6.80059C56.4871 9.52295 58.0165 13.2153 58.0165 17.0653V21.2215C57.5481 21.0361 57.0488 20.9409 56.545 20.9412H54.0251C53.4422 20.7169 52.2851 20.1884 51.7209 19.5699C51.3227 19.1318 50.9964 18.6334 50.7541 18.0933L52.4295 15.6141C52.6188 15.334 52.689 14.9902 52.6248 14.6583C52.5606 14.3265 52.3672 14.0337 52.0871 13.8444C51.807 13.6551 51.4632 13.5848 51.1313 13.6491C50.7994 13.7133 50.5066 13.9067 50.3174 14.1868L47.5187 18.1986C46.8666 19.0489 46.0281 19.7382 45.0677 20.2137C44.1074 20.6891 43.0509 20.938 41.9793 20.9412H38.0711C36.7403 20.9386 35.4559 21.4303 34.467 22.3209V22.2122C34.467 21.8742 34.3328 21.55 34.0938 21.311C33.8548 21.072 33.5306 20.9378 33.1926 20.9378H30.4552C29.9514 20.9375 29.4521 21.0327 28.9837 21.2181V17.0653ZM31.9267 23.49V29.179H30.4552C30.0648 29.1785 29.6905 29.0231 29.4146 28.7469C29.1387 28.4707 28.9837 28.0962 28.9837 27.7058V24.9615C28.9837 24.5713 29.1387 24.197 29.4147 23.921C29.6906 23.645 30.0649 23.49 30.4552 23.49H31.9267ZM28.9786 32.6029V31.4474C29.4487 31.6335 29.9496 31.7292 30.4552 31.7295H31.9675C32.1025 33.398 32.5977 35.0174 33.4191 36.476C34.2405 37.9345 35.3685 39.1976 36.7253 40.178V44.302L33.2708 47.4575C32.453 46.9157 31.5606 46.4961 30.6217 46.212L23.6923 44.1202V41.5833C25.2944 40.6941 26.6295 39.3924 27.559 37.8134C28.4886 36.2343 28.9787 34.4353 28.9786 32.6029ZM13.5938 38.0965C12.8812 37.3975 12.3157 36.5629 11.9308 35.6418C11.5458 34.7208 11.3492 33.732 11.3526 32.7337V27.1756C11.3823 25.1967 12.1892 23.309 13.5991 21.9201C15.009 20.5312 16.9087 19.7527 18.8878 19.7527C20.8668 19.7527 22.7665 20.5312 24.1764 21.9201C25.5863 23.309 26.3932 25.1967 26.4229 27.1756V32.6029C26.4229 36.7762 23.0874 40.2154 18.9889 40.2681C17.9901 40.2849 16.9982 40.1013 16.0716 39.7283C15.1449 39.3554 14.3024 38.8005 13.5938 38.0965ZM21.1367 42.5569V45.0667C21.1367 45.6634 20.8996 46.2356 20.4777 46.6575C20.0558 47.0794 19.4836 47.3164 18.8869 47.3164C18.2902 47.3164 17.718 47.0794 17.2961 46.6575C16.8742 46.2356 16.6371 45.6634 16.6371 45.0667V42.5654C17.3749 42.7324 18.1288 42.8167 18.8852 42.8169H19.0212C19.7359 42.8073 20.4475 42.7202 21.1435 42.5569H21.1367ZM16.4825 61.702V66.5618H10.8955V62.3409C10.8955 62.0029 10.7612 61.6788 10.5222 61.4398C10.2832 61.2008 9.95907 61.0665 9.62107 61.0665C9.28308 61.0665 8.95893 61.2008 8.71993 61.4398C8.48093 61.6788 8.34666 62.0029 8.34666 62.3409V66.5618H2.54892V55.8652C2.54223 54.2456 3.06048 52.6673 4.02604 51.367C4.9916 50.0666 6.35249 49.114 7.90486 48.652L14.3806 46.6962C14.7158 47.6243 15.329 48.4264 16.1366 48.9933C16.9442 49.5602 17.907 49.8644 18.8937 49.8644C19.8804 49.8644 20.8432 49.5602 21.6508 48.9933C22.4584 48.4264 23.0716 47.6243 23.4068 46.6962L29.8826 48.652C30.2518 48.7631 30.6119 48.9023 30.9599 49.0683L25.2896 50.4634C22.7747 51.0791 20.5394 52.5216 18.9424 54.5596C17.3453 56.5975 16.4791 59.1129 16.4825 61.702ZM29.8843 74.8387H27.0975V70.6195C27.0973 70.282 26.9635 69.9582 26.7254 69.7189L25.6107 68.6009C25.3716 68.3618 25.0474 68.2275 24.7093 68.2275C24.3712 68.2275 24.0469 68.3618 23.8078 68.6009C23.5688 68.8399 23.4345 69.1642 23.4345 69.5023C23.4345 69.8404 23.5688 70.1646 23.8078 70.4037L24.5453 71.1412V74.8319H19.0313V61.702C19.0278 59.6824 19.7033 57.7202 20.9492 56.1306C22.1952 54.5411 23.9393 53.4165 25.9013 52.9375L31.6277 51.5305L34.6166 57.6596C34.7997 58.0346 35.0688 58.3611 35.4018 58.6127C35.7348 58.8642 36.1225 59.0337 36.5333 59.1073C36.6825 59.1338 36.8338 59.1468 36.9853 59.1464C37.6766 59.1502 38.3422 58.8845 38.8408 58.4055L39.0023 58.2475L39.7924 60.1031C36.6558 60.9788 33.9345 62.9447 32.1176 65.6473C30.3008 68.35 29.5077 71.6121 29.8809 74.8472L29.8843 74.8387ZM67.9756 74.8387H62.4549V71.1497L63.1923 70.4122C63.4325 70.1731 63.5679 69.8484 63.5687 69.5096C63.5695 69.1706 63.4357 68.8453 63.1966 68.6051C63.0782 68.4862 62.9376 68.3917 62.7827 68.3271C62.6278 68.2626 62.4617 68.2291 62.2939 68.2287C61.955 68.2279 61.6297 68.3618 61.3895 68.6009L60.2782 69.7122C60.0404 69.9516 59.9066 70.2752 59.9061 70.6127V74.8319H57.1193C57.509 71.4648 56.6326 68.0731 54.6606 65.3163C54.565 65.1758 54.4424 65.0559 54.2999 64.9635C54.1573 64.8712 53.9978 64.8082 53.8305 64.7784C53.6633 64.7486 53.4918 64.7525 53.3262 64.7899C53.1605 64.8273 53.0039 64.8975 52.8658 64.9962C52.7276 65.095 52.6105 65.2204 52.5215 65.365C52.4325 65.5097 52.3733 65.6707 52.3473 65.8385C52.3214 66.0064 52.3293 66.1777 52.3706 66.3425C52.4118 66.5073 52.4856 66.6621 52.5875 66.798C54.1642 69.0152 54.8742 71.733 54.5833 74.438C54.2924 77.1431 53.0209 79.6479 51.0089 81.4791C48.9968 83.3104 46.3838 84.3413 43.6634 84.377C40.943 84.4128 38.3038 83.4508 36.2444 81.673C34.185 79.8953 32.848 77.4247 32.4862 74.7283C32.1244 72.0318 32.7627 69.2963 34.2806 67.0385C35.7985 64.7806 38.0908 63.157 40.7244 62.4743C43.358 61.7916 46.1504 62.0972 48.574 63.3333C48.723 63.4094 48.8856 63.4554 49.0524 63.4686C49.2193 63.4819 49.3871 63.4621 49.5463 63.4105C49.7055 63.359 49.853 63.2765 49.9803 63.1679C50.1077 63.0593 50.2124 62.9267 50.2885 62.7776C50.3646 62.6286 50.4106 62.466 50.4238 62.2992C50.4371 62.1323 50.4173 61.9645 50.3657 61.8053C50.3141 61.6461 50.2317 61.4986 50.1231 61.3713C50.0145 61.2439 49.8819 61.1392 49.7328 61.0631C48.9267 60.652 48.0814 60.323 47.2095 60.081L47.9996 58.2288L48.1594 58.3852C48.6553 58.8659 49.319 59.1347 50.0098 59.1345C50.1612 59.1347 50.3124 59.1222 50.4618 59.0971C50.8741 59.0241 51.2634 58.8547 51.5979 58.6028C51.9324 58.351 52.2028 58.0237 52.387 57.6477L55.3759 51.5186L61.1023 52.9256C63.0657 53.4057 64.8105 54.5323 66.056 56.1243C67.3015 57.7162 67.9752 59.6808 67.9688 61.702L67.9756 74.8387ZM84.4513 57.8958V66.5618H78.6535V62.3409C78.6535 62.0029 78.5193 61.6788 78.2803 61.4398C78.0413 61.2008 77.7171 61.0665 77.3791 61.0665C77.0411 61.0665 76.717 61.2008 76.478 61.4398C76.239 61.6788 76.1047 62.0029 76.1047 62.3409V66.5618H70.5177V61.702C70.5213 59.1121 69.6547 56.5961 68.057 54.5577C66.4593 52.5193 64.2231 51.0768 61.7072 50.4617L56.0369 49.0683C56.3843 48.9023 56.7439 48.7631 57.1125 48.652L63.59 46.6962C63.9248 47.6244 64.5377 48.4268 65.3452 48.9939C66.1527 49.5611 67.1155 49.8654 68.1022 49.8654C69.089 49.8654 70.0517 49.5611 70.8592 48.9939C71.6667 48.4268 72.2797 47.6244 72.6145 46.6962L79.0919 48.652C80.6449 49.1134 82.0066 50.0657 82.9728 51.3661C83.939 52.6666 84.4577 54.2451 84.4513 55.8652V57.8584C84.4513 57.8703 84.4513 57.8805 84.4513 57.8924V57.8958Z" fill="#FC3A3C"/>
<path d="M48.3479 61.7718C48.3479 61.7718 53.189 63.8109 54.9749 68.3325" stroke="#FC3A3C" stroke-width="2.49785" stroke-miterlimit="10"/>
<path d="M48.3892 70.3872L46.3625 69.9156C46.3502 69.9127 46.3394 69.9047 46.3329 69.8933L45.2731 68.0449C44.8982 67.3906 44.2353 67 43.5002 67C42.765 67 42.1022 67.3906 41.7273 68.0447L40.6672 69.8936C40.6609 69.9047 40.6502 69.9128 40.6378 69.9156L38.6112 70.3872C37.8939 70.5542 37.3301 71.0856 37.1029 71.8091C36.8757 72.5326 37.0298 73.3054 37.5153 73.8766L38.8869 75.4904C38.8953 75.5003 38.8995 75.5136 38.8983 75.5266L38.7054 77.6667C38.6371 78.424 38.9515 79.143 39.5462 79.59C40.1411 80.0372 40.8992 80.1242 41.5742 79.8232L43.4818 78.972C43.4818 78.972 43.4819 78.972 43.482 78.9719C43.4937 78.9668 43.5069 78.9669 43.5183 78.972L45.4259 79.8232C45.6916 79.9417 45.97 80 46.2462 80C46.6722 80 47.093 79.8611 47.4537 79.59C48.0485 79.143 48.3628 78.4239 48.2946 77.6665L48.1017 75.5266C48.1005 75.5134 48.1045 75.5002 48.1128 75.4904L49.4846 73.8765C49.9701 73.3053 50.1244 72.5325 49.8971 71.8089C49.6703 71.0857 49.1063 70.5542 48.3892 70.3872ZM47.9716 72.4998L46.5995 74.114C46.2269 74.5529 46.0429 75.1383 46.0953 75.7202L46.2883 77.8602C46.2895 77.8735 46.2908 77.8873 46.2693 77.9034C46.2484 77.9194 46.2357 77.9141 46.2239 77.9087L44.3166 77.0577C44.057 76.9419 43.7787 76.8839 43.5002 76.8839C43.2218 76.8839 42.9433 76.9419 42.684 77.0575L40.7764 77.9087C40.7646 77.9141 40.752 77.9195 40.731 77.9034C40.7097 77.8874 40.711 77.8736 40.7121 77.8603L40.905 75.7202C40.9574 75.1383 40.7735 74.553 40.4005 74.1139L39.0287 72.4999C39.0203 72.4899 39.0114 72.4795 39.0196 72.4536C39.0278 72.4276 39.0407 72.4247 39.0535 72.4218L41.0801 71.9502C41.6314 71.8219 42.1129 71.4599 42.4007 70.9573L43.4607 69.1087C43.4673 69.0971 43.4741 69.0853 43.5003 69.0853C43.5265 69.0853 43.5334 69.0971 43.5401 69.1087L44.5997 70.957C44.8878 71.4599 45.3693 71.8219 45.9205 71.9502L47.9472 72.4218C47.9599 72.4247 47.9728 72.4278 47.981 72.4536C47.9889 72.4794 47.9802 72.4896 47.9716 72.4998Z" fill="#FC3A3C"/>
</g>
<defs>
<clipPath id="clip0_2202_1107">
<rect width="87" height="87" fill="white"/>
</clipPath>
</defs>
</svg>
